<?xml version="1.0" encoding="UTF-8"?>
<svg version="1.1" xmlns="http://www.w3.org/2000/svg" width="512" height="512">
<path d="M0 0 C1.1772818 -0.00480972 1.1772818 -0.00480972 2.37834707 -0.0097166 C5.01222931 -0.01802786 7.64588483 -0.01208837 10.27977085 -0.00622082 C12.18561963 -0.00924098 14.09146719 -0.01312978 15.99731261 -0.01781338 C21.23779014 -0.02811944 26.47819945 -0.02590493 31.71868265 -0.02163279 C37.36907817 -0.01917031 43.01945706 -0.02817375 48.66984653 -0.03567028 C59.74057442 -0.04843239 70.81127806 -0.05020911 81.88201206 -0.04787002 C90.87828478 -0.04608848 99.87455012 -0.04783298 108.87082195 -0.05209446 C110.78989629 -0.05298724 110.78989629 -0.05298724 112.74773981 -0.05389806 C115.34662449 -0.05510979 117.94550917 -0.05632392 120.54439384 -0.05754044 C137.99896514 -0.06532984 155.45353152 -0.06924523 172.90810394 -0.06522369 C173.59071276 -0.06506732 174.27332157 -0.06491094 174.9766155 -0.06474983 C178.43638058 -0.06394404 181.89614565 -0.06309827 185.35591071 -0.06223653 C186.38659927 -0.06197989 186.38659927 -0.06197989 187.43810982 -0.06171808 C188.82764463 -0.06137142 190.21717944 -0.06102289 191.60671425 -0.06067249 C213.23111207 -0.05531449 234.85546913 -0.06324779 256.47985935 -0.08170605 C280.77265293 -0.10241771 305.06541374 -0.11311931 329.35821825 -0.10913056 C342.22176204 -0.10721592 355.08526868 -0.10973168 367.94880581 -0.1238451 C378.89890831 -0.13573739 389.84895079 -0.13718797 400.79905408 -0.12505493 C406.38771237 -0.11915127 411.97626076 -0.11810787 417.56491184 -0.13005733 C422.67906149 -0.14086535 427.79300881 -0.13787356 432.90714879 -0.12379565 C434.75903317 -0.12113468 436.61093315 -0.12355889 438.46280228 -0.13153151 C440.9775271 -0.14160793 443.49154459 -0.13324115 446.00624084 -0.12025452 C446.72734426 -0.12756386 447.44844767 -0.13487321 448.1914027 -0.14240405 C454.47449816 -0.07502164 458.93631558 1.51197298 463.81604099 5.50447559 C468.13903774 10.78813828 469.69658336 17.02018317 471.24255466 23.54329395 C471.43799618 24.35179358 471.63343769 25.1602932 471.83480167 25.99329281 C474.47258583 37.02267892 476.90181566 48.0985011 479.25354099 59.19197559 C479.48632755 60.28700649 479.71911411 61.38203739 479.95895481 62.51025105 C488.0972157 101.13341805 490.92104718 138.69694148 490.56604099 178.12947559 C490.557258 179.3685202 490.548475 180.60756481 490.53942585 181.88415623 C490.47704691 190.13180918 490.34674193 198.3759355 490.15979099 206.62166309 C490.13922453 207.68617128 490.11865807 208.75067947 490.09746838 209.84744549 C490.03275141 212.82654538 489.94043746 215.80333417 489.83752537 218.78133106 C489.81204262 220.0768233 489.81204262 220.0768233 489.78604507 221.39848709 C489.50638938 227.93935993 487.72728703 232.13067965 483.42541599 237.18025684 C482.89432224 237.63787403 482.36322849 238.09549122 481.81604099 238.56697559 C481.29525974 239.03748341 480.77447849 239.50799122 480.23791599 239.99275684 C472.45574413 244.51369481 463.24530902 243.48750782 454.56604099 243.37947559 C453.15719318 243.36942629 451.74833844 243.36030389 450.33947849 243.35213184 C446.91482049 243.32867528 443.4905216 243.29584943 440.06604099 243.25447559 C440.10302097 244.12350513 440.10302097 244.12350513 440.14074802 245.01009083 C440.39811584 255.4875561 436.13881155 264.56740337 429.06604099 272.25447559 C419.51952101 281.74254749 410.13739418 285.51113369 396.76135349 286.27791309 C384.17063791 286.19805655 374.33349317 281.47111964 365.25354099 273.00447559 C361.00902887 268.55748675 358.38110795 263.91568974 356.06604099 258.25447559 C355.63291599 257.24385059 355.19979099 256.23322559 354.75354099 255.19197559 C354.06604099 252.25447559 354.06604099 252.25447559 354.06604099 243.25447559 C274.20604099 243.25447559 194.34604099 243.25447559 112.06604099 243.25447559 C112.06604099 246.22447559 112.06604099 249.19447559 112.06604099 252.25447559 C109.30426167 263.25530606 102.15185835 273.43709546 92.79650974 279.79744434 C82.28653608 285.90289753 70.31263792 287.57301886 58.37854099 285.25447559 C51.74356296 283.47652777 46.49045675 280.41435713 41.06604099 276.25447559 C40.40861912 275.75303028 39.75119724 275.25158497 39.07385349 274.73494434 C32.66526525 269.109628 28.73230192 260.25325838 26.06604099 252.25447559 C25.99863235 250.69329131 25.98089643 249.12945039 26.00354099 247.56697559 C26.01256443 246.75873341 26.02158787 245.95049122 26.03088474 245.11775684 C26.04248631 244.50287403 26.05408787 243.88799122 26.06604099 243.25447559 C24.58394138 243.27804127 24.58394138 243.27804127 23.07190037 243.30208302 C19.37439352 243.35675412 15.67692175 243.39095951 11.97912693 243.41927052 C10.38466458 243.43427304 8.79024291 243.4546818 7.19592381 243.48079395 C4.89211022 243.51755694 2.58884639 243.53428714 0.28479099 243.54744434 C-0.41762722 243.5629282 -1.12004543 243.57841206 -1.84374905 243.59436512 C-7.75935487 243.59633605 -13.36483827 242.44334696 -17.99255276 238.50056934 C-18.67511135 237.60531544 -18.67511135 237.60531544 -19.37145901 236.69197559 C-19.84454494 236.09256153 -20.31763088 235.49314747 -20.80505276 234.87556934 C-23.49820861 231.00823481 -23.08212678 227.29360133 -23.08113003 222.7402544 C-23.08480672 221.84848098 -23.0884834 220.95670756 -23.09227151 220.0379107 C-23.10333775 217.03164275 -23.10715716 214.02540933 -23.11096096 211.01912403 C-23.11722338 208.87095498 -23.12386998 206.72278701 -23.13087368 204.57462025 C-23.14830376 198.72535258 -23.15884085 192.8760931 -23.16707921 187.02680588 C-23.17222497 183.37470004 -23.17830088 179.72259677 -23.18459034 176.07049274 C-23.20364777 164.65066669 -23.21787789 153.23084712 -23.22620231 141.81100821 C-23.23597861 128.61617425 -23.2623062 115.42150787 -23.3027032 102.22673297 C-23.33283413 92.0364482 -23.3476683 81.84621154 -23.35098332 71.65588307 C-23.35333721 65.56572402 -23.36234175 59.47574389 -23.3874445 53.38563251 C-23.41067731 47.65648453 -23.41497765 41.92763387 -23.40468311 36.19845104 C-23.40418648 34.09495971 -23.41054426 31.99145398 -23.42423916 29.88800716 C-23.44188517 27.0171901 -23.43488767 24.14744848 -23.4217062 21.27663136 C-23.43267545 20.44335497 -23.44364469 19.61007858 -23.45494634 18.75155139 C-23.39609391 13.44594309 -22.41209341 10.48603677 -18.93395901 6.25447559 C-13.28581091 0.90359844 -7.56959477 -0.0460016 0 0 Z " fill="#1785B8" transform="translate(22.933959007263184,112.7455244064331)"/>
<path d="M0 0 C4.55749512 0.28484344 4.55749512 0.28484344 9.11499023 0.56968689 C9.85821533 0.61613846 10.60144043 0.66259003 11.3671875 0.71044922 C13.63964844 0.85247803 15.91210938 0.99450684 18.18457031 1.13653564 C18.88936523 1.18058533 19.59416016 1.22463501 20.3203125 1.27001953 C25.59960938 1.59997559 25.59960938 1.59997559 30.87890625 1.92993164 C31.92884766 1.99555298 31.92884766 1.99555298 33 2.0625 C34.46875 2.15429688 35.9375 2.24609375 37.40625 2.33789062 C38.10548584 2.38159286 38.80472168 2.4252951 39.52514648 2.47032166 C43.76257324 2.73516083 43.76257324 2.73516083 48 3 C48.09288948 11.4843799 48.16386033 19.96854552 48.20724869 28.45330906 C48.22807839 32.39361664 48.2563104 36.33357501 48.30175781 40.27368164 C48.34538211 44.07977137 48.36917181 47.8855263 48.37950897 51.69184685 C48.38687079 53.14027104 48.40124672 54.58867796 48.42292023 56.03695869 C48.55108327 64.96016101 48.3253735 70.92283539 42.359375 77.92578125 C41.82828125 78.38339844 41.2971875 78.84101563 40.75 79.3125 C40.22921875 79.78300781 39.7084375 80.25351562 39.171875 80.73828125 C31.38970314 85.25921922 22.17926802 84.23303222 13.5 84.125 C12.09115219 84.11495069 10.68229745 84.10582829 9.2734375 84.09765625 C5.8487795 84.07419969 2.42448061 84.04137384 -1 84 C-0.97534668 84.57935303 -0.95069336 85.15870605 -0.92529297 85.75561523 C-0.66792516 96.23308051 -4.92722944 105.31292777 -12 113 C-21.54651998 122.4880719 -30.92864682 126.2566581 -44.3046875 127.0234375 C-56.89540308 126.94358095 -66.73254782 122.21664404 -75.8125 113.75 C-80.05701212 109.30301115 -82.68493305 104.66121415 -85 99 C-85.433125 97.989375 -85.86625 96.97875 -86.3125 95.9375 C-87 93 -87 93 -87 84 C-166.86 84 -246.72 84 -329 84 C-329 86.97 -329 89.94 -329 93 C-331.76177932 104.00083047 -338.91418265 114.18261987 -348.26953125 120.54296875 C-358.77950491 126.64842193 -370.75340307 128.31854327 -382.6875 126 C-389.32247803 124.22205217 -394.57558424 121.15988154 -400 117 C-400.65742188 116.49855469 -401.31484375 115.99710937 -401.9921875 115.48046875 C-408.40077574 109.85515241 -412.33373907 100.99878279 -415 93 C-415.06740865 91.43881572 -415.08514456 89.8749748 -415.0625 88.3125 C-415.05347656 87.50425781 -415.04445313 86.69601562 -415.03515625 85.86328125 C-415.02355469 85.24839844 -415.01195312 84.63351562 -415 84 C-415.98806641 84.01571045 -416.97613281 84.0314209 -417.99414062 84.04760742 C-421.69164747 84.10227853 -425.38911924 84.13648392 -429.08691406 84.16479492 C-430.68137641 84.17979745 -432.27579808 84.20020621 -433.87011719 84.22631836 C-436.17393077 84.26308134 -438.4771946 84.27981155 -440.78125 84.29296875 C-441.48366821 84.30845261 -442.18608643 84.32393646 -442.90979004 84.33988953 C-448.82539586 84.34186046 -454.43087927 83.18887137 -459.05859375 79.24609375 C-459.74115234 78.35083984 -459.74115234 78.35083984 -460.4375 77.4375 C-461.14712891 76.53837891 -461.14712891 76.53837891 -461.87109375 75.62109375 C-464.52955463 71.80358073 -464.12667677 68.20354126 -464.09765625 63.7109375 C-464.0962413 62.89251373 -464.09482635 62.07408997 -464.09336853 61.23086548 C-464.0877629 58.61220675 -464.07520948 55.99363296 -464.0625 53.375 C-464.05748572 51.60156373 -464.05292269 49.82812613 -464.04882812 48.0546875 C-464.03779164 43.70309218 -464.02052325 39.3515605 -464 35 C-463.03490047 34.99978263 -462.06980094 34.99956526 -461.07545596 34.99934131 C-403.9162774 34.98602688 -346.75716336 34.94640957 -289.59802913 34.87314438 C-282.73975079 34.86436036 -275.88147216 34.85582175 -269.02319336 34.84741211 C-268.34070404 34.84657106 -267.65821473 34.84573001 -266.95504392 34.84486348 C-244.8246617 34.81770676 -222.69430747 34.80676216 -200.56390988 34.80420476 C-177.1820668 34.80141483 -153.80031705 34.78019447 -130.41850299 34.73947543 C-116.40727986 34.71567276 -102.39620645 34.70669411 -88.38496586 34.71648689 C-78.78589038 34.72178955 -69.18694946 34.70883562 -59.5879123 34.6813371 C-54.0440411 34.66600049 -48.5004709 34.65889348 -42.95659065 34.67340279 C-37.88533639 34.68649806 -32.81466706 34.67677146 -27.7434791 34.64856227 C-25.90491811 34.6424227 -24.06630574 34.64480184 -22.2277709 34.65637074 C-19.73526165 34.67083268 -17.24477049 34.65476738 -14.75237751 34.63085651 C-14.03232671 34.64238724 -13.31227591 34.65391796 -12.57040539 34.6657981 C-8.63716002 34.59100723 -7.12559545 34.10646421 -4.07797641 31.52307147 C-3.39224419 30.69045788 -2.70651198 29.8578443 -2 29 C-1.67 28.67 -1.34 28.34 -1 28 C-0.8415735 25.9291528 -0.74875578 23.85321971 -0.68359375 21.77734375 C-0.64169922 20.51728516 -0.59980469 19.25722656 -0.55664062 17.95898438 C-0.51682404 16.61849264 -0.47711186 15.2779978 -0.4375 13.9375 C-0.39431958 12.59308477 -0.35070544 11.2486834 -0.30664062 9.90429688 C-0.20014636 6.6029746 -0.09894181 3.30155475 0 0 Z " fill="#0A7693" transform="translate(464,272)"/>
<path d="M0 0 C1.11249115 -0.00073013 2.2249823 -0.00146027 3.3711853 -0.00221252 C7.05101148 0.00127291 10.72957443 0.04018219 14.40917969 0.0793457 C16.9593639 0.08867035 19.50955706 0.0957881 22.05975342 0.1007843 C28.0876713 0.11792903 34.11504634 0.15734083 40.14274669 0.20753175 C47.00600617 0.26343835 53.86928745 0.29091489 60.73271799 0.31600893 C74.84908148 0.36825777 88.96504324 0.45619165 103.08105469 0.56762695 C103.30754196 1.62882248 103.30754196 1.62882248 103.53860474 2.7114563 C104.26302583 6.10376001 104.98847341 9.4958436 105.71386719 12.88793945 C106.11945358 14.78843552 106.11945358 14.78843552 106.53323364 16.72732544 C107.86408343 22.95341561 109.20967803 29.1754522 110.60742188 35.38696289 C117.82667705 67.50804241 121.80555586 97.63086054 120.08105469 130.56762695 C106.98005301 130.77089333 94.21229124 130.39991592 81.20605469 128.81762695 C79.63753935 128.6338124 78.06901711 128.45005681 76.50048828 128.26635742 C5.36728446 119.7908297 5.36728446 119.7908297 -11.76269531 99.47387695 C-14.91695793 94.27360615 -15.21641637 89.00654511 -15.20947266 83.07128906 C-15.21618988 82.2396373 -15.2229071 81.40798553 -15.22982788 80.5511322 C-15.24874959 77.81568349 -15.25272849 75.08048068 -15.25488281 72.3449707 C-15.26131255 70.437382 -15.26804104 68.52979429 -15.27505493 66.62220764 C-15.28701147 62.63027661 -15.2907372 58.63843204 -15.28955078 54.64648438 C-15.28934717 49.53290601 -15.31670001 44.41988076 -15.3510952 39.30643368 C-15.37333111 35.36960808 -15.37738941 31.43291659 -15.37633133 27.49603462 C-15.37869032 25.61058195 -15.38753063 23.72512575 -15.40299606 21.83973503 C-15.42259824 19.20428452 -15.41684212 16.57004036 -15.40478516 13.93457031 C-15.42164368 12.76942902 -15.42164368 12.76942902 -15.43884277 11.58074951 C-15.39956455 8.20110159 -14.96389197 5.6672435 -13.5710144 2.58016968 C-9.34414465 -0.62742246 -5.16403279 -0.08827533 0 0 Z " fill="#B4E6FD" transform="translate(391.9189453125,144.432373046875)"/>
<path d="M0 0 C14.5096875 -0.0928125 14.5096875 -0.0928125 29.3125 -0.1875 C32.36540283 -0.21481201 35.41830566 -0.24212402 38.5637207 -0.27026367 C40.97607019 -0.27902323 43.38842409 -0.28666841 45.80078125 -0.29296875 C47.68863342 -0.3159906 47.68863342 -0.3159906 49.61462402 -0.33947754 C50.8121228 -0.33984009 52.00962158 -0.34020264 53.2434082 -0.34057617 C54.28487503 -0.34723801 55.32634186 -0.35389984 56.39936829 -0.36076355 C59.45638617 0.06331058 60.11856109 0.6288227 62 3 C62.29112489 5.95776956 62.39933011 8.70413954 62.37231445 11.66235352 C62.37596512 12.54715393 62.37961578 13.43195435 62.38337708 14.34356689 C62.39149224 17.27220775 62.37786549 20.20029704 62.36328125 23.12890625 C62.36276281 25.16006978 62.3632799 27.19123382 62.36479187 29.22239685 C62.36470211 33.48029058 62.35426326 37.73799512 62.33618164 41.99584961 C62.31347997 47.46277834 62.31295254 52.92943087 62.31969929 58.39639378 C62.32303506 62.59045379 62.31641682 66.78445044 62.30657005 70.97849846 C62.30271207 72.99479783 62.3015723 75.01110425 62.3031559 77.02740669 C62.30352534 79.84075568 62.29094108 82.65374576 62.2746582 85.46704102 C62.27713562 86.30605453 62.27961304 87.14506805 62.28216553 88.00950623 C62.22874215 93.77125785 62.22874215 93.77125785 60 96 C57.48165894 96.24050903 57.48165894 96.24050903 54.26513672 96.22705078 C53.04721436 96.22680908 51.82929199 96.22656738 50.57446289 96.22631836 C49.28918701 96.21608643 48.00391113 96.20585449 46.6796875 96.1953125 C44.91347046 96.19229126 44.91347046 96.19229126 43.11157227 96.18920898 C38.69934207 96.1787192 34.28716725 96.15079681 29.875 96.125 C20.01625 96.08375 10.1575 96.0425 0 96 C0 64.32 0 32.64 0 0 Z " fill="#B3E6FD" transform="translate(111,145)"/>
<path d="M0 0 C14.5096875 -0.0928125 14.5096875 -0.0928125 29.3125 -0.1875 C32.36540283 -0.21481201 35.41830566 -0.24212402 38.5637207 -0.27026367 C40.97607019 -0.27902323 43.38842409 -0.28666841 45.80078125 -0.29296875 C47.68863342 -0.3159906 47.68863342 -0.3159906 49.61462402 -0.33947754 C50.8121228 -0.33984009 52.00962158 -0.34020264 53.2434082 -0.34057617 C54.28487503 -0.34723801 55.32634186 -0.35389984 56.39936829 -0.36076355 C59.45569432 0.0632146 60.11738957 0.63121053 62 3 C62.29109887 5.92273947 62.39936272 8.63155053 62.37231445 11.5546875 C62.37596512 12.42812805 62.37961578 13.3015686 62.38337708 14.20147705 C62.39149267 17.09284826 62.37786408 19.98366082 62.36328125 22.875 C62.36276276 24.88134765 62.36328002 26.88769582 62.36479187 28.89404297 C62.3647021 33.100663 62.35426313 37.30709156 62.33618164 41.51367188 C62.31349438 46.91100096 62.3129499 52.30805017 62.31969929 57.70541382 C62.32303771 61.84890234 62.31641155 65.99232683 62.30657005 70.13580322 C62.30271559 72.12615626 62.30157086 74.11651642 62.3031559 76.10687256 C62.30352596 78.88649106 62.2909228 81.66574818 62.2746582 84.4453125 C62.27713562 85.27138 62.27961304 86.09744751 62.28216553 86.94854736 C62.24594444 90.81902967 62.19696262 92.70455606 60 96 C57.48165894 96.36076355 57.48165894 96.36076355 54.26513672 96.34057617 C53.04721436 96.34021362 51.82929199 96.33985107 50.57446289 96.33947754 C49.28918701 96.32412964 48.00391113 96.30878174 46.6796875 96.29296875 C45.50220947 96.28994751 44.32473145 96.28692627 43.11157227 96.28381348 C38.69929277 96.26807862 34.28713788 96.22619495 29.875 96.1875 C15.086875 96.0946875 15.086875 96.0946875 0 96 C0 64.32 0 32.64 0 0 Z " fill="#B3E6FD" transform="translate(281,145)"/>
<path d="M0 0 C1.19749878 0.00036255 2.39499756 0.0007251 3.62878418 0.00109863 C4.88735229 0.01644653 6.14592041 0.03179443 7.44262695 0.04760742 C9.17784607 0.05213928 9.17784607 0.05213928 10.94812012 0.0567627 C15.2758067 0.07247709 19.60336627 0.11436093 23.9309082 0.15307617 C33.6040332 0.21495117 43.2771582 0.27682617 53.2434082 0.34057617 C53.2434082 32.02057617 53.2434082 63.70057617 53.2434082 96.34057617 C43.3846582 96.40245117 33.5259082 96.46432617 23.3684082 96.52807617 C20.25419434 96.55538818 17.13998047 96.5827002 13.93139648 96.61083984 C11.47550851 96.61959791 9.01961621 96.62724345 6.5637207 96.63354492 C5.27844482 96.64889282 3.99316895 96.66424072 2.66894531 96.68005371 C0.84206177 96.68059753 0.84206177 96.68059753 -1.02172852 96.68115234 C-2.08318085 96.68781418 -3.14463318 96.69447601 -4.23825073 96.70133972 C-5.06930328 96.58228775 -5.90035583 96.46323578 -6.7565918 96.34057617 C-9.33461515 92.47354114 -9.0446987 89.27020871 -9.03125 84.78588867 C-9.03636093 83.91244812 -9.04147186 83.03900757 -9.04673767 82.13909912 C-9.06065404 79.24785539 -9.05967555 76.35684944 -9.05737305 73.46557617 C-9.06125849 71.45922761 -9.06559284 69.45287987 -9.07035828 67.4465332 C-9.07782462 63.23996311 -9.07752593 59.03347695 -9.07226562 54.8269043 C-9.06646658 49.42952387 -9.08341054 44.0324861 -9.1066103 38.63516235 C-9.12132243 34.4916787 -9.12222285 30.34827809 -9.11910057 26.20477295 C-9.11961493 24.21440959 -9.12487397 22.22404172 -9.13491249 20.23370361 C-9.14721252 17.45399514 -9.14052438 14.67496089 -9.12890625 11.89526367 C-9.14037186 10.65616241 -9.14037186 10.65616241 -9.15206909 9.39202881 C-9.10000481 3.77267467 -9.10000481 3.77267467 -7.39574242 1.62829113 C-4.96494742 -0.28133879 -3.05867265 -0.01956507 0 0 Z " fill="#B3E6FD" transform="translate(42.756591796875,144.659423828125)"/>
<path d="M0 0 C1.17719604 0.00036255 2.35439209 0.0007251 3.56726074 0.00109863 C5.42272522 0.02412048 5.42272522 0.02412048 7.31567383 0.04760742 C9.02140564 0.05213928 9.02140564 0.05213928 10.76159668 0.0567627 C15.01539161 0.07247607 19.26905732 0.11435993 23.52270508 0.15307617 C33.03083008 0.21495117 42.53895508 0.27682617 52.33520508 0.34057617 C52.33520508 32.02057617 52.33520508 63.70057617 52.33520508 96.34057617 C42.64145508 96.38182617 32.94770508 96.42307617 22.96020508 96.46557617 C19.89819824 96.48378418 16.83619141 96.50199219 13.68139648 96.52075195 C11.26652197 96.5265907 8.8516455 96.53168772 6.43676758 96.53588867 C4.54124146 96.55123657 4.54124146 96.55123657 2.60742188 96.56689453 C1.40980225 96.56713623 0.21218262 96.56737793 -1.02172852 96.56762695 C-2.06541595 96.57206818 -3.10910339 96.5765094 -4.18441772 96.58108521 C-6.66479492 96.34057617 -6.66479492 96.34057617 -8.66479492 94.34057617 C-8.8687941 91.46480272 -8.9479492 88.68493593 -8.93945312 85.80761719 C-8.94456406 84.92456909 -8.94967499 84.041521 -8.9549408 83.13171387 C-8.96888041 80.20256844 -8.96787674 77.27365715 -8.96557617 74.34448242 C-8.96946074 72.31428438 -8.97379491 70.28408715 -8.9785614 68.25389099 C-8.98603305 63.99426644 -8.98572553 59.73472476 -8.98046875 55.47509766 C-8.97467333 50.00930882 -8.99160237 44.54385876 -9.01481342 39.07812595 C-9.02952666 34.8840282 -9.03042575 30.69001247 -9.0273037 26.49589348 C-9.02781814 24.48041043 -9.0330788 22.46492293 -9.04311562 20.4494648 C-9.05541585 17.63372752 -9.04872699 14.81865586 -9.03710938 12.00292969 C-9.04475311 11.1659404 -9.05239685 10.32895111 -9.06027222 9.46659851 C-9.00819465 3.77260953 -9.00819465 3.77260953 -7.3015728 1.62549782 C-4.89173622 -0.266299 -3.03293672 -0.01973712 0 0 Z " fill="#B4E6FD" transform="translate(212.664794921875,144.659423828125)"/>
<path d="M0 0 C37.62 0 75.24 0 114 0 C115.98 9.24 117.96 18.48 120 28 C120.98742187 32.41117188 121.97484375 36.82234375 122.9921875 41.3671875 C129.4867662 71.31824408 132.60369474 99.37055197 131 130 C118.44284167 130.17910751 106.16981412 129.92325307 93.6875 128.5 C92.33799997 128.35445132 90.98838977 128.20992056 89.63867188 128.06640625 C86.42456376 127.72080323 83.2119054 127.36540891 80 127 C80.99 126.67 81.98 126.34 83 126 C83.03201927 115.27808672 83.02446154 104.55691199 82.97153378 93.83506393 C82.94806838 88.85191236 82.93633632 83.86941547 82.95532227 78.88623047 C83.04101717 53.77925545 81.45448679 30.27628584 75.62770081 5.8057251 C75 3 75 3 75 1 C50.25 1 25.5 1 0 1 C0 0.67 0 0.34 0 0 Z " fill="#99D7EC" transform="translate(381,145)"/>
<path d="M0 0 C0 7.92 0 15.84 0 24 C3.3 24 6.6 24 10 24 C15.20406773 25.88553179 19.13083622 28.00386328 22.15234375 32.74609375 C24.21462695 38.22967626 24.07220146 44.70925403 22.265625 50.25390625 C19.80950359 54.91449728 16.26706922 57.7405171 11.75 60.25 C9 61 9 61 0 61 C0 68.92 0 76.84 0 85 C-10.2018476 83.72476905 -16.21558375 81.62769576 -24 75 C-24.62132812 74.4740625 -25.24265625 73.948125 -25.8828125 73.40625 C-32.76873598 67.08670118 -37.48424392 57.90775148 -38.30078125 48.5546875 C-38.34698056 34.04810356 -35.9458328 22.63869763 -25.89453125 11.7109375 C-18.53050097 4.75095136 -10.22656974 0 0 0 Z " fill="#35495D" transform="translate(415,313)"/>
<path d="M0 0 C0 7.92 0 15.84 0 24 C3.3 24 6.6 24 10 24 C15.20780148 25.8868846 19.12217666 28.00657302 22.15625 32.7421875 C24.39242492 38.72602595 23.7962709 45.52271277 21.875 51.5 C18.50556178 55.99258429 14.50787828 59.59100788 9 61 C6.03 61 3.06 61 0 61 C0 68.92 0 76.84 0 85 C-12.68100763 83.41487405 -21.94713721 78.22245246 -30.20703125 68.51171875 C-37.62449097 58.12081113 -38.94712217 47.67417646 -37.7265625 35.20703125 C-35.78215591 23.66899592 -29.6183929 13.92619017 -20.25 6.953125 C-13.38300997 2.43733264 -8.37672188 0 0 0 Z " fill="#35495D" transform="translate(87,313)"/>
<path d="M0 0 C13.47381936 0 22.48304511 1.639326 33 10 C33.61488281 10.47824219 34.22976562 10.95648438 34.86328125 11.44921875 C40.9826221 16.8358669 47.41324256 27.61526971 48.17700195 35.92602539 C48.71126986 54.85954355 48.71126986 54.85954355 44 63 C43.63777344 63.68964844 43.27554688 64.37929688 42.90234375 65.08984375 C37.34018493 74.91318187 29.19917161 81.17679545 18.8125 85.25 C12.93947064 86.40535004 6.98453929 86.89571178 1 87 C0 86 0 86 -0.11352539 83.68334961 C-0.10828857 82.68311768 -0.10305176 81.68288574 -0.09765625 80.65234375 C-0.09443359 79.57275391 -0.09121094 78.49316406 -0.08789062 77.38085938 C-0.07951172 76.24455078 -0.07113281 75.10824219 -0.0625 73.9375 C-0.05798828 72.79732422 -0.05347656 71.65714844 -0.04882812 70.48242188 C-0.03699747 67.65489649 -0.0205141 64.8274736 0 62 C0.85972412 61.88769043 1.71944824 61.77538086 2.60522461 61.65966797 C9.99696017 60.6568923 14.77949862 59.66470846 19.8125 53.9375 C23.12202264 48.53775254 22.51859407 42.10287517 22 36 C20.24118803 31.82282158 18.20995958 29.89221361 14.375 27.6875 C9.21489072 25.47498666 9.21489072 25.47498666 0 25 C0 16.75 0 8.5 0 0 Z " fill="#2A3B4D" transform="translate(87,312)"/>
<path d="M0 0 C15.32878076 0 25.40289897 2.88845364 36.6875 13.1875 C45.52386444 22.45540782 48.4436512 33.65079726 48.43603516 46.07763672 C48.16271269 57.53615532 43.12568505 66.91181915 35.0859375 74.90234375 C24.80817424 84.28725113 14.76870191 86.76006284 1 87 C0 86 0 86 -0.11352539 83.68334961 C-0.10828857 82.68311768 -0.10305176 81.68288574 -0.09765625 80.65234375 C-0.09443359 79.57275391 -0.09121094 78.49316406 -0.08789062 77.38085938 C-0.07951172 76.24455078 -0.07113281 75.10824219 -0.0625 73.9375 C-0.05798828 72.79732422 -0.05347656 71.65714844 -0.04882812 70.48242188 C-0.03699747 67.65489649 -0.0205141 64.8274736 0 62 C0.59965576 61.94811523 1.19931152 61.89623047 1.81713867 61.84277344 C9.01791288 61.14637079 14.32324008 59.81402966 19.4375 54.4375 C23.04890407 48.80370964 22.54987795 42.47102743 22 36 C20.24118803 31.82282158 18.20995958 29.89221361 14.375 27.6875 C9.21489072 25.47498666 9.21489072 25.47498666 0 25 C0 16.75 0 8.5 0 0 Z " fill="#2A3B4D" transform="translate(415,312)"/>
<path d="M0 0 C4.35403865 -0.08755672 8.70784877 -0.14057969 13.0625 -0.1875 C14.29162109 -0.21263672 15.52074219 -0.23777344 16.78710938 -0.26367188 C24.93873224 -0.32958796 30.29583855 -0.03067755 36.75 5.25 C43.22794766 13.16749159 43.21427262 21.88087818 45 32 C32.13 32 19.26 32 6 32 C2.55248619 18.20994475 2.55248619 18.20994475 1.3125 12.0625 C1.06113281 10.83660156 0.80976563 9.61070313 0.55078125 8.34765625 C0.07607925 5.46241074 -0.04368909 2.90733837 0 0 Z " fill="#0A7693" transform="translate(450,113)"/>
<path d="M0 0 C4.02868351 2.40394695 6.94962668 4.98270552 8.625 9.4375 C9.45078085 15.23258157 9.73179263 21.19771522 6.9375 26.5 C3.49393621 30.87425671 0.04470499 33.92502419 -5.375 35.4375 C-11.70638649 36.06025933 -16.1205553 35.10887482 -21.375 31.4375 C-26.21210846 26.8518254 -27.55143599 22.75538637 -27.75 16.1875 C-27.69862665 11.05587291 -27.37075145 7.67978297 -23.91015625 3.8046875 C-16.9480574 -2.39565498 -8.70970536 -3.80329289 0 0 Z " fill="#C7DAE8" transform="translate(429.375,338.5625)"/>
<path d="M0 0 C4.02447364 2.40143489 6.96000945 4.98210862 8.625 9.4375 C9.48504791 16.06979254 9.78674012 22.88851317 5.625 28.4375 C0.86948508 32.9862534 -2.65919145 35.17037129 -9.1875 35.8125 C-14.56150839 35.65026578 -19.05444756 33.63742966 -22.953125 29.94140625 C-27.68638662 24.48727433 -27.78454019 19.637681 -27.71484375 12.67578125 C-27.22932754 8.04942566 -25.81468483 5.50083254 -22.375 2.4375 C-15.74001113 -2.73779132 -7.77305753 -3.3942841 0 0 Z " fill="#C7DAE8" transform="translate(101.375,338.5625)"/>
<path d="M0 0 C1.27520508 -0.01643555 1.27520508 -0.01643555 2.57617188 -0.03320312 C6.47713765 0.01269059 8.74341518 0.0800264 12 2.34375 C14.37779854 6.01383036 13.91718814 8.24530676 13.4375 12.5625 C11.62586733 15.23681489 10.55988923 15.52170359 7.4375 16.5625 C4.62892028 16.76270426 1.87339663 16.8852705 -0.9375 16.9375 C-2.07058594 16.99357422 -2.07058594 16.99357422 -3.2265625 17.05078125 C-7.48432437 17.11777401 -9.08169587 16.93687613 -12.5625 14.2265625 C-14.5625 11.5625 -14.5625 11.5625 -15.1875 8.5625 C-13.4452521 0.19971007 -7.20739904 -0.20310264 0 0 Z " fill="#AFE3FB" transform="translate(384.5625,278.4375)"/>
</svg>
