<?xml version="1.0" encoding="UTF-8"?>
<svg version="1.1" xmlns="http://www.w3.org/2000/svg" width="512" height="512">
<path d="M0 0 C1.6823375 -0.00782324 1.6823375 -0.00782324 3.39866161 -0.01580453 C4.62579026 -0.01134309 5.85291891 -0.00688164 7.11723328 -0.002285 C8.42471433 -0.00540498 9.73219538 -0.00852497 11.07929707 -0.01173949 C14.70688576 -0.02009398 18.33436932 -0.01595926 21.96195841 -0.00976706 C25.87475709 -0.00524625 29.78753756 -0.01222448 33.70033264 -0.0177269 C41.3648838 -0.02662651 49.02939581 -0.02469636 56.69394851 -0.01890162 C62.92233715 -0.01438737 69.15071481 -0.0137712 75.37910461 -0.01594925 C76.70809641 -0.01640895 76.70809641 -0.01640895 78.06393653 -0.01687793 C79.86374021 -0.01751738 81.66354388 -0.0181658 83.46334755 -0.01882312 C100.34554191 -0.02452807 117.22771456 -0.01796592 134.10990536 -0.00722238 C148.5999077 0.00171328 163.089878 0.00016128 177.57987976 -0.00905991 C194.40110267 -0.01975961 211.22230654 -0.02397874 228.04353237 -0.01783538 C229.83676592 -0.01719827 231.62999948 -0.01656953 233.42323303 -0.01594925 C234.30556982 -0.0156407 235.18790661 -0.01533215 236.09698087 -0.01501425 C242.31887507 -0.01328641 248.54075721 -0.01620433 254.76264954 -0.02090836 C262.34363545 -0.02651385 269.92457995 -0.02500772 277.50556111 -0.01434687 C281.37449756 -0.00908569 285.24336491 -0.00704099 289.11230087 -0.01364517 C293.30329571 -0.02069098 297.4941156 -0.01228577 301.68510437 -0.002285 C303.52579734 -0.00897717 303.52579734 -0.00897717 305.40367603 -0.01580453 C306.52523437 -0.01058903 307.6467927 -0.00537354 308.80233765 0 C310.25355027 0.00048706 310.25355027 0.00048706 311.73408031 0.00098395 C316.05736978 0.40736021 318.66173678 1.47117068 321.65116882 4.62668228 C325.85361317 10.93034879 324.83797098 18.95864621 324.40116882 26.25168228 C323.61553876 29.85056118 322.37807737 32.33070963 319.65166855 34.90100956 C316.79736851 36.61406251 314.96253544 36.62143327 311.64317322 36.61244583 C310.46810715 36.61656982 309.29304108 36.62069382 308.08236694 36.62494278 C306.15430962 36.60876404 306.15430962 36.60876404 304.18730164 36.59225845 C302.8172711 36.59141205 301.44723921 36.59188759 300.07720947 36.59358597 C296.36050344 36.59444682 292.64408777 36.57680669 288.92744923 36.5558641 C285.04238163 36.53711222 281.15730741 36.53534803 277.27220154 36.53178787 C269.91637413 36.52246301 262.56068046 36.49784331 255.20491195 36.4677394 C246.83014855 36.43420908 238.45537878 36.41771283 230.08056498 36.4026531 C212.85400896 36.37129408 195.62763715 36.31627657 178.40116882 36.25168228 C178.40116882 45.16168228 178.40116882 54.07168228 178.40116882 63.25168228 C229.22116882 63.25168228 280.04116882 63.25168228 332.40116882 63.25168228 C333.72116882 57.97168228 335.04116882 52.69168228 336.40116882 47.25168228 C340.40116882 42.25168228 340.40116882 42.25168228 343.40116882 41.25168228 C345.91690425 41.13126852 348.40414166 41.06363345 350.92070007 41.04855728 C351.65689072 41.04285721 352.39308136 41.03715714 353.15158081 41.03128433 C354.70912748 41.02184472 356.26669403 41.01530447 357.82426453 41.01144791 C360.19465968 41.00175997 362.56418085 40.97073553 364.93437195 40.93918228 C366.45064286 40.93264987 367.96691996 40.92740033 369.48320007 40.92355728 C370.18652969 40.91121048 370.88985931 40.89886368 371.61450195 40.88614273 C376.2707285 40.90698143 379.49702834 41.69396084 383.40116882 44.25168228 C384.54130554 46.01340103 384.54130554 46.01340103 385.08085632 47.93918228 C385.39023132 48.98719009 385.39023132 48.98719009 385.70585632 50.05636978 C385.89405945 50.78082291 386.08226257 51.50527603 386.27616882 52.25168228 C386.48757507 52.97613541 386.69898132 53.70058853 386.91679382 54.44699478 C387.77266681 57.4592231 388.40116882 60.10818795 388.40116882 63.25168228 C389.07583191 63.23597183 389.750495 63.22026138 390.44560242 63.20407486 C393.55570306 63.14102149 396.66566854 63.10247097 399.77616882 63.06418228 C400.83706726 63.03904556 401.8979657 63.01390884 402.99101257 62.98801041 C412.3990501 62.90143337 420.91104278 64.15506806 428.40116882 70.25168228 C437.30370182 79.36618035 437.9770995 88.89122891 437.85527039 101.14450455 C437.85414052 102.74187059 437.85477848 104.33923871 437.85704041 105.93660355 C437.85818307 110.25016705 437.83474672 114.56328117 437.80674458 118.87674069 C437.78165595 123.39305008 437.77938306 127.90937097 437.77464294 132.42573929 C437.76223502 140.9678697 437.72944311 149.50979413 437.68924499 158.05183405 C437.64445914 167.78096999 437.62252313 177.51011602 437.60246325 187.23932946 C437.56070845 207.24356181 437.49039904 227.24760904 437.40116882 247.25168228 C438.53788025 247.21905289 438.53788025 247.21905289 439.69755554 247.18576431 C440.6902948 247.16884537 441.68303406 247.15192642 442.70585632 247.13449478 C444.18288025 247.10186539 444.18288025 247.10186539 445.68974304 247.06857681 C449.32928081 247.31435867 451.01565997 248.54810558 453.40116882 251.25168228 C455.56696909 255.58328281 454.71998488 261.30642372 454.77616882 266.06418228 C454.81355164 267.25334244 454.85093445 268.44250259 454.88945007 269.66769791 C454.98845896 279.46407767 454.98845896 279.46407767 452.06523132 282.51340103 C446.07263895 286.42352362 439.44689436 285.47397167 432.52616882 285.50168228 C430.60611023 285.53261978 430.60611023 285.53261978 428.64726257 285.56418228 C427.41362976 285.56933853 426.17999695 285.57449478 424.90898132 285.57980728 C423.78121277 285.58915298 422.65344421 285.59849869 421.49150085 285.60812759 C417.12592606 285.10459313 414.51201826 283.47744717 411.58866882 280.25168228 C410.40116882 277.25168228 410.40116882 277.25168228 410.40116882 266.25168228 C400.17116882 266.25168228 389.94116882 266.25168228 379.40116882 266.25168228 C379.40116882 268.89168228 379.40116882 271.53168228 379.40116882 274.25168228 C377.15771555 289.28675512 369.71597362 301.94080433 357.76835632 311.31808853 C344.50021262 320.27311846 329.27909598 324.56435137 313.38554382 321.56808853 C297.57861866 318.14930707 284.9955451 310.56650875 275.96757507 296.88840103 C270.01896078 286.87514754 267.40116882 277.87836464 267.40116882 266.25168228 C221.86116882 266.25168228 176.32116882 266.25168228 129.40116882 266.25168228 C129.07116882 270.54168228 128.74116882 274.83168228 128.40116882 279.25168228 C126.29485865 287.4083894 122.50355871 294.58840705 117.40116882 301.25168228 C116.95128601 301.86527603 116.5014032 302.47886978 116.03788757 303.11105728 C107.88104579 313.49666992 94.89934335 319.82768604 82.02226257 321.97043228 C65.58559228 323.73412865 50.58219733 319.96072139 37.28007507 309.88840103 C26.4173862 300.41118401 19.44465307 288.75382855 17.40116882 274.25168228 C17.40116882 271.61168228 17.40116882 268.97168228 17.40116882 266.25168228 C5.85116882 266.25168228 -5.69883118 266.25168228 -17.59883118 266.25168228 C-17.59883118 269.22168228 -17.59883118 272.19168228 -17.59883118 275.25168228 C-18.77299028 279.29600808 -19.51783035 281.49815076 -22.99726868 283.92355728 C-28.07029542 285.79430467 -32.7362148 285.68769814 -38.09883118 285.62668228 C-39.62830383 285.64408463 -39.62830383 285.64408463 -41.18867493 285.66183853 C-46.69210321 285.64036872 -50.92001267 285.48735872 -55.59883118 282.25168228 C-58.83129362 277.40298861 -57.96766951 272.07622401 -57.97383118 266.37668228 C-58.01056946 264.59970963 -58.01056946 264.59970963 -58.04804993 262.78683853 C-58.05191711 261.64344009 -58.0557843 260.50004166 -58.05976868 259.32199478 C-58.06798645 258.27801529 -58.07620422 257.2340358 -58.08467102 256.15842056 C-57.4789034 252.53416462 -56.11800793 250.87531127 -53.59883118 248.25168228 C-50.95424739 246.92939039 -48.92121817 247.15491034 -45.97383118 247.18918228 C-44.46949524 247.20271744 -44.46949524 247.20271744 -42.93476868 247.21652603 C-41.77847961 247.23392838 -41.77847961 247.23392838 -40.59883118 247.25168228 C-40.60251835 246.42507379 -40.60620552 245.59846529 -40.61000443 244.74680805 C-40.69841859 224.61506548 -40.76457152 204.48335646 -40.80607986 184.35146046 C-40.82668757 174.61573747 -40.85477388 164.88014424 -40.90058899 155.14450455 C-40.94051165 146.65694129 -40.96627702 138.16947202 -40.97518516 129.68181747 C-40.98039072 125.18942401 -40.99258821 120.69729942 -41.0217514 116.20499229 C-41.04900639 111.97212365 -41.05725592 107.73963332 -41.0512619 103.50668526 C-41.05235765 101.95755199 -41.06025146 100.40840539 -41.07565308 98.8593483 C-41.18587731 87.19605991 -39.69500139 78.72284346 -31.59492493 69.97824478 C-24.92104699 64.20553627 -16.86339785 63.11890629 -8.32929993 63.15402603 C-7.64829727 63.15544098 -6.96729462 63.15685593 -6.26565552 63.15831375 C-4.1058347 63.1638793 -1.94612028 63.17642525 0.21366882 63.18918228 C1.68437044 63.19420174 3.1550737 63.19876387 4.6257782 63.20285416 C8.21764833 63.21298351 11.80929048 63.23256525 15.40116882 63.25168228 C15.40116882 54.34168228 15.40116882 45.43168228 15.40116882 36.25168228 C7.7712043 36.52755109 7.7712043 36.52755109 0.14482117 36.88229752 C-7.26325976 37.01727263 -7.26325976 37.01727263 -10.68916321 35.05344009 C-14.03851972 31.72497353 -14.96299268 28.58053904 -15.32539368 23.93136978 C-15.32276076 21.99617959 -15.28821602 20.0608029 -15.22383118 18.12668228 C-15.23349915 16.66295181 -15.23349915 16.66295181 -15.24336243 15.16965103 C-15.17856866 10.85202982 -15.02116155 7.99888218 -12.87226868 4.19699478 C-8.8693368 0.77180565 -5.18715557 0.00174092 0 0 Z M44.40116882 36.25168228 C44.40116882 45.16168228 44.40116882 54.07168228 44.40116882 63.25168228 C56.94116882 63.25168228 69.48116882 63.25168228 82.40116882 63.25168228 C82.40116882 54.34168228 82.40116882 45.43168228 82.40116882 36.25168228 C69.86116882 36.25168228 57.32116882 36.25168228 44.40116882 36.25168228 Z M111.40116882 36.25168228 C111.40116882 45.16168228 111.40116882 54.07168228 111.40116882 63.25168228 C123.94116882 63.25168228 136.48116882 63.25168228 149.40116882 63.25168228 C149.40116882 54.34168228 149.40116882 45.43168228 149.40116882 36.25168228 C136.86116882 36.25168228 124.32116882 36.25168228 111.40116882 36.25168228 Z " fill="#FE5959" transform="translate(57.59883117675781,94.74831771850586)"/>
<path d="M0 0 C65.34 0 130.68 0 198 0 C198 17.82 198 35.64 198 54 C201.63 54 205.26 54 209 54 C212.00197464 55.80118478 213.45166366 56.90332732 215 60 C215.32451599 64.26430448 215.32451551 68.53738197 215.375 72.8125 C215.43107422 74.59624023 215.43107422 74.59624023 215.48828125 76.41601562 C215.58729014 86.21239539 215.58729014 86.21239539 212.6640625 89.26171875 C206.67147012 93.17184134 200.04572554 92.22228939 193.125 92.25 C191.84496094 92.270625 190.56492187 92.29125 189.24609375 92.3125 C188.01246094 92.31765625 186.77882813 92.3228125 185.5078125 92.328125 C184.38004395 92.3374707 183.25227539 92.34681641 182.09033203 92.35644531 C177.72475723 91.85291085 175.11084943 90.22576489 172.1875 87 C171 84 171 84 171 73 C160.77 73 150.54 73 140 73 C140 75.64 140 78.28 140 81 C137.75654672 96.03507284 130.3148048 108.68912205 118.3671875 118.06640625 C105.0990438 127.02143618 89.87792716 131.31266909 73.984375 128.31640625 C58.17744984 124.89762479 45.59437628 117.31482647 36.56640625 103.63671875 C30.61779196 93.62346526 28 84.62668235 28 73 C18.76 73 9.52 73 0 73 C0 48.91 0 24.82 0 0 Z " fill="#FD5A59" transform="translate(297,288)"/>
<path d="M0 0 C65.34 0 130.68 0 198 0 C198 24.09 198 48.18 198 73 C188.76 73 179.52 73 170 73 C169.67 77.29 169.34 81.58 169 86 C166.89368983 94.15670712 163.10238989 101.33672477 158 108 C157.55011719 108.61359375 157.10023438 109.2271875 156.63671875 109.859375 C148.47987696 120.24498764 135.49817453 126.57600376 122.62109375 128.71875 C106.18442346 130.48244636 91.18102851 126.70903911 77.87890625 116.63671875 C67.01621738 107.15950173 60.04348425 95.50214627 58 81 C58 78.36 58 75.72 58 73 C46.45 73 34.9 73 23 73 C23 75.97 23 78.94 23 82 C21.8258409 86.04432579 21.08100083 88.24646848 17.6015625 90.671875 C12.52853576 92.54262239 7.86261638 92.43601586 2.5 92.375 C0.97052734 92.39240234 0.97052734 92.39240234 -0.58984375 92.41015625 C-6.09327203 92.38868644 -10.32118149 92.23567643 -15 89 C-18.23246245 84.15130633 -17.36883833 78.82454173 -17.375 73.125 C-17.39949219 71.94035156 -17.42398437 70.75570312 -17.44921875 69.53515625 C-17.45308594 68.39175781 -17.45695312 67.24835938 -17.4609375 66.0703125 C-17.46915527 65.02633301 -17.47737305 63.98235352 -17.48583984 62.90673828 C-16.88007222 59.28248234 -15.51917675 57.62362899 -13 55 C-11 54 -11 54 0 54 C0 36.18 0 18.36 0 0 Z " fill="#FD5A59" transform="translate(17,288)"/>
<path d="M0 0 C27.72 0 55.44 0 84 0 C84 4.29 84 8.58 84 13 C149.01 13 214.02 13 281 13 C281 20.26 281 27.52 281 35 C215.66 35 150.32 35 83 35 C83 59.09 83 83.18 83 108 C55.94 108 28.88 108 1 108 C1 83.91 1 59.82 1 35 C-64.34 35 -129.68 35 -197 35 C-197 27.74 -197 20.48 -197 13 C-131.99 13 -66.98 13 0 13 C0 8.71 0 4.42 0 0 Z " fill="#A8A7AB" transform="translate(214,253)"/>
<path d="M0 0 C1.6823375 -0.00782324 1.6823375 -0.00782324 3.39866161 -0.01580453 C4.62579026 -0.01134309 5.85291891 -0.00688164 7.11723328 -0.002285 C8.42471433 -0.00540498 9.73219538 -0.00852497 11.07929707 -0.01173949 C14.70688576 -0.02009398 18.33436932 -0.01595926 21.96195841 -0.00976706 C25.87475709 -0.00524625 29.78753756 -0.01222448 33.70033264 -0.0177269 C41.3648838 -0.02662651 49.02939581 -0.02469636 56.69394851 -0.01890162 C62.92233715 -0.01438737 69.15071481 -0.0137712 75.37910461 -0.01594925 C76.70809641 -0.01640895 76.70809641 -0.01640895 78.06393653 -0.01687793 C79.86374021 -0.01751738 81.66354388 -0.0181658 83.46334755 -0.01882312 C100.34554191 -0.02452807 117.22771456 -0.01796592 134.10990536 -0.00722238 C148.5999077 0.00171328 163.089878 0.00016128 177.57987976 -0.00905991 C194.40110267 -0.01975961 211.22230654 -0.02397874 228.04353237 -0.01783538 C229.83676592 -0.01719827 231.62999948 -0.01656953 233.42323303 -0.01594925 C234.30556982 -0.0156407 235.18790661 -0.01533215 236.09698087 -0.01501425 C242.31887507 -0.01328641 248.54075721 -0.01620433 254.76264954 -0.02090836 C262.34363545 -0.02651385 269.92457995 -0.02500772 277.50556111 -0.01434687 C281.37449756 -0.00908569 285.24336491 -0.00704099 289.11230087 -0.01364517 C293.30329571 -0.02069098 297.4941156 -0.01228577 301.68510437 -0.002285 C303.52579734 -0.00897717 303.52579734 -0.00897717 305.40367603 -0.01580453 C306.52523437 -0.01058903 307.6467927 -0.00537354 308.80233765 0 C310.25355027 0.00048706 310.25355027 0.00048706 311.73408031 0.00098395 C316.05736978 0.40736021 318.66173678 1.47117068 321.65116882 4.62668228 C325.85361317 10.93034879 324.83797098 18.95864621 324.40116882 26.25168228 C323.61553876 29.85056118 322.37807737 32.33070963 319.65166855 34.90100956 C316.79736851 36.61406251 314.96253544 36.62143327 311.64317322 36.61244583 C310.46810715 36.61656982 309.29304108 36.62069382 308.08236694 36.62494278 C306.15430962 36.60876404 306.15430962 36.60876404 304.18730164 36.59225845 C302.8172711 36.59141205 301.44723921 36.59188759 300.07720947 36.59358597 C296.36050344 36.59444682 292.64408777 36.57680669 288.92744923 36.5558641 C285.04238163 36.53711222 281.15730741 36.53534803 277.27220154 36.53178787 C269.91637413 36.52246301 262.56068046 36.49784331 255.20491195 36.4677394 C246.83014855 36.43420908 238.45537878 36.41771283 230.08056498 36.4026531 C212.85400896 36.37129408 195.62763715 36.31627657 178.40116882 36.25168228 C178.40116882 45.49168228 178.40116882 54.73168228 178.40116882 64.25168228 C173.80179382 64.27230728 169.20241882 64.29293228 164.46366882 64.31418228 C163.01097595 64.32328629 161.55828308 64.33239029 160.06156921 64.34177017 C158.92711365 64.34426773 157.79265808 64.34676529 156.62382507 64.34933853 C154.87210999 64.35719376 154.87210999 64.35719376 153.08500671 64.36520767 C150.40116882 64.25168228 150.40116882 64.25168228 149.40116882 63.25168228 C149.31358879 61.25203246 149.29420306 59.24932118 149.30351257 57.24777603 C149.30601013 56.15392593 149.30850769 55.06007584 149.31108093 53.93307877 C149.32018494 52.53259293 149.32928894 51.13210709 149.33866882 49.68918228 C149.35929382 45.25480728 149.37991882 40.82043228 149.40116882 36.25168228 C136.86116882 36.25168228 124.32116882 36.25168228 111.40116882 36.25168228 C111.40116882 45.49168228 111.40116882 54.73168228 111.40116882 64.25168228 C101.83116882 64.25168228 92.26116882 64.25168228 82.40116882 64.25168228 C82.40116882 55.01168228 82.40116882 45.77168228 82.40116882 36.25168228 C69.86116882 36.25168228 57.32116882 36.25168228 44.40116882 36.25168228 C44.44076284 45.09241091 44.44076284 45.09241091 44.49125671 53.93307877 C44.49375427 55.02692886 44.49625183 56.12077896 44.49882507 57.24777603 C44.50406189 58.37369156 44.50929871 59.49960709 44.51469421 60.65964127 C44.40116882 63.25168228 44.40116882 63.25168228 43.40116882 64.25168228 C41.32854806 64.3393534 39.25296588 64.35864101 37.17851257 64.34933853 C36.04405701 64.34684097 34.90960144 64.34434341 33.74076843 64.34177017 C31.56172913 64.32811417 31.56172913 64.32811417 29.33866882 64.31418228 C22.43960632 64.28324478 22.43960632 64.28324478 15.40116882 64.25168228 C15.40116882 55.01168228 15.40116882 45.77168228 15.40116882 36.25168228 C7.7712043 36.52755109 7.7712043 36.52755109 0.14482117 36.88229752 C-7.26325976 37.01727263 -7.26325976 37.01727263 -10.68916321 35.05344009 C-14.03851972 31.72497353 -14.96299268 28.58053904 -15.32539368 23.93136978 C-15.32276076 21.99617959 -15.28821602 20.0608029 -15.22383118 18.12668228 C-15.23027649 17.15086197 -15.2367218 16.17504166 -15.24336243 15.16965103 C-15.17856866 10.85202982 -15.02116155 7.99888218 -12.87226868 4.19699478 C-8.8693368 0.77180565 -5.18715557 0.00174092 0 0 Z " fill="#D0D2D2" transform="translate(57.59883117675781,94.74831771850586)"/>
<path d="M0 0 C11.94933272 8.77478247 18.38075098 20.14225294 23 34 C25.35725857 51.65441044 22.58112484 66.96506143 12.1171875 81.640625 C2.57338197 93.0004583 -11.22056689 100.41412938 -26 102 C-41.51990588 103.0987544 -55.62276466 99.10040974 -68.12109375 89.63671875 C-78.92609133 80.20983484 -86.07246701 68.46708827 -88 54 C-88.51928009 36.61141594 -85.47507026 22.58364217 -74 9 C-73.46761719 8.35546875 -72.93523437 7.7109375 -72.38671875 7.046875 C-52.77203913 -14.56334274 -23.48053942 -14.02839652 0 0 Z " fill="#333E48" transform="translate(163,315)"/>
<path d="M0 0 C11.35952456 8.75208921 19.41164253 20.73276533 21.55224609 35.08447266 C23.37184502 51.55612995 21.19300899 66.08393512 10.96875 79.64453125 C0.51962981 91.78541376 -13.58132407 99.59246188 -29.671875 100.9296875 C-46.26992264 101.33924971 -61.52693534 96.3782373 -73.7421875 84.8828125 C-84.29411843 73.67138589 -90.07949932 60.21802036 -89.83203125 44.875 C-89.23859667 28.38783914 -83.06853154 13.85988636 -70.8828125 2.46484375 C-50.06384623 -15.30171769 -22.1044923 -15.36531782 0 0 Z " fill="#333E48" transform="translate(414.8046875,316.30859375)"/>
<path d="M0 0 C1.05960938 -0.00386719 2.11921875 -0.00773438 3.2109375 -0.01171875 C4.86996094 0.00568359 4.86996094 0.00568359 6.5625 0.0234375 C8.22152344 0.00603516 8.22152344 0.00603516 9.9140625 -0.01171875 C10.97367188 -0.00785156 12.03328125 -0.00398437 13.125 0 C14.58099609 0.00507568 14.58099609 0.00507568 16.06640625 0.01025391 C18.5625 0.3984375 18.5625 0.3984375 20.40234375 1.42333984 C21.5625 3.3984375 21.5625 3.3984375 21.5625 11.3984375 C71.7225 11.3984375 121.8825 11.3984375 173.5625 11.3984375 C173.5625 8.4284375 173.5625 5.4584375 173.5625 2.3984375 C176.20949616 -0.24855866 177.46644409 0.14093983 181.15625 0.1328125 C182.26871094 0.13023437 183.38117188 0.12765625 184.52734375 0.125 C185.69394531 0.13273438 186.86054688 0.14046875 188.0625 0.1484375 C189.22910156 0.14070312 190.39570313 0.13296875 191.59765625 0.125 C192.71011719 0.12757813 193.82257813 0.13015625 194.96875 0.1328125 C195.99291016 0.13506836 197.01707031 0.13732422 198.07226562 0.13964844 C200.5625 0.3984375 200.5625 0.3984375 202.5625 2.3984375 C202.76215373 5.02783946 202.8423411 7.54963913 202.828125 10.1796875 C202.83003845 10.94897583 202.8319519 11.71826416 202.83392334 12.51086426 C202.83528508 14.1382683 202.83158939 15.7656832 202.82324219 17.39306641 C202.81254221 19.88859381 202.82313751 22.38340132 202.8359375 24.87890625 C202.8346159 26.45833493 202.8320535 28.03776316 202.828125 29.6171875 C202.83217346 30.3661731 202.83622192 31.11515869 202.84039307 31.88684082 C202.79242243 37.16851507 202.79242243 37.16851507 200.5625 39.3984375 C196.60201178 39.85499547 192.6087619 39.72245792 188.625 39.7109375 C186.95920898 39.73510742 186.95920898 39.73510742 185.25976562 39.75976562 C184.19564453 39.76041016 183.13152344 39.76105469 182.03515625 39.76171875 C180.56961304 39.76619019 180.56961304 39.76619019 179.07446289 39.77075195 C176.5625 39.3984375 176.5625 39.3984375 174.72045898 38.37573242 C173.5625 36.3984375 173.5625 36.3984375 173.5625 28.3984375 C123.4025 28.3984375 73.2425 28.3984375 21.5625 28.3984375 C21.5625 31.0384375 21.5625 33.6784375 21.5625 36.3984375 C20.40234375 38.37353516 20.40234375 38.37353516 18.5625 39.3984375 C16.06640625 39.78662109 16.06640625 39.78662109 13.125 39.796875 C12.06539062 39.80074219 11.00578125 39.80460937 9.9140625 39.80859375 C8.80804688 39.79699219 7.70203125 39.78539062 6.5625 39.7734375 C5.45648438 39.78503906 4.35046875 39.79664063 3.2109375 39.80859375 C2.15132812 39.80472656 1.09171875 39.80085938 0 39.796875 C-0.97066406 39.79349121 -1.94132812 39.79010742 -2.94140625 39.78662109 C-5.4375 39.3984375 -5.4375 39.3984375 -7.25244141 38.33642578 C-9.06851492 35.3665058 -8.86537072 32.37012504 -8.8359375 28.9921875 C-8.83880768 28.27107788 -8.84167786 27.54996826 -8.84463501 26.80700684 C-8.84667452 25.28392755 -8.84115247 23.760822 -8.82861328 22.23779297 C-8.81255643 19.90663072 -8.8284641 17.57720208 -8.84765625 15.24609375 C-8.8456738 13.76562117 -8.84183007 12.28514968 -8.8359375 10.8046875 C-8.84201019 10.1077478 -8.84808289 9.41080811 -8.8543396 8.69274902 C-8.81398778 5.91582204 -8.71970923 3.859949 -7.25244141 1.46044922 C-4.75212743 -0.00260779 -2.890212 0.01007544 0 0 Z " fill="#FEB51A" transform="translate(62.4375,189.6015625)"/>
<path d="M0 0 C0.64589584 -0.0049649 1.29179169 -0.00992981 1.95726013 -0.01504517 C4.0921231 -0.02963944 6.22691177 -0.03646404 8.36181641 -0.04199219 C9.84770713 -0.04774572 11.33359783 -0.05350343 12.81948853 -0.05926514 C15.93483831 -0.06976722 19.05016235 -0.07561512 22.16552734 -0.07910156 C26.15250539 -0.08458585 30.13914186 -0.10861551 34.1260128 -0.13707352 C37.19555651 -0.15572002 40.26501824 -0.16090655 43.3346138 -0.16243744 C44.80419406 -0.16545977 46.27377303 -0.17347419 47.74329758 -0.18662262 C49.80178394 -0.20372662 51.85943966 -0.20179294 53.91796875 -0.1953125 C55.08806488 -0.19895813 56.25816101 -0.20260376 57.4637146 -0.20635986 C61.90154767 0.31557497 64.4727485 2.0455024 67.58837891 5.16113281 C67.86253357 7.11433411 67.86253357 7.11433411 67.89477539 9.53149414 C67.91076279 10.43615921 67.92675018 11.34082428 67.94322205 12.27290344 C67.94858475 13.25308945 67.95394745 14.23327545 67.95947266 15.24316406 C67.96850113 16.24949387 67.9775296 17.25582367 67.98683167 18.29264832 C68.00135912 20.42529312 68.01022707 22.55798274 68.01391602 24.69067383 C68.02579452 27.95047508 68.07494156 31.20837304 68.12548828 34.46777344 C68.13495421 36.53872773 68.14218843 38.60969366 68.14697266 40.68066406 C68.16650497 41.65477737 68.18603729 42.62889069 68.2061615 43.63252258 C68.20008377 44.54664413 68.19400604 45.46076569 68.18774414 46.40258789 C68.19281479 47.20263748 68.19788544 48.00268707 68.20310974 48.82698059 C67.2561062 52.42278267 65.49585792 53.91263608 62.58837891 56.16113281 C59.32531738 56.79605103 59.32531738 56.79605103 55.58251953 56.80810547 C54.89731735 56.81686707 54.21211517 56.82562866 53.50614929 56.83465576 C51.25165608 56.85657942 48.9991404 56.84212503 46.74462891 56.82519531 C45.17191188 56.82856554 43.59919739 56.83341989 42.02648926 56.83969116 C38.734529 56.84705285 35.44324828 56.83638068 32.15136719 56.81298828 C27.93760337 56.78449972 23.72543181 56.80090764 19.51172638 56.8308506 C16.26536116 56.84894333 13.01937171 56.84315676 9.772995 56.83021164 C8.2196992 56.82688303 6.66636897 56.8309456 5.1131134 56.84260941 C2.93923986 56.85535225 0.76792202 56.8359001 -1.40576172 56.80810547 C-2.64088501 56.8041275 -3.8760083 56.80014954 -5.14855957 56.79605103 C-9.35399828 55.97776746 -10.83780737 54.53518361 -13.41162109 51.16113281 C-14.03981018 48.84043884 -14.03981018 48.84043884 -14.04272461 46.43432617 C-14.05525772 45.52666 -14.06779083 44.61899384 -14.08070374 43.68382263 C-14.06744553 42.71598343 -14.05418732 41.74814423 -14.04052734 40.75097656 C-14.0429393 39.74651993 -14.04535126 38.74206329 -14.0478363 37.70716858 C-14.04685861 35.58818607 -14.03348376 33.46917777 -14.00854492 31.3503418 C-13.97419964 28.1060525 -13.98789983 24.86448182 -14.00732422 21.62011719 C-14.00042669 19.55955872 -13.99075516 17.49900727 -13.97802734 15.43847656 C-13.98546715 13.98368141 -13.98546715 13.98368141 -13.99305725 12.49949646 C-13.87592528 5.80934293 -13.87592528 5.80934293 -11.5637207 2.58129883 C-7.7059872 0.03558859 -4.51445351 0.02637961 0 0 Z " fill="#333C46" transform="translate(400.41162109375,180.8388671875)"/>
<path d="M0 0 C65.01 0 130.02 0 197 0 C197 6.93 197 13.86 197 21 C131.99 21 66.98 21 0 21 C0 14.07 0 7.14 0 0 Z " fill="#D0D2D2" transform="translate(297,267)"/>
<path d="M0 0 C65.01 0 130.02 0 197 0 C197 6.93 197 13.86 197 21 C131.99 21 66.98 21 0 21 C0 14.07 0 7.14 0 0 Z " fill="#D0D2D2" transform="translate(18,267)"/>
<path d="M0 0 C0.89110474 -0.00287018 1.78220947 -0.00574036 2.70031738 -0.00869751 C4.57967771 -0.01073412 6.45905943 -0.00523248 8.33837891 0.00732422 C11.20914266 0.02338375 14.0784986 0.00746201 16.94921875 -0.01171875 C18.77864893 -0.00973625 20.60807824 -0.00589242 22.4375 0 C23.29283325 -0.00607269 24.1481665 -0.01214539 25.02941895 -0.0184021 C30.8591008 0.05013688 34.09880631 1.03039771 38.50634766 5.01416016 C40.40939118 8.75663359 40.14650906 12.40718684 40.1171875 16.546875 C40.12005768 17.43702301 40.12292786 18.32717102 40.12588501 19.24429321 C40.12792429 21.12543372 40.12240395 23.0065955 40.10986328 24.88769531 C40.09384543 27.75634654 40.10969683 30.62358077 40.12890625 33.4921875 C40.12692305 35.32291976 40.12307779 37.15365114 40.1171875 38.984375 C40.12629654 40.26433853 40.12629654 40.26433853 40.1355896 41.57015991 C40.07703108 46.5704585 39.54098834 50.09255551 36.71875 54.3984375 C33.59860752 56.47853249 32.86244535 56.65428237 29.31079102 56.68896484 C28.42299454 56.70172455 27.53519806 56.71448425 26.62049866 56.72763062 C25.66421066 56.72985626 24.70792267 56.73208191 23.72265625 56.734375 C22.73756577 56.7410318 21.75247528 56.7476886 20.73753357 56.75454712 C18.65373605 56.76467411 16.56990609 56.76936412 14.48608398 56.76904297 C11.29682041 56.77341615 8.10894053 56.80973571 4.91992188 56.84765625 C2.89583807 56.85352435 0.87174769 56.85749379 -1.15234375 56.859375 C-2.5837394 56.88093155 -2.5837394 56.88093155 -4.04405212 56.90292358 C-10.64056433 56.85736535 -10.64056433 56.85736535 -13.85180664 54.55712891 C-15.89176014 51.47646813 -16.4070385 48.98377367 -16.42651367 45.37353516 C-16.43289352 44.56904938 -16.43927338 43.7645636 -16.44584656 42.93569946 C-16.44695938 42.07004364 -16.4480722 41.20438782 -16.44921875 40.3125 C-16.45254715 39.41856537 -16.45587555 38.52463074 -16.45930481 37.60360718 C-16.46436739 35.71230585 -16.46671334 33.8209956 -16.46655273 31.9296875 C-16.46873633 29.04151617 -16.48689111 26.1537286 -16.50585938 23.265625 C-16.50879404 21.42708464 -16.51077835 19.58854246 -16.51171875 17.75 C-16.51890427 16.88839264 -16.52608978 16.02678528 -16.53349304 15.1390686 C-16.5025979 6.99721328 -16.5025979 6.99721328 -14.28125 3.3984375 C-9.97551459 -0.36548259 -5.42623648 -0.03852518 0 0 Z " fill="#353D46" transform="translate(322.28125,180.6015625)"/>
<path d="M0 0 C7.03418085 4.18080943 11.73871884 10.5405052 14.21484375 18.31640625 C15.79844933 27.86602779 13.61271505 35.37484781 8.21484375 43.31640625 C3.3876048 49.02863901 -3.30066746 52.72965071 -10.7109375 53.69921875 C-20.73612617 54.08137334 -27.7481104 51.01100639 -35.05859375 44.25390625 C-40.87828646 37.72321036 -42.19920667 30.25793836 -42.1328125 21.75 C-41.47342139 15.23758672 -38.56495795 10.48102994 -34.47265625 5.50390625 C-24.12310943 -2.92014349 -12.66660691 -5.8919225 0 0 Z " fill="#A2A7AC" transform="translate(144.78515625,335.68359375)"/>
<path d="M0 0 C2.875 2.4375 2.875 2.4375 5 5 C5.70125 5.78375 6.4025 6.5675 7.125 7.375 C12.3269026 14.65766363 12.94558995 21.15658487 12 30 C10.00718918 37.7695898 4.84797449 44.18440891 -1.5625 48.875 C-2.366875 49.24625 -3.17125 49.6175 -4 50 C-5.2684375 50.5878125 -5.2684375 50.5878125 -6.5625 51.1875 C-15.81261557 53.37389095 -23.05626048 52.40932835 -31.3671875 47.765625 C-35.07553623 45.27872051 -37.6435009 42.78444393 -40 39 C-40.40992188 38.34386719 -40.81984375 37.68773437 -41.2421875 37.01171875 C-44.63655548 30.60923846 -44.98457285 24.10792503 -44 17 C-41.32124374 8.47776218 -35.78332681 1.71944102 -27.875 -2.4375 C-18.66934623 -6.06016784 -8.47978789 -4.8909638 0 0 Z " fill="#A2A7AC" transform="translate(397,337)"/>
<path d="M0 0 C1.11435686 0.90425139 2.21823648 1.82153398 3.3125 2.75 C4.11429687 3.35457031 4.91609375 3.95914062 5.7421875 4.58203125 C17.86938828 14.81090121 24.11586913 30.41113315 26.3125 45.75 C26.49293947 48.48065068 26.47665653 51.01405783 26.3125 53.75 C22.3525 53.75 18.3925 53.75 14.3125 53.75 C14.22613281 52.72261719 14.13976562 51.69523437 14.05078125 50.63671875 C12.52704445 34.81933536 6.59868072 21.28463843 -5.6875 10.75 C-17.65574211 1.00785092 -32.569831 -2.17873052 -47.6875 -1.25 C-61.90301173 0.87064524 -74.44018155 7.74686159 -83.6875 18.75 C-91.60695244 29.64889555 -94.91991657 40.39404831 -95.6875 53.75 C-99.6475 53.75 -103.6075 53.75 -107.6875 53.75 C-108.65934039 37.95759371 -103.04280215 22.73935349 -92.62646484 10.88061523 C-90.37996908 8.43249133 -88.04773056 6.0889991 -85.6875 3.75 C-85.12675781 3.15574219 -84.56601562 2.56148438 -83.98828125 1.94921875 C-61.56846893 -19.88214705 -23.72704534 -17.58223397 0 0 Z " fill="#CA4747" transform="translate(421.6875,307.25)"/>
<path d="M0 0 C12.680668 11.03115021 22.949883 25.91569165 25 43 C25.13680502 46.35408172 25.09463663 49.64039958 25 53 C21.04 53 17.08 53 13 53 C12.9071875 50.4321875 12.9071875 50.4321875 12.8125 47.8125 C11.65027588 34.27975336 4.90390675 20.82092445 -5.07421875 11.55078125 C-17.95598602 1.17743114 -33.63165526 -3.45876215 -50 -2 C-65.59042441 0.84793765 -78.23936803 9.06837149 -87.8125 21.6875 C-94.14708018 31.34661161 -96.58243437 41.58653936 -97 53 C-100.96 53 -104.92 53 -109 53 C-110.2047145 35.65211117 -102.65650862 19.64936509 -91.53125 6.6328125 C-67.26345637 -18.6086889 -27.80563504 -21.35795156 0 0 Z " fill="#CB4747" transform="translate(173,308)"/>
<path d="M0 0 C2.07457348 0.00852231 4.14640038 -0.02029756 6.22070312 -0.05200195 C8.19296875 -0.05103516 8.19296875 -0.05103516 10.20507812 -0.05004883 C11.40390625 -0.05190186 12.60273438 -0.05375488 13.83789062 -0.05566406 C17.68557831 0.53974243 19.32956196 1.74558966 22.08007812 4.44604492 C24.24587839 8.77764545 23.39889418 14.50078636 23.45507812 19.25854492 C23.51115234 21.04228516 23.51115234 21.04228516 23.56835938 22.86206055 C23.66736827 32.65844031 23.66736827 32.65844031 20.74414062 35.70776367 C14.75154825 39.61788626 8.12580367 38.66833431 1.20507812 38.69604492 C-0.71498047 38.72698242 -0.71498047 38.72698242 -2.67382812 38.75854492 C-3.90746094 38.76370117 -5.14109375 38.76885742 -6.41210938 38.77416992 C-7.53987793 38.78351563 -8.66764648 38.79286133 -9.82958984 38.80249023 C-14.20325754 38.29802232 -16.82631299 36.69008472 -19.70898438 33.41088867 C-21.52467342 28.96537904 -21.35406513 24.76300524 -21.29492188 20.00854492 C-21.30652344 19.07977539 -21.318125 18.15100586 -21.33007812 17.1940918 C-21.3075535 11.91957557 -21.067161 7.89203556 -17.91992188 3.44604492 C-12.368265 -0.70310118 -6.67513764 -0.04191733 0 0 Z " fill="#A4A8AC" transform="translate(488.919921875,341.553955078125)"/>
<path d="M0 0 C1.6406543 -0.01836914 1.6406543 -0.01836914 3.31445312 -0.03710938 C4.9009668 -0.04000977 4.9009668 -0.04000977 6.51953125 -0.04296875 C7.48608643 -0.04707764 8.4526416 -0.05118652 9.44848633 -0.05541992 C13.16671421 0.27434536 16.04446699 1.24858003 18.9375 3.625 C23.43379141 9.24536426 22.89503936 21.24313223 22.1875 28.1875 C21.31288165 31.99727825 20.08386937 34.56266924 16.7890625 36.859375 C11.71603576 38.73012239 7.05011638 38.62351586 1.6875 38.5625 C0.15802734 38.57990234 0.15802734 38.57990234 -1.40234375 38.59765625 C-6.90577203 38.57618644 -11.13368149 38.42317643 -15.8125 35.1875 C-19.04496245 30.33880633 -18.18133833 25.01204173 -18.1875 19.3125 C-18.21199219 18.12785156 -18.23648437 16.94320313 -18.26171875 15.72265625 C-18.26558594 14.57925781 -18.26945312 13.43585938 -18.2734375 12.2578125 C-18.28165527 11.21383301 -18.28987305 10.16985352 -18.29833984 9.09423828 C-17.69257222 5.46998234 -16.33167675 3.81112899 -13.8125 1.1875 C-9.73668744 -0.85040628 -4.47944034 0.00261192 0 0 Z " fill="#A4A8AC" transform="translate(17.8125,341.8125)"/>
<path d="M0 0 C1.05960938 -0.00386719 2.11921875 -0.00773438 3.2109375 -0.01171875 C4.86996094 0.00568359 4.86996094 0.00568359 6.5625 0.0234375 C8.22152344 0.00603516 8.22152344 0.00603516 9.9140625 -0.01171875 C10.97367188 -0.00785156 12.03328125 -0.00398437 13.125 0 C14.58099609 0.00507568 14.58099609 0.00507568 16.06640625 0.01025391 C18.5625 0.3984375 18.5625 0.3984375 20.37744141 1.46044922 C22.19351492 4.4303692 21.99037072 7.42674996 21.9609375 10.8046875 C21.96380768 11.52579712 21.96667786 12.24690674 21.96963501 12.98986816 C21.97167452 14.51294745 21.96615247 16.036053 21.95361328 17.55908203 C21.93755643 19.89024428 21.9534641 22.21967292 21.97265625 24.55078125 C21.9706738 26.03125383 21.96683007 27.51172532 21.9609375 28.9921875 C21.97004654 30.03759705 21.97004654 30.03759705 21.9793396 31.10412598 C21.93898778 33.88105296 21.84470923 35.936926 20.37744141 38.33642578 C17.87712743 39.79948279 16.015212 39.78679956 13.125 39.796875 C12.06539062 39.80074219 11.00578125 39.80460937 9.9140625 39.80859375 C8.80804688 39.79699219 7.70203125 39.78539062 6.5625 39.7734375 C5.45648438 39.78503906 4.35046875 39.79664063 3.2109375 39.80859375 C2.15132812 39.80472656 1.09171875 39.80085938 0 39.796875 C-0.97066406 39.79349121 -1.94132812 39.79010742 -2.94140625 39.78662109 C-5.4375 39.3984375 -5.4375 39.3984375 -7.25244141 38.33642578 C-9.06851492 35.3665058 -8.86537072 32.37012504 -8.8359375 28.9921875 C-8.83880768 28.27107788 -8.84167786 27.54996826 -8.84463501 26.80700684 C-8.84667452 25.28392755 -8.84115247 23.760822 -8.82861328 22.23779297 C-8.81255643 19.90663072 -8.8284641 17.57720208 -8.84765625 15.24609375 C-8.8456738 13.76562117 -8.84183007 12.28514968 -8.8359375 10.8046875 C-8.84201019 10.1077478 -8.84808289 9.41080811 -8.8543396 8.69274902 C-8.81398778 5.91582204 -8.71970923 3.859949 -7.25244141 1.46044922 C-4.75212743 -0.00260779 -2.890212 0.01007544 0 0 Z " fill="#D1D1D1" transform="translate(62.4375,189.6015625)"/>
<path d="M0 0 C0.73619064 -0.00570007 1.47238129 -0.01140015 2.23088074 -0.01727295 C3.78842741 -0.02671256 5.34599395 -0.03325281 6.90356445 -0.03710938 C9.27395961 -0.04679731 11.64348078 -0.07782175 14.01367188 -0.109375 C15.52994279 -0.11590741 17.04621988 -0.12115695 18.5625 -0.125 C19.26582962 -0.1373468 19.96915924 -0.1496936 20.69380188 -0.16241455 C25.3501798 -0.14157517 28.57498779 0.64781312 32.48046875 3.203125 C33.62060547 4.94897461 33.62060547 4.94897461 34.16015625 6.85546875 C34.36640625 7.54962891 34.57265625 8.24378906 34.78515625 8.95898438 C34.97335937 9.67892578 35.1615625 10.39886719 35.35546875 11.140625 C35.566875 11.85669922 35.77828125 12.57277344 35.99609375 13.31054688 C36.97962664 16.75610528 37.48046875 19.59729331 37.48046875 23.203125 C19.00046875 23.203125 0.52046875 23.203125 -18.51953125 23.203125 C-16.2264278 11.73760776 -16.2264278 11.73760776 -15.08203125 8.265625 C-14.74365234 7.20021484 -14.74365234 7.20021484 -14.3984375 6.11328125 C-13.39633927 3.93538777 -12.36618845 2.72310083 -10.51953125 1.203125 C-6.96197037 0.01727137 -3.70440321 0.02219229 0 0 Z " fill="#FF8088" transform="translate(408.51953125,135.796875)"/>
<path d="M0 0 C1.11246094 -0.00257813 2.22492188 -0.00515625 3.37109375 -0.0078125 C4.53769531 -0.00007812 5.70429688 0.00765625 6.90625 0.015625 C8.07285156 0.00789062 9.23945313 0.00015625 10.44140625 -0.0078125 C11.55386719 -0.00523437 12.66632813 -0.00265625 13.8125 0 C14.83666016 0.00225586 15.86082031 0.00451172 16.91601562 0.00683594 C19.40625 0.265625 19.40625 0.265625 21.40625 2.265625 C21.60590373 4.89502696 21.6860911 7.41682663 21.671875 10.046875 C21.67378845 10.81616333 21.6757019 11.58545166 21.67767334 12.37805176 C21.67903508 14.0054558 21.67533939 15.6328707 21.66699219 17.26025391 C21.65629221 19.75578131 21.66688751 22.25058882 21.6796875 24.74609375 C21.6783659 26.32552243 21.6758035 27.90495066 21.671875 29.484375 C21.67592346 30.2333606 21.67997192 30.98234619 21.68414307 31.75402832 C21.63617243 37.03570257 21.63617243 37.03570257 19.40625 39.265625 C15.44576178 39.72218297 11.4525119 39.58964542 7.46875 39.578125 C5.80295898 39.60229492 5.80295898 39.60229492 4.10351562 39.62695312 C3.03939453 39.62759766 1.97527344 39.62824219 0.87890625 39.62890625 C-0.09812256 39.63188721 -1.07515137 39.63486816 -2.08178711 39.63793945 C-4.59375 39.265625 -4.59375 39.265625 -6.41308594 38.22167969 C-8.25245301 35.17432464 -8.0010945 32.05957919 -7.95703125 28.60546875 C-7.95752975 27.85979141 -7.95802826 27.11411407 -7.95854187 26.34584045 C-7.95620361 24.7714674 -7.94648955 23.19709045 -7.92993164 21.62280273 C-7.90630244 19.20848322 -7.90937656 16.7952654 -7.91601562 14.38085938 C-7.91043996 12.8515559 -7.90333078 11.32225708 -7.89453125 9.79296875 C-7.89544266 9.06899399 -7.89635406 8.34501923 -7.89729309 7.59910583 C-7.80451144 1.06905205 -6.34587815 0.01397771 0 0 Z " fill="#D1D2D2" transform="translate(243.59375,189.734375)"/>
<path d="M0 0 C9.57 0 19.14 0 29 0 C29 9.24 29 18.48 29 28 C19.43 28 9.86 28 0 28 C0 18.76 0 9.52 0 0 Z " fill="#A6A6AA" transform="translate(140,131)"/>
<path d="M0 0 C9.57 0 19.14 0 29 0 C29 9.24 29 18.48 29 28 C24.400625 28.020625 19.80125 28.04125 15.0625 28.0625 C13.60980713 28.071604 12.15711426 28.08070801 10.66040039 28.09008789 C9.52594482 28.09258545 8.39148926 28.09508301 7.22265625 28.09765625 C5.47094116 28.10551147 5.47094116 28.10551147 3.68383789 28.11352539 C1 28 1 28 0 27 C-0.08758003 25.00035018 -0.10696576 22.9976389 -0.09765625 20.99609375 C-0.09515869 19.90224365 -0.09266113 18.80839355 -0.09008789 17.68139648 C-0.08098389 16.28091064 -0.07187988 14.8804248 -0.0625 13.4375 C-0.041875 9.003125 -0.02125 4.56875 0 0 Z " fill="#A6A6AA" transform="translate(207,131)"/>
<path d="M0 0 C9.57 0 19.14 0 29 0 C29.0309375 6.6515625 29.0309375 6.6515625 29.0625 13.4375 C29.071604 14.83798584 29.08070801 16.23847168 29.09008789 17.68139648 C29.09258545 18.77524658 29.09508301 19.86909668 29.09765625 20.99609375 C29.10551147 22.68496704 29.10551147 22.68496704 29.11352539 24.40795898 C29 27 29 27 28 28 C25.92737924 28.08767112 23.85179706 28.10695873 21.77734375 28.09765625 C20.64288818 28.09515869 19.50843262 28.09266113 18.33959961 28.09008789 C16.1605603 28.07643188 16.1605603 28.07643188 13.9375 28.0625 C7.0384375 28.0315625 7.0384375 28.0315625 0 28 C0 18.76 0 9.52 0 0 Z " fill="#A5A7AA" transform="translate(73,131)"/>
<path d="M0 0 C1.17655403 -0.00855011 1.17655403 -0.00855011 2.37687683 -0.01727295 C4.03875376 -0.0267264 5.70064947 -0.0332583 7.36254883 -0.03710938 C9.89763413 -0.04679729 12.43190254 -0.07780904 14.96679688 -0.109375 C16.58202644 -0.11590697 18.1972618 -0.12115668 19.8125 -0.125 C20.94556328 -0.1435202 20.94556328 -0.1435202 22.10151672 -0.16241455 C26.6149066 -0.1434415 29.52562515 0.39329195 33.10546875 3.203125 C34.67247317 6.33713385 34.95711436 9.83467595 34.10546875 13.203125 C31.16099925 16.28117357 29.49103032 17.15333057 25.22070312 17.70483398 C23.71366692 17.72435404 22.20622009 17.72126717 20.69921875 17.69921875 C19.49573792 17.7014016 19.49573792 17.7014016 18.26794434 17.70362854 C16.57686724 17.70197348 14.88577447 17.69045622 13.19482422 17.66967773 C10.6136037 17.64071627 8.0344383 17.64907741 5.453125 17.66210938 C3.80597965 17.6558714 2.15884076 17.64748 0.51171875 17.63671875 C-0.25611938 17.63965439 -1.02395752 17.64259003 -1.81506348 17.64561462 C-6.77851393 17.55868729 -10.31607784 16.78157841 -13.89453125 13.203125 C-14.48712384 5.97349537 -14.48712384 5.97349537 -12.01953125 2.765625 C-8.06615974 -0.14126581 -4.75812033 0.02655654 0 0 Z " fill="#CFD1D1" transform="translate(245.89453125,299.796875)"/>
<path d="M0 0 C0.87269531 -0.0038269 1.74539062 -0.00765381 2.64453125 -0.01159668 C4.48699092 -0.0143149 6.32948924 -0.00695994 8.171875 0.00976562 C10.99045934 0.03117752 13.80649485 0.00996199 16.625 -0.015625 C18.41667229 -0.01298171 20.20834299 -0.00785669 22 0 C22.84175781 -0.00809692 23.68351562 -0.01619385 24.55078125 -0.02453613 C30.38715618 0.06889601 30.38715618 0.06889601 33.52929688 2.43945312 C35.12144695 4.7039853 35.542797 5.7922417 35.5 8.53125 C35.5103125 9.19125 35.520625 9.85125 35.53125 10.53125 C34.72011424 13.58493756 33.53019712 14.62236769 31 16.53125 C28.00263779 17.13239553 25.04890723 17.09182764 22 17.0625 C21.12730469 17.0663269 20.25460937 17.07015381 19.35546875 17.07409668 C17.51300908 17.0768149 15.67051076 17.06945994 13.828125 17.05273438 C11.00954066 17.03132248 8.19350515 17.05253801 5.375 17.078125 C3.58332771 17.07548171 1.79165701 17.07035669 0 17.0625 C-0.84175781 17.07059692 -1.68351563 17.07869385 -2.55078125 17.08703613 C-8.38715618 16.99360399 -8.38715618 16.99360399 -11.52929688 14.62304688 C-13.12144695 12.3585147 -13.542797 11.2702583 -13.5 8.53125 C-13.51546875 7.54125 -13.51546875 7.54125 -13.53125 6.53125 C-11.69061453 -0.39820116 -5.94975317 -0.05723107 0 0 Z " fill="#D0D2D2" transform="translate(245,325.46875)"/>
<path d="M0 0 C1.16337891 0.00966797 2.32675781 0.01933594 3.52539062 0.02929688 C4.74033203 0.05443359 5.95527344 0.07957031 7.20703125 0.10546875 C8.43357422 0.11900391 9.66011719 0.13253906 10.92382812 0.14648438 C13.95591575 0.18187839 16.98777816 0.2356858 20.01953125 0.29296875 C20.01953125 8.54296875 20.01953125 16.79296875 20.01953125 25.29296875 C15.56103905 25.34668552 11.10318736 25.38650646 6.64453125 25.41796875 C5.37351562 25.43472656 4.1025 25.45148438 2.79296875 25.46875 C1.58125 25.47519531 0.36953125 25.48164063 -0.87890625 25.48828125 C-1.99958496 25.49875488 -3.12026367 25.50922852 -4.27490234 25.52001953 C-6.98046875 25.29296875 -6.98046875 25.29296875 -8.98046875 23.29296875 C-9.42916536 20.00053271 -9.30455117 16.67499132 -9.29296875 13.35546875 C-9.30908203 12.43572266 -9.32519531 11.51597656 -9.34179688 10.56835938 C-9.34244141 9.68470703 -9.34308594 8.80105469 -9.34375 7.890625 C-9.34673096 7.08117432 -9.34971191 6.27172363 -9.3527832 5.43774414 C-8.98046875 3.29296875 -8.98046875 3.29296875 -7.83154297 1.52392578 C-5.17467804 -0.24287889 -3.17000214 -0.04639028 0 0 Z " fill="#FFB61A" transform="translate(474.98046875,316.70703125)"/>
<path d="M0 0 C4.2712088 -0.08070164 8.5409033 -0.14036204 12.8125 -0.1875 C14.63491211 -0.22520508 14.63491211 -0.22520508 16.49414062 -0.26367188 C18.23920898 -0.27817383 18.23920898 -0.27817383 20.01953125 -0.29296875 C21.09307861 -0.3086792 22.16662598 -0.32438965 23.27270508 -0.34057617 C26 0 26 0 27.85107422 1.23095703 C29.32005153 3.49279502 29.37317929 4.9099381 29.36328125 7.59765625 C29.36263672 8.48130859 29.36199219 9.36496094 29.36132812 10.27539062 C29.34521484 11.19513672 29.32910156 12.11488281 29.3125 13.0625 C29.31733398 14.44791992 29.31733398 14.44791992 29.32226562 15.86132812 C29.26705173 22.73294827 29.26705173 22.73294827 27 25 C24.29443359 25.22705078 24.29443359 25.22705078 20.8984375 25.1953125 C19.08085938 25.18564453 19.08085938 25.18564453 17.2265625 25.17578125 C15.95554687 25.15902344 14.68453125 25.14226562 13.375 25.125 C12.09625 25.11597656 10.8175 25.10695313 9.5 25.09765625 C6.33325421 25.07402382 3.16660415 25.03815186 0 25 C0 16.75 0 8.5 0 0 Z " fill="#FFB61A" transform="translate(17,317)"/>
<path d="M0 0 C9.57 0 19.14 0 29 0 C29 3.96 29 7.92 29 12 C19.43 12 9.86 12 0 12 C0 8.04 0 4.08 0 0 Z " fill="#93979B" transform="translate(207,131)"/>
<path d="M0 0 C9.57 0 19.14 0 29 0 C29 3.96 29 7.92 29 12 C19.43 12 9.86 12 0 12 C0 8.04 0 4.08 0 0 Z " fill="#93989B" transform="translate(140,131)"/>
<path d="M0 0 C9.57 0 19.14 0 29 0 C29 3.96 29 7.92 29 12 C19.43 12 9.86 12 0 12 C0 8.04 0 4.08 0 0 Z " fill="#92989B" transform="translate(73,131)"/>
<path d="M0 0 C2.4375 1.5625 2.4375 1.5625 4 4 C4.56288002 7.94016013 4.60396028 10.05782196 2.4375 13.4375 C-0.94217804 15.60396028 -3.05983987 15.56288002 -7 15 C-9.4375 13.4375 -9.4375 13.4375 -11 11 C-11.56288002 7.05983987 -11.60396028 4.94217804 -9.4375 1.5625 C-6.05782196 -0.60396028 -3.94016013 -0.56288002 0 0 Z " fill="#CFD1D1" transform="translate(243,274)"/>
<path d="M0 0 C2.875 1.5625 2.875 1.5625 5 4 C5.63734462 7.96569988 5.61999672 10.03280512 3.4375 13.4375 C0.05782196 15.60396028 -2.05983987 15.56288002 -6 15 C-8.4375 13.4375 -8.4375 13.4375 -10 11 C-10.56783945 7.02512383 -10.62340519 4.93510779 -8.375 1.5625 C-5.26456309 -0.48384007 -3.66322334 -0.59807728 0 0 Z " fill="#CFD1D1" transform="translate(275,274)"/>
</svg>
