<?xml version="1.0" encoding="UTF-8"?>
<svg version="1.1" xmlns="http://www.w3.org/2000/svg" width="512" height="512">
<path d="M0 0 C168.96 0 337.92 0 512 0 C512 168.96 512 337.92 512 512 C343.04 512 174.08 512 0 512 C0 343.04 0 174.08 0 0 Z " fill="#E82629" transform="translate(0,0)"/>
<path d="M0 0 C59.2246696 0 59.2246696 0 72.8984375 12.7734375 C79.26688013 19.35684865 82.15359578 26.86774755 82.4375 36 C81.97389142 47.56030418 78.31645862 57.23547784 69.8125 65.25 C63.36566592 70.38173711 56.11885846 73.06552743 48 74 C54.78726456 83.72359888 61.69096539 93.33316602 68.8359375 102.796875 C72.42218756 107.54962652 75.96451058 112.33441644 79.5 117.125 C80.08765137 117.91890137 80.67530273 118.71280273 81.28076172 119.53076172 C84.29724473 123.62225401 87.22431004 127.7412208 90 132 C74.56878216 133.96672384 74.56878216 133.96672384 69 129.703125 C66.85980687 126.87300119 64.98562594 124.06113085 63.20263672 121.00195312 C61.51764441 118.19705321 59.61415764 115.57148347 57.703125 112.91748047 C56.1700965 110.78832909 54.66292348 108.64278227 53.16015625 106.4921875 C49.85422388 101.77892294 46.496306 97.10415598 43.125 92.4375 C42.60188232 91.71216064 42.07876465 90.98682129 41.53979492 90.23950195 C40.52655184 88.83840072 39.49810478 87.44815781 38.45410156 86.06982422 C37 84 37 84 35.88183594 81.73095703 C34.57215777 79.07823972 34.57215777 79.07823972 31 76 C25.39 75.67 19.78 75.34 14 75 C14 93.81 14 112.62 14 132 C9.38 132 4.76 132 0 132 C0 88.44 0 44.88 0 0 Z " fill="#FEF9F9" transform="translate(240,216)"/>
<path d="M0 0 C7.7390558 7.0746821 10.34292139 15.77489939 10.85699463 25.98199463 C10.91409332 29.97403106 10.90911614 33.96103104 10.87890625 37.953125 C10.87516784 39.41856695 10.87232479 40.88401143 10.87033081 42.34945679 C10.8627594 46.17331052 10.84316819 49.99700802 10.82092285 53.82080078 C10.80032308 57.73598112 10.79129913 61.65118713 10.78125 65.56640625 C10.75991491 73.22403721 10.72478725 80.8815079 10.68359375 88.5390625 C6.72359375 88.5390625 2.76359375 88.5390625 -1.31640625 88.5390625 C-1.97640625 85.5690625 -2.63640625 82.5990625 -3.31640625 79.5390625 C-3.93386719 80.00957031 -4.55132812 80.48007812 -5.1875 80.96484375 C-10.7122206 85.02639634 -15.66486503 87.85676608 -22.31640625 89.5390625 C-22.92484375 89.72082031 -23.53328125 89.90257812 -24.16015625 90.08984375 C-35.10288799 92.36957953 -44.08932614 90.01185717 -53.56640625 84.7265625 C-58.46891055 80.82684317 -62.46407113 76.62287878 -64.31640625 70.5390625 C-65.18331656 60.40830831 -65.49964869 51.72302996 -58.73828125 43.65625 C-50.92235643 35.24180842 -40.17213255 30.90904742 -28.75 30.37109375 C-20.38269654 30.33019784 -12.54285012 30.79405925 -4.31640625 32.5390625 C-3.75170808 21.64854424 -3.75170808 21.64854424 -7.31640625 11.5390625 C-9.08814595 10.4020597 -9.08814595 10.4020597 -11.31640625 9.5390625 C-12.19425781 9.013125 -13.07210937 8.4871875 -13.9765625 7.9453125 C-18.34126669 6.10754231 -22.06281202 6.0063891 -26.75390625 6.0390625 C-27.63119385 6.04043213 -28.50848145 6.04180176 -29.41235352 6.04321289 C-36.61418455 6.21017961 -42.57745255 7.73082479 -49.25 10.34765625 C-51.96607597 11.40294691 -54.44971293 12.07288994 -57.31640625 12.5390625 C-57.85323293 11.31679609 -58.37016157 10.08578165 -58.87890625 8.8515625 C-59.16894531 8.16707031 -59.45898438 7.48257812 -59.7578125 6.77734375 C-60.4352894 4.06269855 -60.02461596 2.21712705 -59.31640625 -0.4609375 C-40.58716295 -7.00368649 -17.09933622 -13.96847184 0 0 Z " fill="#FDF5F5" transform="translate(198.31640625,260.4609375)"/>
<path d="M0 0 C3.8705656 0.41675644 4.85023127 1.33657314 7.46875 4.15234375 C8.23574219 4.97476563 9.00273437 5.7971875 9.79296875 6.64453125 C36.52163373 37.12846321 52.36873972 71.71555594 52.40625 112.71484375 C52.40725708 113.47584381 52.40826416 114.23684387 52.40930176 115.02090454 C52.39910884 126.39785214 51.84720177 137.25266048 49.15625 148.33984375 C48.86621094 149.61859375 48.57617188 150.89734375 48.27734375 152.21484375 C40.96732896 182.06661963 24.67033352 206.82576023 3.15625 228.33984375 C0.28125 228.83984375 0.28125 228.83984375 -2.84375 228.33984375 C-5.41348385 225.50654746 -6.78013559 223.64393913 -6.96875 219.77734375 C-5.69108258 217.00906435 -4.0972508 215.79168647 -1.7109375 213.96484375 C2.48481988 210.31330595 5.74849244 205.71040952 9.15625 201.33984375 C9.8059375 200.52902344 10.455625 199.71820313 11.125 198.8828125 C22.15521632 184.52996955 29.54422931 168.75890038 34.15625 151.33984375 C34.62804687 149.64021484 34.62804687 149.64021484 35.109375 147.90625 C35.86398685 145.06165926 36.53233635 142.21563118 37.15625 139.33984375 C37.36121094 138.46328125 37.56617188 137.58671875 37.77734375 136.68359375 C44.64259673 102.97283427 34.66368873 65.2895879 16.15625 36.96484375 C6.16319844 22.19695777 6.16319844 22.19695777 -6.84375 10.33984375 C-5.74681042 0.68677542 -5.74681042 0.68677542 0 0 Z " fill="#FEF8F8" transform="translate(382.84375,141.66015625)"/>
<path d="M0 0 C12.54 0 25.08 0 38 0 C38 4.29 38 8.58 38 13 C34.04 13 30.08 13 26 13 C26 48.64 26 84.28 26 121 C29.96 121 33.92 121 38 121 C38 124.96 38 128.92 38 133 C25.46 133 12.92 133 0 133 C0 129.04 0 125.08 0 121 C3.96 121 7.92 121 12 121 C12 85.03 12 49.06 12 12 C8.04 12 4.08 12 0 12 C0 8.04 0 4.08 0 0 Z " fill="#FEF9F9" transform="translate(77,215)"/>
<path d="M0 0 C6.80940824 1.04053879 11.25938162 7.78303339 15.26953125 12.890625 C24.76143702 26.12277384 32.06251237 40.16333803 36 56 C36.31839844 57.26070312 36.63679688 58.52140625 36.96484375 59.8203125 C43.39682404 89.16437005 37.23130993 119.76513598 22.01953125 145.328125 C18.13990009 151.36826932 13.80468155 156.71942323 8.8828125 161.94140625 C6.85234952 164.05655742 6.85234952 164.05655742 5 167 C2.125 167.5 2.125 167.5 -1 167 C-3.5491292 164.65211784 -4.82455734 163.08308986 -5.3828125 159.63671875 C-4.84557771 155.9363771 -3.13918862 154.60739116 -0.5 152 C5.07962868 146.15166399 8.96183483 140.02452918 13 133 C13.40992188 132.36578125 13.81984375 131.7315625 14.2421875 131.078125 C25.38454327 113.63040511 27.96307836 85.1303077 23.94140625 65.078125 C21.1956734 53.20513651 17.10866829 42.52313561 11 32 C10.4225 30.98679688 9.845 29.97359375 9.25 28.9296875 C5.69999895 23.02945427 1.59432725 18.15260049 -3.27734375 13.2890625 C-5 11 -5 11 -5.41015625 8.41796875 C-4.75043846 4.52877532 -2.64959301 2.84831248 0 0 Z " fill="#FEF7F7" transform="translate(359,172)"/>
<path d="M0 0 C7.486875 -0.061875 7.486875 -0.061875 15.125 -0.125 C16.68879395 -0.14320801 18.25258789 -0.16141602 19.86376953 -0.18017578 C21.7294458 -0.18766846 21.7294458 -0.18766846 23.6328125 -0.1953125 C24.90012207 -0.20578613 26.16743164 -0.21625977 27.47314453 -0.22705078 C34.73944746 0.24073696 41.35084063 3.42437533 46.55078125 8.51953125 C51.92992023 14.78725956 52.44335972 19.36586333 52.31640625 27.5078125 C51.78482833 33.37485771 49.86049966 36.97036401 45.9375 41.25 C35.20066059 47.64641497 24.24538859 48.15184171 12.0625 48.0625 C8.081875 48.041875 4.10125 48.02125 0 48 C0 32.16 0 16.32 0 0 Z " fill="#E72427" transform="translate(254,229)"/>
<path d="M0 0 C1.61776224 20.39127084 1.61776224 20.39127084 -1.8046875 25.91015625 C-4.46932977 27.77881113 -6.94439973 28.88777756 -10 30 C-10.95003906 30.49113281 -11.90007812 30.98226562 -12.87890625 31.48828125 C-20.74949022 35.37641261 -28.61875029 36.46144006 -37.234375 34.48828125 C-42.60699941 32.50224701 -44.95882976 28.56175535 -48 24 C-48.92080522 18.5506445 -49.17842753 13.28135692 -46.59765625 8.28515625 C-35.28686661 -5.6162437 -15.7969145 -3.61202966 0 0 Z " fill="#E82528" transform="translate(195,304)"/>
<path d="M0 0 C3.140625 0.4453125 3.140625 0.4453125 5.30078125 2.53515625 C5.92855469 3.47488281 6.55632812 4.41460937 7.203125 5.3828125 C7.88117188 6.39730469 8.55921875 7.41179687 9.2578125 8.45703125 C9.87914062 9.44316406 10.50046875 10.42929688 11.140625 11.4453125 C11.61757813 12.17363281 12.09453125 12.90195313 12.5859375 13.65234375 C23.26333801 31.21297415 24.81286121 53.26213839 20.171875 72.96484375 C16.86494708 84.12572549 11.53568798 96.05024952 3.140625 104.4453125 C0.328125 104.8828125 0.328125 104.8828125 -2.859375 104.4453125 C-5.296875 101.7578125 -5.296875 101.7578125 -6.859375 98.4453125 C-6.50296101 94.65765877 -5.34387021 92.34955085 -3.109375 89.3203125 C4.47020478 78.35991296 8.73457467 66.14689536 8.640625 52.8203125 C8.63490479 51.86463379 8.62918457 50.90895508 8.62329102 49.92431641 C8.29339408 36.65512845 4.22269587 21.3253316 -5.578125 11.76953125 C-6.0009375 11.33253906 -6.42375 10.89554688 -6.859375 10.4453125 C-6.60529232 5.61774156 -5.14347664 0.80103325 0 0 Z " fill="#FEF7F7" transform="translate(337.859375,203.5546875)"/>
</svg>
