<?xml version="1.0" encoding="UTF-8"?>
<svg version="1.1" xmlns="http://www.w3.org/2000/svg" width="512" height="512">
<path d="M0 0 C2.43115234 1.55712891 2.43115234 1.55712891 4.5859375 3.7265625 C5.37097656 4.51160156 6.15601563 5.29664062 6.96484375 6.10546875 C7.76019531 6.93691406 8.55554688 7.76835938 9.375 8.625 C10.19355469 9.43324219 11.01210938 10.24148437 11.85546875 11.07421875 C18.97585349 18.33630269 18.97585349 18.33630269 19 24 C16.92075435 27.81496375 14.76107992 30.32898936 11.38731384 33.05433655 C4.42267939 38.75421286 -0.66558611 43.66463621 -1.66100216 52.92291927 C-1.89769649 58.00091762 -1.82254296 63.04141539 -1.68359375 68.12109375 C-1.6780426 70.31925285 -1.67913883 72.51743777 -1.6865387 74.71559143 C-1.68826446 80.45325566 -1.60076439 86.18608346 -1.49353027 91.92260742 C-1.39991675 97.79517373 -1.39223975 103.66781559 -1.37695312 109.54101562 C-1.33457528 121.02900002 -1.19776597 132.51371197 -1 144 C0.01199463 143.97643433 0.01199463 143.97643433 1.04443359 143.95239258 C4.15453424 143.88933921 7.26449972 143.85078869 10.375 143.8125 C11.43589844 143.78736328 12.49679687 143.76222656 13.58984375 143.73632812 C26.80374519 143.61472781 37.45311177 147.6662486 47.25 156.625 C57.57196066 167.55290572 59.30467617 180.61277942 59.2746582 194.96777344 C59.2823246 196.87427422 59.2823246 196.87427422 59.29014587 198.81929016 C59.30344535 202.2797561 59.30412531 205.74011224 59.30158257 209.20059872 C59.30050782 212.09599527 59.30540847 214.99137005 59.310188 217.8867619 C59.32124935 224.71570313 59.32173803 231.54458932 59.31567383 238.37353516 C59.30962059 245.41111447 59.32198683 252.44849454 59.3432439 259.48603988 C59.36085964 265.54146399 59.36686177 271.59682463 59.36360615 277.65227342 C59.36179492 281.26349462 59.3644145 284.87457328 59.37832069 288.48577118 C59.39323108 292.50724775 59.38392933 296.52831728 59.37231445 300.54980469 C59.37995819 301.74263565 59.38760193 302.93546661 59.39547729 304.16444397 C59.38846298 305.26056503 59.38144867 306.3566861 59.3742218 307.48602295 C59.37447341 308.91063402 59.37447341 308.91063402 59.37473011 310.36402512 C58.91953867 313.56599147 57.94671936 315.43002217 56 318 C53.312526 318.95741381 51.02888813 319.55894254 48.25390625 320.0546875 C47.46552872 320.21290985 46.67715118 320.3711322 45.86488342 320.53414917 C43.24761528 321.05009075 40.62586538 321.5298491 38 322 C37.09272156 322.16294556 36.18544312 322.32589111 35.25067139 322.49377441 C33.3683683 322.82972546 31.48576271 323.16398561 29.60287476 323.49664307 C25.70353655 324.18680965 21.80678817 324.89103906 17.91040039 325.59765625 C15.91464886 325.95166983 13.9164849 326.29232272 11.91625977 326.62011719 C-1.70594192 328.47366373 -1.70594192 328.47366373 -12.5703125 336.0703125 C-13.15184082 336.91094238 -13.73336914 337.75157227 -14.33251953 338.61767578 C-22.04369935 349.63461467 -39.06559124 355.40838404 -51.79345703 357.68652344 C-71.15784326 360.43756038 -90.17583872 356.15555793 -106.140625 344.7578125 C-109.98479399 341.70509007 -113.32850382 338.99348276 -116.09257507 334.90402222 C-118.25846054 332.30358904 -119.68804012 331.55232238 -123.0559845 331.24050903 C-124.67733302 331.20554076 -126.29959154 331.20325937 -127.92114258 331.22705078 C-128.80944763 331.21642105 -129.69775269 331.20579132 -130.61297607 331.19483948 C-133.54073829 331.16679865 -136.46669631 331.18084483 -139.39453125 331.1953125 C-141.42764358 331.18406213 -143.46074291 331.17018139 -145.49382019 331.15377808 C-150.83852807 331.11771735 -156.18266418 331.11736949 -161.52746582 331.12445068 C-166.98390961 331.1253631 -172.44013855 331.09251206 -177.89648438 331.0625 C-188.59771612 331.00861634 -199.29864759 330.99245856 -210 331 C-210.28359375 331.76965088 -210.5671875 332.53930176 -210.859375 333.33227539 C-214.51739457 341.88775052 -224.77665123 349.19516699 -233 353 C-249.20548709 359.29536466 -265.27621579 360.24004059 -281.5 353.55859375 C-299.37504656 345.25671329 -307.94758764 331.38712241 -317 314.625 C-318.35155188 312.13659252 -319.70644835 309.65002028 -321.0625 307.1640625 C-321.38919678 306.56402405 -321.71589355 305.9639856 -322.05249023 305.34576416 C-325.25065509 299.49431434 -328.60213885 293.73787255 -332 288 C-333.71398858 291.10107262 -335.42009434 294.20642558 -337.125 297.3125 C-337.65762451 298.27841064 -338.19024902 299.24432129 -338.73901367 300.23950195 C-341.83504436 305.89427272 -344.81628413 311.58667028 -347.66796875 317.3671875 C-348.28135573 318.59744016 -348.89512301 319.82750328 -349.50927734 321.05737305 C-350.70146773 323.44491115 -351.86347041 325.84074352 -353.01416016 328.24926758 C-353.56249512 329.34650146 -354.11083008 330.44373535 -354.67578125 331.57421875 C-355.14927002 332.54963623 -355.62275879 333.52505371 -356.1105957 334.5300293 C-359.90350026 339.488398 -366.52901995 340.5139557 -372.38476562 341.74926758 C-373.08655441 341.8992218 -373.7883432 342.04917603 -374.51139832 342.20367432 C-376.80809 342.69190087 -379.10690502 343.16896876 -381.40625 343.64453125 C-383.01618995 343.98116646 -384.62609334 344.31797658 -386.23596191 344.654953 C-389.60038271 345.35700925 -392.9660382 346.05276899 -396.33251953 346.74487305 C-400.63650104 347.63085812 -404.93551303 348.5388574 -409.23371124 349.45242786 C-412.55320262 350.15427613 -415.87567127 350.84111139 -419.19914246 351.52383995 C-420.78541005 351.85220234 -422.37057744 352.18592891 -423.95454407 352.52521706 C-426.17185473 352.99849498 -428.39253528 353.45052107 -430.61523438 353.89770508 C-431.87541382 354.15957108 -433.13559326 354.42143707 -434.43395996 354.6912384 C-438.47225328 355.04088952 -441.22104409 354.4121379 -445 353 C-446.5 351.375 -446.5 351.375 -447 349 C-445.74755094 335.58714442 -442.25432103 322.79288397 -434 312 C-433.61118652 311.48630859 -433.22237305 310.97261719 -432.82177734 310.44335938 C-430.78212455 307.75149667 -428.71979273 305.08309311 -426.625 302.43359375 C-426.00939964 301.62830482 -426.00939964 301.62830482 -425.38136292 300.80674744 C-424.37798648 299.49438572 -423.35391643 298.19776497 -422.31773376 296.91114807 C-417.35674959 290.40281704 -415.44356939 284.64206413 -414.00390625 276.65625 C-413.76684464 275.45601196 -413.52978302 274.25577393 -413.28553772 273.01916504 C-412.63788544 269.71699189 -412.01192797 266.41206972 -411.39524078 263.10406494 C-410.71377332 259.47627179 -410.00579937 255.85364938 -409.30029297 252.23046875 C-409.00651324 250.71755047 -408.7128435 249.20461083 -408.41928101 247.69165039 C-408.27233166 246.93441681 -408.12538231 246.17718323 -407.97397995 245.39700317 C-407.22776172 241.54883882 -406.48377252 237.70024545 -405.74023438 233.8515625 C-405.59194876 233.08544144 -405.44366314 232.31932037 -405.29088402 231.52998352 C-404.52717703 227.57874096 -403.77143339 223.62620686 -403.02905273 219.67089844 C-402.29403033 215.75772137 -401.539397 211.84878546 -400.77130318 207.94197083 C-400.48621767 206.47298441 -400.20831129 205.00258449 -399.93800163 203.5308075 C-399.56318143 201.49492016 -399.16345306 199.46543472 -398.75756836 197.43554688 C-398.53806015 196.28534058 -398.31855194 195.13513428 -398.09239197 193.95007324 C-396.7363593 190.28802169 -395.3203637 189.00686318 -392 187 C-389.6033783 186.49206543 -389.6033783 186.49206543 -387.08959961 186.48242188 C-386.14189194 186.46981323 -385.19418427 186.45720459 -384.21775818 186.44421387 C-383.20617142 186.45231079 -382.19458466 186.46040771 -381.15234375 186.46875 C-379.57907066 186.46300964 -379.57907066 186.46300964 -377.97401428 186.45715332 C-375.76090533 186.45443584 -373.54776418 186.46178546 -371.3347168 186.47851562 C-367.94572508 186.49994798 -364.55884823 186.47869624 -361.16992188 186.453125 C-359.01822449 186.45576788 -356.86652841 186.46089204 -354.71484375 186.46875 C-353.70123276 186.46065308 -352.68762177 186.45255615 -351.64329529 186.44421387 C-344.71026814 186.53676117 -344.71026814 186.53676117 -341.4230957 188.68066406 C-339.77583331 191.36534287 -339.10806124 193.54679131 -338.515625 196.640625 C-338.30292969 197.71054687 -338.09023438 198.78046875 -337.87109375 199.8828125 C-337.66613281 200.99398437 -337.46117187 202.10515625 -337.25 203.25 C-337.02957031 204.37664062 -336.80914062 205.50328125 -336.58203125 206.6640625 C-336.04088931 209.44035595 -335.51413363 212.21860056 -335 215 C-330.6979256 215 -328.7329013 212.4291123 -325.6875 209.6875 C-297.29698548 184.72561155 -297.29698548 184.72561155 -288.93359375 185.140625 C-274.56729611 185.4915677 -265.88933712 183.88497607 -255.1328125 174.1015625 C-254.07930745 173.07711966 -253.03436479 172.04376506 -252 171 C-251.28053696 170.41141708 -251.28053696 170.41141708 -250.54653931 169.8109436 C-248.36964575 167.26187715 -247.73130565 164.70735886 -246.75097656 161.50683594 C-246.54720398 160.85083908 -246.3434314 160.19484222 -246.13348389 159.51896667 C-245.46017307 157.34343652 -244.80040295 155.16404379 -244.140625 152.984375 C-243.66925164 151.45167377 -243.19704864 149.91922747 -242.72406006 148.38702393 C-241.47553257 144.33446673 -240.2384461 140.27850317 -239.00366211 136.22174072 C-237.77234743 132.18347132 -236.53026518 128.14852008 -235.2890625 124.11328125 C-233.15621394 117.17438043 -231.03486871 110.23203944 -228.91976166 103.2877121 C-227.5360147 98.74769543 -226.14035698 94.21153173 -224.73632812 89.67773438 C-224.40389099 88.59985657 -224.07145386 87.52197876 -223.72894287 86.41143799 C-223.12789506 84.46345426 -222.52383138 82.51639727 -221.91607666 80.57049561 C-221.65856628 79.73286682 -221.40105591 78.89523804 -221.13574219 78.03222656 C-220.91408386 77.31826721 -220.69242554 76.60430786 -220.46405029 75.86871338 C-219.87949684 73.83564979 -219.87949684 73.83564979 -220 71 C-221.48549064 69.81160749 -222.97180749 68.62421111 -224.46484375 67.4453125 C-227.95510475 64.15931614 -228.88068891 60.11357017 -229.375 55.5 C-228.64565375 48.69276837 -226.14674891 44.63943655 -221.109375 40.26171875 C-214.47303632 36.29220506 -207.27030424 36.71459093 -199.78173828 36.74121094 C-197.95846512 36.73595398 -197.95846512 36.73595398 -196.09835815 36.73059082 C-192.78000402 36.72331866 -189.46190073 36.72499277 -186.14356089 36.73134899 C-182.659089 36.73643475 -179.17462737 36.73171019 -175.69015503 36.72857666 C-169.83785086 36.72494353 -163.98559726 36.72971793 -158.13330078 36.73925781 C-151.38557821 36.75013094 -144.63797662 36.74662249 -137.890257 36.735605 C-132.08024636 36.7265013 -126.27027194 36.72526218 -120.46025646 36.73048234 C-116.99758416 36.73358645 -113.53496853 36.73405477 -110.07229996 36.72740936 C-106.20716986 36.72050916 -102.34217295 36.73009885 -98.47705078 36.74121094 C-97.34221252 36.73716248 -96.20737427 36.73311401 -95.03814697 36.72894287 C-83.07819784 36.79242877 -72.76012793 38.96655514 -63.66796875 47.1640625 C-56.92238887 54.58893965 -53.67311795 62.97661431 -53.77294922 72.93310547 C-53.77265717 73.7045137 -53.77236511 74.47592194 -53.77206421 75.27070618 C-53.77344989 77.8029838 -53.78897488 80.33496172 -53.8046875 82.8671875 C-53.80842034 84.62980997 -53.81126604 86.39243452 -53.81326294 88.15505981 C-53.82087802 92.78122749 -53.84050818 97.40726843 -53.8626709 102.03338623 C-53.88317519 106.75921922 -53.89227444 111.4850728 -53.90234375 116.2109375 C-53.92375616 125.47402281 -53.95892091 134.73698101 -54 144 C-48.39 144 -42.78 144 -37 144 C-37.01554428 142.60209229 -37.03108856 141.20418457 -37.04710388 139.76391602 C-37.18909241 126.58089269 -37.29440215 113.3980021 -37.3626852 100.21438599 C-37.39872514 93.43671889 -37.44782731 86.65962396 -37.52807617 79.88232422 C-37.60550438 73.34009967 -37.64600776 66.79824588 -37.6641407 60.25558472 C-37.67706057 57.76128797 -37.70229065 55.26702321 -37.7401104 52.77297974 C-37.79103707 49.27502584 -37.79791875 45.77951582 -37.79467773 42.28125 C-37.83242813 40.73944313 -37.83242813 40.73944313 -37.87094116 39.16648865 C-37.80536485 32.61204861 -36.44929287 29.28746692 -31.7762537 24.64826965 C-31.19008998 24.10434067 -30.60392626 23.56041168 -30 23 C-29.06161846 21.99977124 -28.12944174 20.99366636 -27.20507812 19.98046875 C-24.82694322 17.49636874 -22.43736278 15.02532153 -20.02978516 12.56982422 C-19.00274562 11.51590398 -17.98294286 10.45488678 -16.97021484 9.38720703 C-15.4863753 7.8242929 -13.98079735 6.28558067 -12.46875 4.75 C-11.58638672 3.83734375 -10.70402344 2.9246875 -9.79492188 1.984375 C-6.21308498 -0.55870417 -4.30797351 -0.6625303 0 0 Z " fill="#0A0A09" transform="translate(450,77)"/>
<path d="M0 0 C4.63045736 0.14192973 9.25990889 0.19398141 13.89215565 0.24167633 C19.44699447 0.30101675 25.00079194 0.40157272 30.55480957 0.51269531 C31.60165232 0.53233841 32.64849506 0.55198151 33.72706032 0.57221985 C36.71088616 0.63790208 39.69244192 0.73149528 42.6751709 0.83496094 C43.54137558 0.85200073 44.40758026 0.86904053 45.30003357 0.88659668 C53.99322721 1.24906509 63.41557559 4.27035669 69.66027832 10.60644531 C74.54552428 17.50326314 76.82555834 22.82645303 76.72277832 31.29394531 C76.7182666 31.99583984 76.71375488 32.69773437 76.70910645 33.42089844 C76.69734759 35.14945069 76.67941286 36.87795897 76.66027832 38.60644531 C75.37339111 38.62102783 74.08650391 38.63561035 72.76062012 38.65063477 C67.99129283 38.70855679 63.2224407 38.78578994 58.45349121 38.86889648 C56.38846542 38.90217455 54.32334805 38.93019745 52.25817871 38.95288086 C49.291554 38.98637386 46.32577084 39.03868676 43.35949707 39.09472656 C41.97186409 39.10431145 41.97186409 39.10431145 40.55619812 39.11408997 C39.69553238 39.13388412 38.83486664 39.15367828 37.94812012 39.17407227 C37.19089157 39.18517532 36.43366302 39.19627838 35.65348816 39.2077179 C33.09966059 39.71859289 32.20605645 40.53432669 30.66027832 42.60644531 C30.34987453 45.21702559 30.21597218 47.58472565 30.22668457 50.19628906 C30.22144272 50.93722305 30.21620087 51.67815704 30.21080017 52.44154358 C30.20438149 54.00748442 30.20571504 55.57347348 30.2142334 57.1394043 C30.2227369 59.53228923 30.19399554 61.92278108 30.16223145 64.31542969 C30.1606191 65.83821543 30.16119761 67.36100539 30.16418457 68.88378906 C30.1473336 69.95426735 30.1473336 69.95426735 30.13014221 71.04637146 C30.17402783 74.18411036 30.49750668 76.32864875 32.09265137 79.05102539 C36.0236032 81.43232178 39.72113203 81.2100721 44.23840332 81.21582031 C45.06001953 81.2314502 45.88163574 81.24708008 46.72814941 81.26318359 C49.78856693 81.31566724 52.84949289 81.33403035 55.91027832 81.35644531 C66.18152832 81.48019531 66.18152832 81.48019531 76.66027832 81.60644531 C76.66027832 104.04644531 76.66027832 126.48644531 76.66027832 149.60644531 C67.90496582 151.33894531 67.90496582 151.33894531 58.97277832 153.10644531 C56.22187866 153.65461914 56.22187866 153.65461914 53.41540527 154.21386719 C51.95153012 154.50135063 50.48758605 154.78848348 49.02355957 155.07519531 C48.27183472 155.22633789 47.52010986 155.37748047 46.74560547 155.53320312 C43.001945 156.2617394 39.47796418 156.79122527 35.66027832 156.60644531 C36.1423343 152.83034018 36.7430495 149.20721523 37.67590332 145.51660156 C41.6412167 127.80667912 38.64224642 109.28860808 29.63684082 93.67285156 C18.70370808 76.71137093 3.40656306 66.02908033 -16.20690918 61.25878906 C-35.83018357 57.66681377 -55.17270112 61.60231658 -71.68347168 72.68066406 C-86.02107067 83.07542333 -94.54018758 96.65743723 -99.33972168 113.60644531 C-100.00735535 113.61231155 -100.67498901 113.6181778 -101.362854 113.6242218 C-108.30594473 113.68811052 -115.24856999 113.7725188 -122.19128418 113.86889648 C-124.78301867 113.90216963 -127.37482603 113.93019402 -129.9666748 113.95288086 C-133.69029832 113.98638207 -137.41325249 114.03869755 -141.13659668 114.09472656 C-142.29713562 114.10111649 -143.45767456 114.10750641 -144.65338135 114.11408997 C-145.73419983 114.13388412 -146.81501831 114.15367828 -147.92858887 114.17407227 C-149.3542215 114.19072685 -149.3542215 114.19072685 -150.80865479 114.2077179 C-153.82945041 114.68359391 -155.20687328 115.42416359 -157.33972168 117.60644531 C-157.95047258 119.58555044 -157.95047258 119.58555044 -157.88562012 121.80249023 C-157.90533875 122.64313522 -157.92505737 123.48378021 -157.94537354 124.34989929 C-157.94660217 125.25311417 -157.94783081 126.15632904 -157.94909668 127.08691406 C-157.96563293 128.01490311 -157.98216919 128.94289215 -157.99920654 129.89900208 C-158.04780595 132.86404966 -158.0690839 135.82858398 -158.08972168 138.79394531 C-158.11787138 140.80373693 -158.14779739 142.81350451 -158.17956543 144.82324219 C-158.25356813 149.75093432 -158.30306974 154.67833951 -158.33972168 159.60644531 C-162.29972168 159.60644531 -166.25972168 159.60644531 -170.33972168 159.60644531 C-170.17472168 158.43082031 -170.00972168 157.25519531 -169.83972168 156.04394531 C-167.94617949 138.01290177 -170.4071303 123.40330966 -181.33972168 108.60644531 C-189.5601715 98.74190553 -199.27422188 93.52120814 -211.33972168 89.60644531 C-212.82472168 89.11144531 -212.82472168 89.11144531 -214.33972168 88.60644531 C-233.85132117 87.00296428 -249.29855841 89.95049436 -264.52722168 102.79394531 C-273.08161611 110.7699766 -277.85257857 120.60853244 -281.33972168 131.60644531 C-284.37629085 129.00757981 -285.80135907 125.98572803 -287.52722168 122.41894531 C-288.05702637 121.33226562 -288.58683105 120.24558594 -289.13269043 119.12597656 C-289.53101074 118.29453125 -289.92933105 117.46308594 -290.33972168 116.60644531 C-289.49151855 115.94 -288.64331543 115.27355469 -287.76940918 114.58691406 C-287.20987549 114.14726318 -286.6503418 113.7076123 -286.07385254 113.25463867 C-284.81692137 112.26708527 -283.55992081 111.27962018 -282.30285645 110.29223633 C-279.11694029 107.78960962 -275.93192334 105.28586732 -272.74987793 102.77832031 C-272.16673828 102.31917236 -271.58359863 101.86002441 -270.98278809 101.38696289 C-269.38135533 100.12594348 -267.78044225 98.86426417 -266.17956543 97.60253906 C-265.60085693 97.1669165 -265.02214844 96.73129395 -264.42590332 96.2824707 C-262.18458674 94.52971162 -262.18458674 94.52971162 -259.67346191 92.0690918 C-250.47264604 83.65720627 -242.62442729 83.32991334 -230.52722168 83.79394531 C-216.46030148 84.70515149 -216.46030148 84.70515149 -204.33972168 78.60644531 C-200.30766544 74.31425642 -199.98366861 69.54692294 -200.05847168 63.85253906 C-200.65457593 59.09198432 -203.50342062 56.34318672 -206.96472168 53.29394531 C-210.24174864 50.96553142 -211.95588807 50.4727664 -215.92199707 50.39770508 C-216.87381363 50.37841446 -217.82563019 50.35912384 -218.80628967 50.33924866 C-223.18124611 50.28140599 -227.5560369 50.23218159 -231.93127441 50.20141602 C-234.23285979 50.17988469 -236.53436437 50.14584036 -238.83557129 50.09887695 C-242.161544 50.03162515 -245.48581962 50.00436977 -248.81237793 49.98535156 C-249.83146744 49.9575209 -250.85055695 49.92969025 -251.90052795 49.90101624 C-259.34996862 49.92223905 -263.60678427 51.94515382 -269.33972168 56.60644531 C-270.48859917 57.47607499 -271.63817544 58.34478362 -272.78894043 59.21191406 C-273.87102487 60.06924779 -274.95042052 60.92998517 -276.02722168 61.79394531 C-277.22380697 62.74320099 -278.42042252 63.69241852 -279.61706543 64.64160156 C-280.22405273 65.12516113 -280.83104004 65.6087207 -281.4564209 66.10693359 C-284.66015268 68.65779185 -287.87413675 71.1955571 -291.08972168 73.73144531 C-291.68615479 74.20477295 -292.28258789 74.67810059 -292.89709473 75.16577148 C-297.11344824 78.49330859 -297.11344824 78.49330859 -299.33972168 79.60644531 C-297.99326165 76.51890186 -296.60491593 74.71647877 -293.98815918 72.61035156 C-292.96988037 71.78168579 -292.96988037 71.78168579 -291.93103027 70.9362793 C-290.83395752 70.06144897 -290.83395752 70.06144897 -289.71472168 69.16894531 C-288.58477783 68.25447632 -288.58477783 68.25447632 -287.43200684 67.3215332 C-285.8579072 66.04817618 -284.28153237 64.77762704 -282.70300293 63.50976562 C-280.42621419 61.67610395 -278.16202547 59.82816767 -275.90222168 57.97363281 C-274.50646983 56.83030417 -273.11063971 55.68707106 -271.71472168 54.54394531 C-271.07711914 54.0206665 -270.4395166 53.4973877 -269.78259277 52.95825195 C-268.56269911 51.96498329 -267.33434411 50.98200015 -266.0970459 50.01049805 C-264.9475989 49.09212215 -263.82692939 48.13621588 -262.74255371 47.1418457 C-256.70611874 42.00787685 -249.85659182 43.0625584 -242.32019043 43.24511719 C-232.76459271 43.21499235 -227.9349176 40.0141346 -221.12341309 33.56469727 C-209.19994488 22.82227344 -198.32760607 23.1402686 -182.83972168 23.85644531 C-180.55210307 23.91677383 -178.26432962 23.97150262 -175.97644043 24.02050781 C-170.42743103 24.15137583 -164.88432037 24.35097745 -159.33972168 24.60644531 C-159.01173584 25.29794678 -158.68375 25.98944824 -158.3458252 26.7019043 C-156.86681977 29.81696608 -155.38456603 32.93047111 -153.90222168 36.04394531 C-153.38595215 37.13255859 -152.86968262 38.22117187 -152.33776855 39.34277344 C-151.84470215 40.37724609 -151.35163574 41.41171875 -150.84362793 42.47753906 C-150.3880249 43.43587646 -149.93242187 44.39421387 -149.4630127 45.3815918 C-148.52721629 47.52312623 -148.52721629 47.52312623 -147.33972168 48.60644531 C-145.35301945 48.74256772 -143.36147023 48.80836876 -141.3704834 48.84692383 C-139.45246414 48.88554283 -139.45246414 48.88554283 -137.49569702 48.92494202 C-131.6232887 49.01436059 -125.75069872 49.07505715 -119.87780762 49.12133789 C-116.77909653 49.14804042 -113.68193279 49.19669786 -110.5838623 49.26489258 C-106.8412879 49.34706591 -103.10018184 49.38955575 -99.3567543 49.40440178 C-97.93331568 49.41661761 -96.50992304 49.44257827 -95.0870018 49.48285103 C-87.10482521 49.88521485 -87.10482521 49.88521485 -79.97735596 46.91885376 C-78.18686222 44.90462885 -76.74698463 42.90032663 -75.33972168 40.60644531 C-74.42803223 39.45063965 -74.42803223 39.45063965 -73.4979248 38.27148438 C-73.04353027 37.64467773 -72.58913574 37.01787109 -72.12097168 36.37207031 C-71.57956543 35.63085938 -71.03815918 34.88964844 -70.48034668 34.12597656 C-69.6682373 33.00255859 -69.6682373 33.00255859 -68.83972168 31.85644531 C-67.12579457 29.49763148 -65.41203036 27.17510168 -63.5826416 24.90332031 C-61.64041947 22.04844194 -60.54414837 19.72193134 -59.27844238 16.55957031 C-48.57306456 -6.35149398 -21.37744315 -0.75418745 0 0 Z " fill="#FCDC3F" transform="translate(417.3397216796875,233.3935546875)"/>
<path d="M0 0 C30.36 0 60.72 0 92 0 C92.185625 12.478125 92.37125 24.95625 92.5625 37.8125 C92.68540405 43.69219604 92.68540405 43.69219604 92.81079102 49.69067383 C92.85144043 54.52868652 92.85144043 54.52868652 92.85899353 56.80351257 C92.87269025 58.37076409 92.9040878 59.93792891 92.95018005 61.50456238 C93.18983501 70.08976051 93.33819997 76.37348595 87.67163086 83.31933594 C86.13081385 84.89574879 84.57441763 86.45714431 83 88 C81.76240854 89.5803834 80.54874135 91.18022783 79.375 92.80859375 C78.81296875 93.57623047 78.2509375 94.34386719 77.671875 95.13476562 C77.12015625 95.89466797 76.5684375 96.65457031 76 97.4375 C74.29046466 99.78012262 72.58209908 102.11409224 70.80834961 104.40869141 C68.88222053 107.01329609 68.88222053 107.01329609 67.47485352 110.24365234 C65.47240661 113.95688244 63.70858703 116.92106306 60 119 C51.54801969 121.02732287 42.54114021 120.12170812 33.9375 119.75 C31.52161642 119.6897608 29.1055892 119.63501603 26.68945312 119.5859375 C20.78981929 119.454161 14.89557708 119.25382076 9 119 C7.87247351 116.77208002 6.74791861 114.54274113 5.625 112.3125 C5.30789063 111.68666016 4.99078125 111.06082031 4.6640625 110.41601562 C3.76054113 108.61838457 2.87979867 106.80935971 2 105 C1.63907257 104.3028035 1.27814514 103.60560699 0.90628052 102.88728333 C-0.4170982 98.67118332 -0.26149583 94.64587651 -0.22705078 90.25268555 C-0.22734283 89.27659836 -0.22763489 88.30051117 -0.22793579 87.29484558 C-0.22654482 84.07537888 -0.21099438 80.85614492 -0.1953125 77.63671875 C-0.19158155 75.4018415 -0.18873496 73.1669626 -0.18673706 70.93208313 C-0.1791071 65.0548347 -0.15946398 59.17768539 -0.1373291 53.30047607 C-0.11325654 46.24614256 -0.10408666 39.19177587 -0.09242249 32.13741302 C-0.07303932 21.42487312 -0.03471214 10.71255062 0 0 Z " fill="#7FE9FE" transform="translate(269,150)"/>
<path d="M0 0 C8.34122507 7.12479641 14.91062457 17.92342732 15.86328125 29.02734375 C16.13576297 40.62932848 13.54850402 50.84576165 6.625 60.25 C6.068125 61.095625 5.51125 61.94125 4.9375 62.8125 C-3.23676343 71.4286155 -12.90994647 76.30559174 -24.7043457 76.72045898 C-32.9232685 76.81137129 -40.15953274 76.57928036 -47.375 72.25 C-48.51775391 71.61384766 -48.51775391 71.61384766 -49.68359375 70.96484375 C-59.50694156 65.01782543 -66.51635785 56.38329173 -69.89306641 45.32617188 C-72.80864453 32.76584951 -70.67758568 20.88350569 -63.98828125 9.9921875 C-57.97889356 1.3320836 -49.41276025 -5.55788357 -39.140625 -8.359375 C-24.43563741 -10.43635065 -12.15178744 -9.00132403 0 0 Z " fill="#454545" transform="translate(219.375,343.75)"/>
<path d="M0 0 C10.56 0 21.12 0 32 0 C33.00280112 5.28261306 34.00164787 10.56567195 34.99072266 15.85083008 C35.32796762 17.64650591 35.66745555 19.44176205 36.00927734 21.23657227 C36.50175584 23.824597 36.98600249 26.41405098 37.46875 29.00390625 C37.62186646 29.79898087 37.77498291 30.59405548 37.93273926 31.41322327 C38.77537175 35.984335 39.394271 40.33366514 39 45 C36.91758727 47.10375517 35.22878916 48.52456683 32.8125 50.125 C31.6497792 50.93644172 30.48958803 51.75152093 29.33203125 52.5703125 C28.76911377 52.96613525 28.20619629 53.36195801 27.6262207 53.76977539 C24.02474338 56.49426785 20.37855298 59.61369507 19 64 C18.36528139 70.34718606 19.38841623 74.70614757 23 80 C26.3415471 83.3415471 29.47233266 84.73646493 34 86 C32.60943258 90.54651712 30.7850962 94.60809433 28.59375 98.82421875 C28.26838257 99.45229935 27.94301514 100.08037994 27.60778809 100.72749329 C26.92401017 102.04538932 26.23814614 103.3622049 25.55029297 104.67797852 C24.49880995 106.68977692 23.45396409 108.70491359 22.41015625 110.72070312 C15.61120091 123.80465633 15.61120091 123.80465633 12.17211914 124.90380859 C10.97192139 125.14953613 9.77172363 125.39526367 8.53515625 125.6484375 C7.54918961 125.85509789 7.54918961 125.85509789 6.54330444 126.06593323 C4.38536714 126.51460529 2.22424582 126.94508661 0.0625 127.375 C-1.42390938 127.67962742 -2.91015525 127.98505375 -4.39624023 128.29125977 C-17.89377752 131.05313298 -31.43619259 133.586059 -45 136 C-44.04717427 129.47098746 -42.79998007 124.8307434 -38.6875 119.5 C-38.25816162 118.92668945 -37.82882324 118.35337891 -37.38647461 117.76269531 C-35.93911123 115.83014353 -34.47019343 113.91522995 -33 112 C-30.66612916 108.93216517 -28.36016082 105.84500633 -26.0625 102.75 C-25.50715576 102.03005859 -24.95181152 101.31011719 -24.37963867 100.56835938 C-23.59036987 99.50584961 -23.59036987 99.50584961 -22.78515625 98.421875 C-22.31988525 97.80924805 -21.85461426 97.19662109 -21.37524414 96.56542969 C-17.46944375 89.27940971 -16.22700047 80.75097097 -14.73046875 72.703125 C-14.52875061 71.64284088 -14.32703247 70.58255676 -14.11920166 69.49014282 C-13.69103767 67.23683982 -13.26519429 64.98309478 -12.84152222 62.72894287 C-11.9622486 58.05181938 -11.07114843 53.37697521 -10.18055725 48.70199585 C-9.73870001 46.38213636 -9.29740198 44.06217028 -8.85667419 41.74209595 C-7.08985548 32.44505574 -5.28676566 23.15597633 -3.4375 13.875 C-3.19862061 12.66360352 -2.95974121 11.45220703 -2.71362305 10.20410156 C-2.49746338 9.12354492 -2.28130371 8.04298828 -2.05859375 6.9296875 C-1.87611084 6.01429199 -1.69362793 5.09889648 -1.50561523 4.15576172 C-1 2 -1 2 0 0 Z " fill="#FCBC3F" transform="translate(66,279)"/>
<path d="M0 0 C8.58264843 5.11183121 14.26364424 11.78226432 17.30859375 21.375 C18.78355189 30.84465879 17.20517772 39.14635035 12.30859375 47.375 C7.47544101 53.94677556 1.18496036 58.2412028 -6.69140625 60.375 C-16.66322793 61.55738809 -24.79840348 60.83171536 -32.87109375 54.7265625 C-40.60439062 48.2396578 -44.8654949 42.22761102 -46.0859375 32.1015625 C-46.58703067 21.54364603 -43.5553257 13.34054015 -36.50390625 5.4375 C-26.38551104 -3.57626691 -12.35910355 -5.84469922 0 0 Z " fill="#020101" transform="translate(400.69140625,334.625)"/>
<path d="M0 0 C2.97 0 5.94 0 9 0 C9 31.02 9 62.04 9 94 C-3.54 94 -16.08 94 -29 94 C-27.1203524 86.48140961 -25.21815029 79.32936734 -22.6875 72.0625 C-20.2177679 64.82053197 -17.94251579 57.55441719 -15.875 50.1875 C-11.12375509 33.27733821 -5.59436481 16.64756194 0 0 Z " fill="#65CAFC" transform="translate(246,150)"/>
<path d="M0 0 C7.05475386 4.2756084 11.52207236 9.25776969 14.0625 17.25 C15.37386356 26.07294607 13.65264496 32.89664775 8.7421875 40.21875 C4.5406063 45.63718259 -0.53788032 48.11679344 -6.9375 50.25 C-15.01459852 51.19076023 -21.27922035 50.00434184 -27.9375 45.25 C-33.77704436 39.92887415 -37.47714117 35.12262918 -38.23828125 27.06640625 C-38.27283026 17.47329685 -36.61736513 11.23522155 -30.01171875 4.1171875 C-21.29599748 -3.72860302 -10.47412518 -5.38669295 0 0 Z " fill="#020101" transform="translate(203.9375,353.75)"/>
<path d="M0 0 C16.56821108 -0.07014026 33.13637385 -0.1230127 49.70469761 -0.15543652 C57.39799023 -0.17089289 65.09119049 -0.1919588 72.78442383 -0.22631836 C79.49133729 -0.25625848 86.19818384 -0.27558394 92.90516227 -0.28226548 C96.45512961 -0.28616996 100.00490559 -0.29532013 103.55481148 -0.31719017 C107.52168437 -0.34142988 111.48837156 -0.34196702 115.45532227 -0.34057617 C116.62704987 -0.351362 117.79877747 -0.36214783 119.00601196 -0.3732605 C128.24954075 -0.33817947 134.24279592 1.24279592 141 8 C146.4647462 15.80890651 145.5076689 24.49541015 145.390625 33.625 C145.38315524 35.33991839 145.37746578 37.05484538 145.37347412 38.76977539 C145.35827556 43.26129136 145.31904446 47.7522816 145.2746582 52.24359131 C145.23358005 56.83549897 145.21543643 61.42749241 145.1953125 66.01953125 C145.15254387 75.01325053 145.08436352 84.00658137 145 93 C142.69 93 140.38 93 138 93 C137.99453156 91.61390785 137.99453156 91.61390785 137.98895264 90.19981384 C137.95102598 81.47510698 137.89412006 72.75077214 137.81609726 64.02632809 C137.77665233 59.54138196 137.7444493 55.05663129 137.72900391 50.5715332 C137.71381752 46.24002681 137.67933722 41.90905788 137.63169098 37.57779121 C137.61689753 35.92850997 137.60896015 34.27915198 137.60811615 32.62980461 C137.60573848 30.31244029 137.5785977 27.99655174 137.54589844 25.67944336 C137.53701599 24.3626207 137.52813354 23.04579803 137.51898193 21.68907166 C136.74518962 16.18873515 135.04715676 12.57453786 130.51348877 9.08753967 C125.27059112 7.4646914 120.24287614 7.57770431 114.78417969 7.59936523 C113.55756622 7.59238617 112.33095276 7.5854071 111.06716919 7.57821655 C108.40858113 7.56510047 105.75062154 7.55732506 103.0920639 7.55874443 C98.8903034 7.56078258 94.68881153 7.54118415 90.48712158 7.51856995 C82.33292033 7.47766077 74.17874058 7.45899664 66.02445984 7.44239807 C55.63035425 7.42001426 45.23631076 7.38658677 34.84230733 7.33519894 C30.66305594 7.31524937 26.48394604 7.30569559 22.30464888 7.30424678 C19.10248482 7.30085965 15.90037613 7.28496333 12.69824219 7.27124023 C10.95587784 7.27506966 10.95587784 7.27506966 9.17831421 7.27897644 C8.12405243 7.27214844 7.06979065 7.26532043 5.98358154 7.25828552 C4.6042853 7.25583407 4.6042853 7.25583407 3.19712448 7.25333309 C1 7 1 7 -1 5 C-0.625 2.375 -0.625 2.375 0 0 Z " fill="#F7A036" transform="translate(237,129)"/>
<path d="M0 0 C14.19 0 28.38 0 43 0 C43.66 6.6 44.32 13.2 45 20 C45.99 22.97 46.98 25.94 48 29 C48 29.99 48 30.98 48 32 C32.16 32 16.32 32 0 32 C0 21.44 0 10.88 0 0 Z " fill="#C17440" transform="translate(273,361)"/>
<path d="M0 0 C5.23219836 2.51920662 9.38537029 6.77074058 12 12 C12.7690664 18.52607777 12.57015645 23.93143224 8.60546875 29.33984375 C4.45802474 33.62856323 -0.10723512 35.20947722 -6 35.5625 C-11.33179847 35.30821423 -15.12374662 33.67082981 -19 30 C-22.73405181 25.2427758 -23.65679335 20.28786862 -23.3828125 14.32421875 C-22.35843383 8.10477685 -17.73170636 4.60021136 -13 1 C-9.04904013 -0.97547993 -4.306334 -0.43307325 0 0 Z " fill="#F8A037" transform="translate(392,346)"/>
<path d="M0 0 C2.42209417 1.19020478 2.91632814 2.4514659 3.87181187 4.91979885 C3.42623401 5.24394803 2.98065615 5.56809721 2.52157593 5.90206909 C-4.319016 11.10829449 -10.94432019 16.59742484 -12.50779629 25.4141531 C-13.14218908 31.87056795 -12.97522559 38.3146401 -12.81178188 44.7908926 C-12.80623198 47.1684142 -12.80732533 49.54595966 -12.81472683 51.92347622 C-12.816454 58.13445536 -12.72888973 64.34097529 -12.62171841 70.55090237 C-12.52817011 76.90607246 -12.52043236 83.26130958 -12.50514126 89.61706448 C-12.46274114 102.05283753 -12.32586062 114.48559136 -12.12818813 126.91979885 C-14.43818813 126.91979885 -16.74818813 126.91979885 -19.12818813 126.91979885 C-19.52752333 112.87239561 -19.82500677 98.82588679 -20.00899506 84.77394867 C-20.09735178 78.24706339 -20.21696024 71.72401607 -20.41065884 65.19933987 C-20.59676796 58.89009409 -20.69729536 52.58451338 -20.74110126 46.27273273 C-20.7722721 43.87748884 -20.83314842 41.48242334 -20.9255991 39.08876133 C-21.36335484 27.27384814 -21.41926322 18.13763035 -13.12513542 9.04868889 C-3.72945442 -0.14054515 -3.72945442 -0.14054515 0 0 Z " fill="#424242" transform="translate(447.12818813323975,95.08020114898682)"/>
<path d="M0 0 C0.76166977 0.00222061 1.52333954 0.00444122 2.30809021 0.00672913 C3.16890701 0.00680466 4.02972382 0.00688019 4.91662598 0.00695801 C5.8520372 0.01211929 6.78744843 0.01728058 7.75120544 0.02259827 C8.70422043 0.02401321 9.65723541 0.02542816 10.63912964 0.02688599 C13.69605085 0.032503 16.75289996 0.04505836 19.80979919 0.05775452 C21.87685543 0.06276733 23.94391281 0.06733061 26.01097107 0.07142639 C31.08977507 0.08247795 36.16852489 0.09975397 41.24729919 0.12025452 C41.87229919 2.49525452 41.87229919 2.49525452 42.24729919 5.12025452 C40.24729919 7.12025452 40.24729919 7.12025452 36.6782074 7.24867249 C35.13467589 7.20891104 33.59129444 7.1630488 32.04808044 7.11244202 C30.34563765 7.09372691 28.64315726 7.07821326 26.94065857 7.06556702 C24.26842814 7.03930431 21.60220314 6.99683014 18.93162537 6.89759827 C7.35331952 6.49755916 -0.04084233 7.56603427 -8.84565735 15.44421387 C-9.98880972 16.51400286 -11.12276429 17.59373294 -12.24583435 18.68458557 C-14.17110343 20.51888815 -16.23274973 22.10483253 -18.37379456 23.67884827 C-19.32874817 24.40068298 -19.32874817 24.40068298 -20.30299377 25.13710022 C-20.92577209 25.60591614 -21.54855042 26.07473206 -22.19020081 26.55775452 C-27.92898664 30.90791061 -33.55982439 35.36616567 -39.12770081 39.93275452 C-41.66460682 42.0011802 -44.20599231 44.06391034 -46.75270081 46.12025452 C-47.30780334 46.5690094 -47.86290588 47.01776428 -48.43482971 47.4801178 C-49.92263464 48.66953798 -51.43078196 49.83338593 -52.94020081 50.99525452 C-53.75875549 51.63205139 -54.57731018 52.26884827 -55.42066956 52.92494202 C-58.31519572 54.40856849 -59.70910514 54.0825281 -62.75270081 53.12025452 C-63.08270081 51.80025452 -63.41270081 50.48025452 -63.75270081 49.12025452 C-54.78814556 41.77829528 -45.7736927 34.53690155 -36.56178284 27.50697327 C-27.21753874 20.34431382 -17.95346266 13.07469683 -8.69020081 5.80775452 C-8.10053528 5.34570618 -7.51086975 4.88365784 -6.90333557 4.40760803 C-1.41833052 0.09731304 -1.41833052 0.09731304 0 0 Z " fill="#BF733F" transform="translate(161.75270080566406,296.87974548339844)"/>
<path d="M0 0 C10.89 0 21.78 0 33 0 C33 4.95 33 9.9 33 15 C22.11 15 11.22 15 0 15 C0 10.05 0 5.1 0 0 Z " fill="#F8A037" transform="translate(461,286)"/>
<path d="M0 0 C3.78580423 2.03850997 7.05061257 4.10122513 9 8 C9.54192749 12.79992915 9.51086458 14.99719176 7.3125 19.3125 C3.95077759 23.21936658 1.71357583 24.78190853 -3.4375 25.4375 C-7.68345227 24.91606726 -9.73817577 23.73082959 -13 21 C-15.7322275 16.6115935 -15.81307882 12.01669633 -15 7 C-10.75368922 1.4912725 -6.95824629 -0.70761827 0 0 Z " fill="#F59E36" transform="translate(195,365)"/>
<path d="M0 0 C0.66 0.33 1.32 0.66 2 1 C2 1.66 2 2.32 2 3 C0.34501189 4.37915676 -1.37830374 5.67650388 -3.125 6.9375 C-4.23027024 7.74588913 -5.33439026 8.55585268 -6.4375 9.3671875 C-7.02015625 9.79483398 -7.6028125 10.22248047 -8.203125 10.66308594 C-11.22024607 12.90788961 -14.17304117 15.23303001 -17.125 17.5625 C-18.00140137 18.25327637 -18.00140137 18.25327637 -18.89550781 18.95800781 C-23.94920931 22.94836753 -28.9820254 26.96480844 -34 31 C-34 30.01 -34 29.02 -34 28 C-32.16993034 26.20033016 -30.36454788 24.60654999 -28.375 23 C-27.79540527 22.52087158 -27.21581055 22.04174316 -26.61865234 21.5480957 C-21.75706367 17.55236757 -16.80751707 13.66593966 -11.84277344 9.79956055 C-7.79047537 6.64169382 -3.85433989 3.3954899 0 0 Z " fill="#DCC037" transform="translate(153,282)"/>
</svg>
