<?xml version="1.0" encoding="UTF-8"?>
<svg version="1.1" xmlns="http://www.w3.org/2000/svg" width="1024" height="1024">
<path d="M0 0 C2.12626413 1.48335002 4.18571897 3.01138189 6.21484375 4.625 C8.09653063 6.14483108 8.09653063 6.14483108 10.8125 7.5625 C13.63091545 9.41460158 14.62919233 10.91568274 16 14 C18.08879465 24.25408285 19.24525885 38.95710421 14.1875 48.375 C12.08968595 50.89237686 10.88988364 51.70349036 8 53 C7.76648001 79.62483517 7.59009637 106.24951707 7.48187828 132.87516975 C7.43029671 145.23776591 7.35996446 157.5997261 7.24560547 169.96191406 C7.14598636 180.73585137 7.08143062 191.50932817 7.05911505 202.28371322 C7.04606839 207.98987381 7.01537482 213.69471689 6.94269943 219.40045547 C6.87485384 224.77048059 6.85387657 230.13864501 6.86892319 235.509058 C6.86617048 237.48041077 6.84625505 239.45182528 6.80794525 241.42280769 C6.18113639 251.61687327 6.18113639 251.61687327 10.16853714 260.43944931 C12.74740831 262.0067446 15.15870044 263.01090288 18 264 C24.56668726 268.09728563 31.43180033 273.30295859 33.57060909 281.07293987 C34.1714923 285.16902396 34.13393457 289.19841092 34.12025452 293.33296204 C34.12153615 294.74819579 34.12153615 294.74819579 34.12284368 296.19202012 C34.12449143 299.3550021 34.1189886 302.5179311 34.11352539 305.6809082 C34.11324334 307.94762674 34.1134016 310.21434536 34.1139679 312.48106384 C34.11425518 318.63760419 34.10836959 324.79412512 34.10139394 330.95066094 C34.09514891 337.38354408 34.09455569 343.81642765 34.09336853 350.24931335 C34.0906121 361.04747901 34.08436298 371.84563669 34.07543945 382.64379883 C34.06625836 393.76521774 34.05918093 404.88663471 34.05493164 416.00805664 C34.05453756 417.03659969 34.05453756 417.03659969 34.05413551 418.08592138 C34.05283046 421.52590459 34.05156675 424.96588781 34.05032361 428.40587103 C34.0399594 456.93725218 34.02227401 485.46862581 34 514 C33.34 513.67 32.68 513.34 32 513 C31.73445313 514.0621875 31.46890625 515.124375 31.1953125 516.21875 C29.0703125 524.71875 29.0703125 524.71875 28.53613281 526.8515625 C28.17366367 528.30408002 27.81370376 529.75722565 27.45605469 531.2109375 C26.72322169 534.18033874 25.96765882 537.09702353 25 540 C24.87625 540.66 24.7525 541.32 24.625 542 C23.87695754 544.39373588 22.79034479 545.281269 21 547 C19.69351129 549.3226466 18.84692572 551.45922283 18 554 C17.34 554.66 16.68 555.32 16 556 C14.79255397 559.0906743 13.96110365 562.30749609 13.0625 565.5 C12.79671143 566.439646 12.53092285 567.37929199 12.25708008 568.34741211 C8.7717264 581.03726313 6.74722675 593.85911576 6 607 C6.33 607 6.66 607 7 607 C7.04667426 632.24263753 7.08196637 657.48526861 7.10362434 682.72794056 C7.11394679 694.44795484 7.12802559 706.16794235 7.15087891 717.88793945 C7.17078317 728.10040688 7.18370939 738.31285493 7.18817699 748.52534121 C7.1907894 753.93518548 7.19694975 759.34497427 7.21146011 764.7548008 C7.22499723 769.84282025 7.22923051 774.93076117 7.22621536 780.01879692 C7.22676726 781.88972017 7.23076768 783.76064594 7.23841095 785.63155365 C7.24831169 788.17921548 7.24598681 790.72657795 7.24050903 793.27424622 C7.24924756 794.39340438 7.24924756 794.39340438 7.25816262 795.53517181 C7.23647637 799.24795022 7.1165988 800.8251018 5 804 C3.2539749 807.14284518 2.05954271 809.6204152 1.5 813.1875 C0.94057831 816.33424703 0.31950133 816.95883883 -2 819 C-2.28875 819.66 -2.5775 820.32 -2.875 821 C-4.40286746 823.71620881 -6.30928846 824.43510919 -9 826 C-11.99894499 828.03831389 -14.98435064 830.09496296 -17.96484375 832.16015625 C-23.59253516 835.57153675 -28.65646585 836.29678394 -35.14416504 836.28761292 C-36.34985303 836.29758463 -36.34985303 836.29758463 -37.57989836 836.30775779 C-40.26488857 836.32739292 -42.94971169 836.33282166 -45.63476562 836.33813477 C-47.5636539 836.34903437 -49.49253794 836.36070656 -51.42141724 836.37309265 C-56.65736327 836.40356896 -61.89326538 836.42061007 -67.129282 836.43330884 C-70.40491522 836.44140295 -73.68053596 836.45158402 -76.9561615 836.46232414 C-87.21734659 836.49503945 -97.47850116 836.51893857 -107.73973131 836.531138 C-119.56098272 836.54537723 -131.38163553 836.58920198 -143.20268869 836.65863949 C-152.35455338 836.71053265 -161.50624847 836.73532004 -170.65825796 836.73996013 C-176.11721898 836.74334844 -181.57557449 836.75805242 -187.03437805 836.80124092 C-192.17614532 836.84120849 -197.31689 836.84730322 -202.45876694 836.82834053 C-204.33639022 836.82708204 -206.21406786 836.8376005 -208.09154129 836.86135483 C-221.11521289 837.01660626 -231.43387435 835.64238835 -241.61261749 826.70635319 C-242.93487397 825.37997315 -244.21940318 824.01407794 -245.44921875 822.6015625 C-247.01413847 820.7388638 -247.01413847 820.7388638 -250 820 C-251.5703125 818.1015625 -251.5703125 818.1015625 -253.125 815.625 C-253.64320313 814.83351563 -254.16140625 814.04203125 -254.6953125 813.2265625 C-258.72764022 803.25439873 -257.15187303 790.5271761 -257.15771484 779.90869141 C-257.16239122 777.99042649 -257.16753613 776.07216266 -257.17311096 774.15390015 C-257.18433823 770.03928356 -257.19279829 765.92467398 -257.19923019 761.81004715 C-257.20998213 755.28401304 -257.23024732 748.75802946 -257.25234985 742.23202515 C-257.31402816 723.67960948 -257.36817209 705.1271972 -257.40136719 686.57470703 C-257.41980329 676.31542524 -257.44885055 666.05622877 -257.4893719 655.79700983 C-257.51029162 650.38228713 -257.5258776 644.96767124 -257.52817917 639.55290604 C-257.53035134 634.44901388 -257.54647758 629.34534405 -257.57256889 624.24151993 C-257.57966667 622.38622775 -257.58191025 620.53090834 -257.57846642 618.67560577 C-257.55321184 602.45973932 -259.34140882 586.80489092 -263 571 C-263.66 571 -264.32 571 -265 571 C-264.9175 570.071875 -264.835 569.14375 -264.75 568.1875 C-264.70548397 562.77880268 -266.99996233 557.93759299 -269 553 C-269.66 553 -270.32 553 -271 553 C-271.99193593 551.15263309 -272.96796697 549.29672217 -273.9375 547.4375 C-274.48277344 546.40496094 -275.02804687 545.37242187 -275.58984375 544.30859375 C-277.09176019 540.78470671 -277.51783396 537.78727002 -278 534 C-278.94012536 530.7061795 -279.94073391 527.4492435 -281.0078125 524.1953125 C-285.7312685 508.9880883 -286.4426171 493.96932842 -286.40405273 478.16943359 C-286.40976861 476.03052415 -286.41673753 473.89161776 -286.42485046 471.75271606 C-286.44264938 465.99719321 -286.4416403 460.24182388 -286.43590808 454.48628187 C-286.43280103 449.66951149 -286.4389245 444.85276996 -286.44494683 440.03600371 C-286.45894285 428.67811175 -286.45746811 417.32029511 -286.44604492 405.96240234 C-286.43453077 394.25542151 -286.44870588 382.54866889 -286.4754414 370.84171808 C-286.49758627 360.76659834 -286.50423961 350.69155034 -286.49836498 340.61640799 C-286.4949959 334.60862027 -286.49740924 328.6009793 -286.51461601 322.59321213 C-286.53006673 316.95411724 -286.52615026 311.31536235 -286.50731087 305.67628098 C-286.50362179 303.60868393 -286.50674268 301.54106176 -286.51719666 299.47348785 C-286.53038422 296.64976895 -286.51887939 293.82717988 -286.50120544 291.00350952 C-286.51081045 290.18726872 -286.52041546 289.37102792 -286.53031152 288.53005254 C-286.45817822 282.92335928 -285.22204097 279.61648428 -282 275 C-281.34 274.67 -280.68 274.34 -280 274 C-279.67 273.01 -279.34 272.02 -279 271 C-277.6865594 270.29494964 -276.34925904 269.63381564 -275 269 C-273.59189279 267.87351423 -272.21712521 266.70434049 -270.875 265.5 C-270.19179688 264.8915625 -269.50859375 264.283125 -268.8046875 263.65625 C-265.81202591 261.19137076 -265.81202591 261.19137076 -264.77967834 257.65370178 C-264.79316818 256.67235764 -264.80665802 255.69101349 -264.82055664 254.67993164 C-264.83039078 253.56860367 -264.84022491 252.4572757 -264.85035706 251.31227112 C-264.87009079 250.10707321 -264.88982452 248.90187531 -264.91015625 247.66015625 C-264.93057704 245.12825712 -264.95075175 242.596356 -264.97070312 240.06445312 C-265.01425481 236.05695965 -265.062458 232.04959954 -265.11645508 228.04223633 C-265.16459935 224.18571388 -265.19456457 220.32936908 -265.22265625 216.47265625 C-265.24441422 215.26948257 -265.26617218 214.0663089 -265.28858948 212.82667542 C-265.29527145 211.71219528 -265.30195343 210.59771515 -265.30883789 209.44946289 C-265.32153214 208.46732315 -265.33422638 207.48518341 -265.3473053 206.47328186 C-264.93698001 203.55121272 -264.13815088 202.91406899 -262 201 C-261.896875 200.030625 -261.79375 199.06125 -261.6875 198.0625 C-261 195 -261 195 -258.375 193 C-256.704375 192.01 -256.704375 192.01 -255 191 C-253.92499178 190.01345879 -252.86303424 189.01256312 -251.8125 188 C-244.75856591 181.91849008 -236.32742113 180.27905512 -227.203125 180.625 C-218.3031736 181.66694553 -212.30037506 184.92673125 -205.97265625 191.1953125 C-204.11499004 193.07310451 -204.11499004 193.07310451 -201.8828125 194 C-199.49476063 195.2683429 -198.9356737 196.44527729 -197.8125 198.875 C-197.48894531 199.55304688 -197.16539062 200.23109375 -196.83203125 200.9296875 C-195.38426059 204.53212154 -194.87558132 207.70695038 -194.88647461 211.58496094 C-194.88658791 212.93590851 -194.88658791 212.93590851 -194.88670349 214.31414795 C-194.89186478 215.27782288 -194.89702606 216.2414978 -194.90234375 217.234375 C-194.9037587 218.22753723 -194.90517365 219.22069946 -194.90663147 220.24395752 C-194.91222412 223.41266912 -194.9247753 226.58130979 -194.9375 229.75 C-194.94251595 231.89973856 -194.94707869 234.04947823 -194.95117188 236.19921875 C-194.96133978 241.46619508 -194.98091673 246.73301823 -195 252 C-180.48 252 -165.96 252 -151 252 C-151 227.91 -151 203.82 -151 179 C-150.34 179 -149.68 179 -149 179 C-148.97421875 178.39671875 -148.9484375 177.7934375 -148.921875 177.171875 C-148.86515625 176.37265625 -148.8084375 175.5734375 -148.75 174.75 C-148.70359375 173.96109375 -148.6571875 173.1721875 -148.609375 172.359375 C-147.3549254 167.50240346 -143.10168932 165.24475175 -139 162.8125 C-138.154375 162.30332031 -137.30875 161.79414063 -136.4375 161.26953125 C-131.02894996 158.4525781 -125.27307741 158.03850237 -119.43359375 159.75390625 C-114.68362541 161.5590358 -110.73872226 163.48120258 -107 167 C-105.8553125 167.928125 -105.8553125 167.928125 -104.6875 168.875 C-102.46272051 171.67657417 -102.6832645 173.51590945 -103 177 C-102.34 177 -101.68 177 -101 177 C-101 201.75 -101 226.5 -101 252 C-81.53 252 -62.06 252 -42 252 C-42 186.33 -42 120.66 -42 53 C-43.32 52.34 -44.64 51.68 -46 51 C-48.95993014 47.16305353 -49.49065251 43.75390989 -50 39 C-50.16628906 38.27554688 -50.33257813 37.55109375 -50.50390625 36.8046875 C-51.16280994 33.07954693 -51.26305021 29.39637039 -51.3125 25.625 C-51.34150391 24.89539063 -51.37050781 24.16578125 -51.40039062 23.4140625 C-51.46534257 17.81820277 -50.20424754 14.60127569 -47 10 C-46.34 9.67 -45.68 9.34 -45 9 C-44.690625 8.38125 -44.38125 7.7625 -44.0625 7.125 C-42.93677818 4.87355636 -41.95304864 3.57746237 -40 2 C-39.08347656 1.77376953 -39.08347656 1.77376953 -38.1484375 1.54296875 C-35.86784343 0.96660043 -34.07355293 0.101575 -32 -1 C-22.37092861 -6.11544418 -9.20103342 -5.91107648 0 0 Z M-49 15 C-48 17 -48 17 -48 17 Z M-50 18 C-49 20 -49 20 -49 20 Z M-41 56 C-41 120.68 -41 185.36 -41 252 C-40.67 252 -40.34 252 -40 252 C-40 187.32 -40 122.64 -40 56 C-40.33 56 -40.66 56 -41 56 Z M6 56 C6 122 6 188 6 256 C6.33 256 6.66 256 7 256 C7 190 7 124 7 56 C6.67 56 6.34 56 6 56 Z M-199 201 C-198 203 -198 203 -198 203 Z M-198 204 C-197 207 -197 207 -197 207 Z M-197 207 C-197 221.85 -197 236.7 -197 252 C-196.67 252 -196.34 252 -196 252 C-196 237.15 -196 222.3 -196 207 C-196.33 207 -196.66 207 -197 207 Z M-197 253 C-197 253.33 -197 253.66 -197 254 C-181.16 254 -165.32 254 -149 254 C-149 253.67 -149 253.34 -149 253 C-164.84 253 -180.68 253 -197 253 Z M-103 253 C-103 253.33 -103 253.66 -103 254 C-82.21 254 -61.42 254 -40 254 C-40 253.67 -40 253.34 -40 253 C-60.79 253 -81.58 253 -103 253 Z M-285 282 C-284 284 -284 284 -284 284 Z M-255 311 C-255 311.66 -255 312.32 -255 313 C-169.86 313 -84.72 313 3 313 C3 318.61 3 324.22 3 330 C3.33 330 3.66 330 4 330 C4 323.73 4 317.46 4 311 C-81.47 311 -166.94 311 -255 311 Z M-255 314 C-255 319.28 -255 324.56 -255 330 C-254.67 330 -254.34 330 -254 330 C-254 324.72 -254 319.44 -254 314 C-254.33 314 -254.66 314 -255 314 Z M-253 314 C-253 319.28 -253 324.56 -253 330 C-168.85 330 -84.7 330 2 330 C2 324.72 2 319.44 2 314 C-82.15 314 -166.3 314 -253 314 Z M-255 331 C-255 331.33 -255 331.66 -255 332 C-169.53 332 -84.06 332 4 332 C4 331.67 4 331.34 4 331 C-81.47 331 -166.94 331 -255 331 Z M-255 358 C-255 358.33 -255 358.66 -255 359 C-169.53 359 -84.06 359 4 359 C4 358.67 4 358.34 4 358 C-81.47 358 -166.94 358 -255 358 Z M-255 360 C-255 365.28 -255 370.56 -255 376 C-254.67 376 -254.34 376 -254 376 C-254 370.72 -254 365.44 -254 360 C-254.33 360 -254.66 360 -255 360 Z M-253 360 C-253 365.28 -253 370.56 -253 376 C-168.85 376 -84.7 376 2 376 C2 370.72 2 365.44 2 360 C-82.15 360 -166.3 360 -253 360 Z M3 360 C3 365.28 3 370.56 3 376 C3.33 376 3.66 376 4 376 C4 370.72 4 365.44 4 360 C3.67 360 3.34 360 3 360 Z M-255 377 C-255 377.33 -255 377.66 -255 378 C-169.53 378 -84.06 378 4 378 C4 377.67 4 377.34 4 377 C-81.47 377 -166.94 377 -255 377 Z M-255 404 C-254.01 404.495 -254.01 404.495 -253 405 C-253 410.94 -253 416.88 -253 423 C-168.85 423 -84.7 423 2 423 C2 417.06 2 411.12 2 405 C2.66 404.67 3.32 404.34 4 404 C-81.47 404 -166.94 404 -255 404 Z M-255 406 C-255 411.61 -255 417.22 -255 423 C-254.67 423 -254.34 423 -254 423 C-254 417.39 -254 411.78 -254 406 C-254.33 406 -254.66 406 -255 406 Z M3 406 C3 411.61 3 417.22 3 423 C3.33 423 3.66 423 4 423 C4 417.39 4 411.78 4 406 C3.67 406 3.34 406 3 406 Z M-255 424 C-255 424.33 -255 424.66 -255 425 C-169.53 425 -84.06 425 4 425 C4 424.67 4 424.34 4 424 C-81.47 424 -166.94 424 -255 424 Z M-255 451 C-255 451.33 -255 451.66 -255 452 C-169.53 452 -84.06 452 4 452 C4 451.67 4 451.34 4 451 C-81.47 451 -166.94 451 -255 451 Z M-255 453 C-255 458.28 -255 463.56 -255 469 C-254.67 469 -254.34 469 -254 469 C-254 463.72 -254 458.44 -254 453 C-254.33 453 -254.66 453 -255 453 Z M-253 453 C-253 458.28 -253 463.56 -253 469 C-168.85 469 -84.7 469 2 469 C2 463.72 2 458.44 2 453 C-82.15 453 -166.3 453 -253 453 Z M3 453 C3 458.28 3 463.56 3 469 C3.33 469 3.66 469 4 469 C4 463.72 4 458.44 4 453 C3.67 453 3.34 453 3 453 Z M-255 470 C-255 470.33 -255 470.66 -255 471 C-169.53 471 -84.06 471 4 471 C4 470.67 4 470.34 4 470 C-81.47 470 -166.94 470 -255 470 Z M-255 807 C-254 809 -254 809 -254 809 Z M-254 810 C-253 812 -253 812 -253 812 Z " fill="#BE0000" transform="translate(638,96)"/>
<path d="M0 0 C0.33 0 0.66 0 1 0 C1 65.01 1 130.02 1 197 C0.67 197 0.34 197 0 197 C0 131.99 0 66.98 0 0 Z " fill="#830000" transform="translate(379,698)"/>
<path d="M0 0 C0.33 0 0.66 0 1 0 C2.03590199 5.05002222 2.10251672 9.87416389 2 15 C1.67 15 1.34 15 1 15 C0.67 10.05 0.34 5.1 0 0 Z " fill="#CF0000" transform="translate(377,682)"/>
<path d="M0 0 C0.33 0 0.66 0 1 0 C1 4.95 1 9.9 1 15 C0.67 15 0.34 15 0 15 C0 10.05 0 5.1 0 0 Z " fill="#BB0000" transform="translate(656,118)"/>
<path d="M0 0 C4.29 0 8.58 0 13 0 C13 0.33 13 0.66 13 1 C8.71 1 4.42 1 0 1 C0 0.67 0 0.34 0 0 Z " fill="#BA0000" transform="translate(401,275)"/>
<path d="M0 0 C0.33 0 0.66 0 1 0 C1 3.3 1 6.6 1 10 C0.67 10 0.34 10 0 10 C0 6.7 0 3.4 0 0 Z " fill="#CC0000" transform="translate(645,691)"/>
<path d="M0 0 C0.33 0 0.66 0 1 0 C1 3.3 1 6.6 1 10 C0.67 10 0.34 10 0 10 C0 6.7 0 3.4 0 0 Z " fill="#CC0000" transform="translate(585,121)"/>
<path d="M0 0 C2.97 0 5.94 0 9 0 C9 0.33 9 0.66 9 1 C6.03 1 3.06 1 0 1 C0 0.67 0 0.34 0 0 Z " fill="#AA0000" transform="translate(508,253)"/>
<path d="M0 0 C0.33 0 0.66 0 1 0 C1 2.31 1 4.62 1 7 C0.67 7 0.34 7 0 7 C0 4.69 0 2.38 0 0 Z " fill="#C80000" transform="translate(646,684)"/>
<path d="M0 0 C0.33 0 0.66 0 1 0 C1 2.31 1 4.62 1 7 C0.67 7 0.34 7 0 7 C0 4.69 0 2.38 0 0 Z " fill="#C80000" transform="translate(372,303)"/>
<path d="M0 0 C0.33 0 0.66 0 1 0 C1 1.98 1 3.96 1 6 C0.67 6 0.34 6 0 6 C0 4.02 0 2.04 0 0 Z " fill="#D40000" transform="translate(647,678)"/>
<path d="M0 0 C0.33 0 0.66 0 1 0 C1 1.98 1 3.96 1 6 C0.67 6 0.34 6 0 6 C0 4.02 0 2.04 0 0 Z " fill="#E90000" transform="translate(376,676)"/>
<path d="M0 0 C0.33 0 0.66 0 1 0 C1 1.65 1 3.3 1 5 C0.67 5 0.34 5 0 5 C0 3.35 0 1.7 0 0 Z " fill="#E50000" transform="translate(353,608)"/>
<path d="M0 0 C0.33 0 0.66 0 1 0 C1 1.65 1 3.3 1 5 C0.67 5 0.34 5 0 5 C0 3.35 0 1.7 0 0 Z " fill="#CC0000" transform="translate(352,603)"/>
<path d="M0 0 C0.33 0 0.66 0 1 0 C1 1.65 1 3.3 1 5 C0.67 5 0.34 5 0 5 C0 3.35 0 1.7 0 0 Z " fill="#E50000" transform="translate(586,116)"/>
<path d="M0 0 C1 4 1 4 1 4 Z " fill="#BF0000" transform="translate(380,895)"/>
<path d="M0 0 C1 4 1 4 1 4 Z " fill="#AA0000" transform="translate(648,673)"/>
<path d="M0 0 C1 4 1 4 1 4 Z " fill="#CA0000" transform="translate(375,672)"/>
<path d="M0 0 C1 4 1 4 1 4 Z " fill="#BF0000" transform="translate(649,669)"/>
<path d="M0 0 C1 4 1 4 1 4 Z " fill="#BF0000" transform="translate(374,668)"/>
<path d="M0 0 C1 4 1 4 1 4 Z " fill="#DF0000" transform="translate(651,661)"/>
<path d="M0 0 C1 4 1 4 1 4 Z " fill="#DF0000" transform="translate(355,617)"/>
<path d="M0 0 C1 4 1 4 1 4 Z " fill="#BF0000" transform="translate(668,618)"/>
<path d="M0 0 C1 4 1 4 1 4 Z " fill="#BF0000" transform="translate(354,613)"/>
<path d="M0 0 C1 4 1 4 1 4 Z " fill="#BF0000" transform="translate(670,610)"/>
<path d="M0 0 C0.99 0.33 1.98 0.66 3 1 C2.01 1 1.02 1 0 1 C0 0.67 0 0.34 0 0 Z " fill="#DF0000" transform="translate(656,359)"/>
<path d="M0 0 C0.66 0.33 1.32 0.66 2 1 C1.01 1 0.02 1 -1 1 C-0.67 0.67 -0.34 0.34 0 0 Z " fill="#DF0000" transform="translate(368,358)"/>
<path d="M0 0 C4 1 4 1 4 1 Z " fill="#BF0000" transform="translate(414,276)"/>
<path d="M0 0 C4 1 4 1 4 1 Z " fill="#BF0000" transform="translate(397,276)"/>
<path d="M0 0 C4 1 4 1 4 1 Z " fill="#DF0000" transform="translate(504,254)"/>
<path d="M0 0 C1 4 1 4 1 4 Z " fill="#BF0000" transform="translate(586,131)"/>
<path d="M0 0 C3 1 3 1 3 1 Z " fill="#D40000" transform="translate(614,931)"/>
<path d="" fill="#AA0000" transform="translate(0,0)"/>
<path d="" fill="#AA0000" transform="translate(0,0)"/>
<path d="" fill="#AA0000" transform="translate(0,0)"/>
<path d="" fill="#AA0000" transform="translate(0,0)"/>
<path d="" fill="#AA0000" transform="translate(0,0)"/>
<path d="" fill="#AA0000" transform="translate(0,0)"/>
<path d="" fill="#D40000" transform="translate(0,0)"/>
<path d="" fill="#D40000" transform="translate(0,0)"/>
<path d="" fill="#AA0000" transform="translate(0,0)"/>
<path d="" fill="#D40000" transform="translate(0,0)"/>
<path d="" fill="#D40000" transform="translate(0,0)"/>
<path d="" fill="#D40000" transform="translate(0,0)"/>
<path d="" fill="#AA0000" transform="translate(0,0)"/>
<path d="" fill="#D40000" transform="translate(0,0)"/>
<path d="" fill="#D40000" transform="translate(0,0)"/>
<path d="" fill="#D40000" transform="translate(0,0)"/>
<path d="" fill="#D40000" transform="translate(0,0)"/>
<path d="" fill="#AA0000" transform="translate(0,0)"/>
<path d="M0 0 C3 1 3 1 3 1 Z " fill="#D40000" transform="translate(646,353)"/>
<path d="M0 0 C3 1 3 1 3 1 Z " fill="#AA0000" transform="translate(394,277)"/>
<path d="" fill="#AA0000" transform="translate(0,0)"/>
<path d="" fill="#D40000" transform="translate(0,0)"/>
<path d="M0 0 C3 1 3 1 3 1 Z " fill="#AA0000" transform="translate(517,254)"/>
<path d="" fill="#FF0000" transform="translate(0,0)"/>
<path d="" fill="#D40000" transform="translate(0,0)"/>
<path d="" fill="#B80000" transform="translate(0,0)"/>
<path d="" fill="#AA0000" transform="translate(0,0)"/>
<path d="M0 0 C3 1 3 1 3 1 Z " fill="#D40000" transform="translate(634,93)"/>
<path d="M0 0 C2 1 2 1 2 1 Z " fill="#BF0000" transform="translate(408,931)"/>
<path d="M0 0 C2 1 2 1 2 1 Z " fill="#800000" transform="translate(406,930)"/>
<path d="M0 0 C2 1 2 1 2 1 Z " fill="#BF0000" transform="translate(404,929)"/>
<path d="M0 0 C2 1 2 1 2 1 Z " fill="#BF0000" transform="translate(620,928)"/>
<path d="M0 0 C2 1 2 1 2 1 Z " fill="#BF0000" transform="translate(402,928)"/>
<path d="M0 0 C2 1 2 1 2 1 Z " fill="#FF0000" transform="translate(623,926)"/>
<path d="M0 0 C2 1 2 1 2 1 Z " fill="#BF0000" transform="translate(399,926)"/>
<path d="M0 0 C2 1 2 1 2 1 Z " fill="#BF0000" transform="translate(627,923)"/>
<path d="" fill="#BF0000" transform="translate(0,0)"/>
<path d="" fill="#BF0000" transform="translate(0,0)"/>
<path d="" fill="#BF0000" transform="translate(0,0)"/>
<path d="" fill="#800000" transform="translate(0,0)"/>
<path d="" fill="#BF0000" transform="translate(0,0)"/>
<path d="" fill="#BF0000" transform="translate(0,0)"/>
<path d="" fill="#800000" transform="translate(0,0)"/>
<path d="" fill="#800000" transform="translate(0,0)"/>
<path d="" fill="#800000" transform="translate(0,0)"/>
<path d="" fill="#BF0000" transform="translate(0,0)"/>
<path d="M0 0 C2 1 2 1 2 1 Z " fill="#BF0000" transform="translate(652,356)"/>
<path d="M0 0 C2 1 2 1 2 1 Z " fill="#BF0000" transform="translate(371,356)"/>
<path d="M0 0 C2 1 2 1 2 1 Z " fill="#BF0000" transform="translate(650,355)"/>
<path d="" fill="#800000" transform="translate(0,0)"/>
<path d="" fill="#BF0000" transform="translate(0,0)"/>
<path d="M0 0 C2 1 2 1 2 1 Z " fill="#BF0000" transform="translate(426,281)"/>
<path d="M0 0 C2 1 2 1 2 1 Z " fill="#BF0000" transform="translate(387,281)"/>
<path d="M0 0 C2 1 2 1 2 1 Z " fill="#BF0000" transform="translate(423,279)"/>
<path d="M0 0 C2 1 2 1 2 1 Z " fill="#BF0000" transform="translate(390,279)"/>
<path d="M0 0 C2 1 2 1 2 1 Z " fill="#BF0000" transform="translate(421,278)"/>
<path d="M0 0 C2 1 2 1 2 1 Z " fill="#BF0000" transform="translate(392,278)"/>
<path d="M0 0 C2 1 2 1 2 1 Z " fill="#800000" transform="translate(418,277)"/>
<path d="" fill="#BF0000" transform="translate(0,0)"/>
<path d="M0 0 C2 1 2 1 2 1 Z " fill="#FF0000" transform="translate(497,258)"/>
<path d="M0 0 C2 1 2 1 2 1 Z " fill="#BF0000" transform="translate(524,257)"/>
<path d="M0 0 C2 1 2 1 2 1 Z " fill="#FF0000" transform="translate(522,256)"/>
<path d="M0 0 C2 1 2 1 2 1 Z " fill="#BF0000" transform="translate(500,256)"/>
<path d="M0 0 C2 1 2 1 2 1 Z " fill="#BF0000" transform="translate(520,255)"/>
<path d="M0 0 C2 1 2 1 2 1 Z " fill="#BF0000" transform="translate(502,255)"/>
<path d="" fill="#FF0000" transform="translate(0,0)"/>
<path d="" fill="#800000" transform="translate(0,0)"/>
<path d="M0 0 C2 1 2 1 2 1 Z " fill="#FF0000" transform="translate(641,97)"/>
<path d="M0 0 C2 1 2 1 2 1 Z " fill="#BF0000" transform="translate(602,95)"/>
<path d="M0 0 C2 1 2 1 2 1 Z " fill="#FF0000" transform="translate(604,94)"/>
<path d="M0 0 C2 1 2 1 2 1 Z " fill="#BF0000" transform="translate(606,93)"/>
<path d="M0 0 C2 1 2 1 2 1 Z " fill="#800000" transform="translate(632,92)"/>
<path d="M0 0 C2 1 2 1 2 1 Z " fill="#BF0000" transform="translate(608,92)"/>
<path d="" fill="#800000" transform="translate(0,0)"/>
<path d="" fill="#FF0000" transform="translate(0,0)"/>
<path d="" fill="#800000" transform="translate(0,0)"/>
<path d="" fill="#800000" transform="translate(0,0)"/>
<path d="" fill="#800000" transform="translate(0,0)"/>
<path d="" fill="#FF0000" transform="translate(0,0)"/>
<path d="" fill="#800000" transform="translate(0,0)"/>
<path d="" fill="#800000" transform="translate(0,0)"/>
<path d="" fill="#AA0000" transform="translate(0,0)"/>
<path d="" fill="#FF0000" transform="translate(0,0)"/>
<path d="" fill="#800000" transform="translate(0,0)"/>
<path d="" fill="#FF0000" transform="translate(0,0)"/>
<path d="" fill="#800000" transform="translate(0,0)"/>
<path d="" fill="#800000" transform="translate(0,0)"/>
<path d="" fill="#800000" transform="translate(0,0)"/>
<path d="" fill="#800000" transform="translate(0,0)"/>
<path d="" fill="#800000" transform="translate(0,0)"/>
<path d="" fill="#800000" transform="translate(0,0)"/>
<path d="" fill="#800000" transform="translate(0,0)"/>
<path d="" fill="#800000" transform="translate(0,0)"/>
<path d="" fill="#800000" transform="translate(0,0)"/>
<path d="" fill="#FF0000" transform="translate(0,0)"/>
<path d="" fill="#800000" transform="translate(0,0)"/>
<path d="" fill="#FF0000" transform="translate(0,0)"/>
<path d="" fill="#AA0000" transform="translate(0,0)"/>
<path d="" fill="#FF0000" transform="translate(0,0)"/>
<path d="" fill="#800000" transform="translate(0,0)"/>
<path d="" fill="#FF0000" transform="translate(0,0)"/>
<path d="" fill="#800000" transform="translate(0,0)"/>
<path d="" fill="#800000" transform="translate(0,0)"/>
<path d="" fill="#800000" transform="translate(0,0)"/>
<path d="" fill="#FF0000" transform="translate(0,0)"/>
<path d="" fill="#800000" transform="translate(0,0)"/>
<path d="" fill="#800000" transform="translate(0,0)"/>
<path d="" fill="#800000" transform="translate(0,0)"/>
<path d="" fill="#800000" transform="translate(0,0)"/>
<path d="" fill="#800000" transform="translate(0,0)"/>
<path d="" fill="#800000" transform="translate(0,0)"/>
<path d="" fill="#800000" transform="translate(0,0)"/>
<path d="" fill="#800000" transform="translate(0,0)"/>
<path d="" fill="#800000" transform="translate(0,0)"/>
<path d="" fill="#800000" transform="translate(0,0)"/>
<path d="" fill="#800000" transform="translate(0,0)"/>
<path d="" fill="#800000" transform="translate(0,0)"/>
<path d="" fill="#800000" transform="translate(0,0)"/>
<path d="" fill="#800000" transform="translate(0,0)"/>
<path d="" fill="#FF0000" transform="translate(0,0)"/>
<path d="" fill="#FF0000" transform="translate(0,0)"/>
<path d="" fill="#800000" transform="translate(0,0)"/>
<path d="" fill="#800000" transform="translate(0,0)"/>
<path d="" fill="#800000" transform="translate(0,0)"/>
<path d="" fill="#800000" transform="translate(0,0)"/>
<path d="" fill="#FF0000" transform="translate(0,0)"/>
<path d="" fill="#800000" transform="translate(0,0)"/>
<path d="" fill="#FF0000" transform="translate(0,0)"/>
<path d="" fill="#800000" transform="translate(0,0)"/>
<path d="" fill="#FF0000" transform="translate(0,0)"/>
<path d="" fill="#FF0000" transform="translate(0,0)"/>
<path d="" fill="#800000" transform="translate(0,0)"/>
<path d="" fill="#800000" transform="translate(0,0)"/>
<path d="" fill="#FF0000" transform="translate(0,0)"/>
<path d="" fill="#800000" transform="translate(0,0)"/>
<path d="" fill="#800000" transform="translate(0,0)"/>
<path d="" fill="#800000" transform="translate(0,0)"/>
<path d="" fill="#800000" transform="translate(0,0)"/>
<path d="" fill="#800000" transform="translate(0,0)"/>
<path d="" fill="#800000" transform="translate(0,0)"/>
<path d="" fill="#800000" transform="translate(0,0)"/>
<path d="" fill="#800000" transform="translate(0,0)"/>
<path d="" fill="#800000" transform="translate(0,0)"/>
<path d="" fill="#800000" transform="translate(0,0)"/>
<path d="" fill="#800000" transform="translate(0,0)"/>
<path d="" fill="#800000" transform="translate(0,0)"/>
<path d="" fill="#FF0000" transform="translate(0,0)"/>
<path d="" fill="#800000" transform="translate(0,0)"/>
</svg>
