<?xml version="1.0" encoding="UTF-8"?>
<svg version="1.1" xmlns="http://www.w3.org/2000/svg" width="600" height="600">
<path d="M0 0 C198 0 396 0 600 0 C600 198 600 396 600 600 C402 600 204 600 0 600 C0 402 0 204 0 0 Z " fill="#FEFEFE" transform="translate(0,0)"/>
<path d="M0 0 C0.90486145 -0.00700928 1.8097229 -0.01401855 2.74200439 -0.02124023 C5.72301235 -0.03879545 8.70306497 -0.02720415 11.68408203 -0.01367188 C13.76384665 -0.01636797 15.84361004 -0.02025136 17.92337036 -0.02526855 C22.27943946 -0.03116066 26.63518008 -0.02261147 30.99121094 -0.00390625 C36.56190157 0.01885449 42.13182007 0.00577632 47.70248222 -0.01819611 C51.99717978 -0.03268597 56.2916959 -0.02803295 60.58639908 -0.01768494 C62.63960996 -0.01502499 64.69283755 -0.01826152 66.7460289 -0.02760315 C69.62279285 -0.03781798 72.49832708 -0.02219744 75.375 0 C76.63617142 -0.01214539 76.63617142 -0.01214539 77.92282104 -0.02453613 C84.91195937 0.07484223 90.32069968 1.95737827 95.25439453 7.01757812 C98.28797842 11.87131235 97.98151652 16.79382191 98.00976562 22.38183594 C98.02203186 23.72405968 98.02203186 23.72405968 98.0345459 25.09339905 C98.05934291 28.05249368 98.07590122 31.01154053 98.09033203 33.97070312 C98.09565571 34.98307793 98.10097939 35.99545273 98.10646439 37.03850555 C98.13317102 42.39691917 98.15255403 47.75530969 98.16699219 53.11376953 C98.18033158 57.54269055 98.20818814 61.97115086 98.24902344 66.39990234 C98.2983849 71.75379745 98.32311746 77.10727469 98.33021927 82.46138763 C98.33692369 84.49789747 98.3521246 86.53439827 98.37611008 88.57077789 C98.40782505 91.42625741 98.40778887 94.28013187 98.40039062 97.13574219 C98.41679596 97.97031448 98.43320129 98.80488678 98.45010376 99.66474915 C98.38655022 105.68306135 96.95567278 110.04530661 92.81689453 114.51757812 C87.44679047 118.64396945 81.94761525 119.09845212 75.375 119.03515625 C74.46663391 119.04216553 73.55826782 119.0491748 72.62237549 119.05639648 C69.6426264 119.07389277 66.66383948 119.06238545 63.68408203 119.04882812 C61.60238463 119.05152497 59.52068846 119.055409 57.43899536 119.0604248 C53.0864863 119.06630812 48.73430659 119.05779264 44.38183594 119.0390625 C38.80876471 119.01624542 33.23646291 119.02942117 27.66341972 119.05335236 C23.36880715 119.06781753 19.07437656 119.06320148 14.77975845 119.05284119 C12.72489454 119.05017738 10.67001399 119.05343147 8.61516953 119.0627594 C5.7430018 119.07293983 2.87207546 119.05740405 0 119.03515625 C-1.26724411 119.04730164 -1.26724411 119.04730164 -2.56008911 119.05969238 C-7.89541814 118.98328628 -11.07301987 118.22108416 -15.18310547 114.51757812 C-19.86248129 108.99795337 -20.91583871 104.20507032 -20.83007812 97.10742188 C-20.83883972 96.20226837 -20.84760132 95.29711487 -20.85662842 94.36453247 C-20.87850393 91.39421614 -20.86411182 88.42540766 -20.84716797 85.45507812 C-20.8505395 83.37817094 -20.85539493 81.30126569 -20.86166382 79.22436523 C-20.86901911 74.88017923 -20.85837271 70.5365087 -20.83496094 66.19238281 C-20.80647434 60.63729315 -20.82288548 55.08341148 -20.85282326 49.52836609 C-20.87093238 45.24221778 -20.86512157 40.95635362 -20.8521843 36.67019653 C-20.84886029 34.62256729 -20.85290181 32.57491186 -20.86458206 30.52731323 C-20.87735025 27.66009666 -20.85783048 24.79480815 -20.83007812 21.92773438 C-20.84019928 21.09009552 -20.85032043 20.25245667 -20.86074829 19.38943481 C-20.75209818 13.29874242 -19.13587405 9.18012291 -15.18310547 4.51757812 C-10.31324306 0.12945423 -6.24576439 -0.05985999 0 0 Z " fill="#07AFE3" transform="translate(50.18310546875,240.482421875)"/>
<path d="M0 0 C6.49759414 2.89206641 12.13289944 8.74041897 14.7421875 15.38671875 C15.64381951 22.72558397 15.31378104 29.37641783 10.7421875 35.38671875 C5.71024199 40.85460013 -0.13624437 44.42227859 -7.6953125 44.82421875 C-13.62128624 44.57269185 -17.97283146 42.58173991 -22.2421875 38.48046875 C-28.15703729 31.93013923 -29.80484016 27.62692287 -29.625 18.71484375 C-28.95177698 12.61286487 -26.75536219 8.42351358 -21.9921875 4.5390625 C-14.86246273 -0.32524972 -8.67698693 -2.35689783 0 0 Z " fill="#292F39" transform="translate(307.2578125,285.61328125)"/>
<path d="M0 0 C2.52256291 2.34729799 4.45172023 4.90344045 6 8 C6.08649451 10.48099734 6.11565054 12.93344928 6.09765625 15.4140625 C6.0962413 16.14370209 6.09482635 16.87334167 6.09336853 17.62509155 C6.08776531 19.95843585 6.07521235 22.29168464 6.0625 24.625 C6.05748541 26.20572778 6.05292243 27.78645707 6.04882812 29.3671875 C6.03779484 33.24482854 6.02052811 37.12239807 6 41 C2.37 41 -1.26 41 -5 41 C-5.33 39.68 -5.66 38.36 -6 37 C-6.598125 37.474375 -7.19625 37.94875 -7.8125 38.4375 C-12.86148874 42.04392053 -19.0460415 41.71573345 -25 41 C-28.70672198 39.17135049 -30.72112561 36.41831159 -33 33 C-33.66315196 28.01864926 -33.78068389 23.49891307 -31.4375 19 C-26.39975457 14.86646529 -21.55298093 13.49815299 -15.15625 13.6953125 C-12.05157325 14.13401682 -9.6480112 15.37045464 -7 17 C-7 17.66 -7 18.32 -7 19 C-6.34 19 -5.68 19 -5 19 C-5.0825 17.741875 -5.165 16.48375 -5.25 15.1875 C-5.29640625 14.47980469 -5.3428125 13.77210938 -5.390625 13.04296875 C-6.24351439 10.18360241 -7.41199335 9.42649514 -10 8 C-16.19634749 7.04527576 -21.66279148 7.53802691 -27 11 C-31 5.25 -31 5.25 -31 3 C-29.60922699 2.17886823 -28.21211107 1.36847505 -26.8125 0.5625 C-26.03519531 0.11003906 -25.25789063 -0.34242188 -24.45703125 -0.80859375 C-16.95326801 -4.44714349 -7.21128732 -4.25764459 0 0 Z " fill="#2C323C" transform="translate(487,288)"/>
<path d="M0 0 C3.96 0 7.92 0 12 0 C12 6.6 12 13.2 12 20 C14.31 18.68 16.62 17.36 19 16 C24.47437825 15.12306779 30.81021335 14.72271863 35.6875 17.75 C39.08347973 21.0541965 39.92961205 22.8631968 40.22705078 27.66699219 C40.2267359 29.12699142 40.21554172 30.58701588 40.1953125 32.046875 C40.1924826 32.81807678 40.18965271 33.58927856 40.18673706 34.3838501 C40.17557013 36.83939332 40.15047229 39.2945676 40.125 41.75 C40.11496568 43.41796347 40.10584061 45.08593268 40.09765625 46.75390625 C40.07564225 50.83607897 40.04113667 54.917977 40 59 C36.37 59 32.74 59 29 59 C28.9906543 58.10692139 28.98130859 57.21384277 28.97167969 56.29370117 C28.92764696 52.97764838 28.86603139 49.66289061 28.79248047 46.34741211 C28.76426818 44.91296317 28.74305476 43.47835871 28.72900391 42.04370117 C28.70757551 39.98014698 28.66093533 37.91846294 28.609375 35.85546875 C28.58842773 34.61434326 28.56748047 33.37321777 28.54589844 32.09448242 C28.28622702 28.94563981 28.28622702 28.94563981 26.17675781 27.09887695 C22.92737576 25.45851484 20.58598569 25.55961579 17 26 C14.20735443 27.5186295 14.20735443 27.5186295 12 30 C11.22270736 33.17540136 11.22270736 33.17540136 11.29296875 36.734375 C11.26396484 38.02988281 11.23496094 39.32539063 11.20507812 40.66015625 C11.19868929 42.02343512 11.1928367 43.3867166 11.1875 44.75 C11.16435029 46.12894569 11.13898393 47.50785607 11.11132812 48.88671875 C11.05238786 52.2581019 11.01615582 55.62818438 11 59 C7.37 59 3.74 59 0 59 C0 39.53 0 20.06 0 0 Z " fill="#2D333D" transform="translate(229,270)"/>
<path d="M0 0 C0 11.55 0 23.1 0 35 C6.27 35 12.54 35 19 35 C17.35301673 38.29396654 16.41623903 39.83316818 13.94311523 42.29980469 C13.32585068 42.92014587 12.70858612 43.54048706 12.07261658 44.17962646 C11.40798904 44.83706848 10.74336151 45.4945105 10.05859375 46.171875 C9.37571793 46.8542926 8.6928421 47.53671021 7.98927307 48.23980713 C6.54835568 49.67770822 5.10501339 51.11318287 3.65942383 52.54638672 C1.43706221 54.75043418 -0.7771356 56.96243693 -2.99023438 59.17578125 C-4.39015278 60.57078654 -5.79052763 61.96533397 -7.19140625 63.359375 C-8.1913839 64.35768341 -8.1913839 64.35768341 -9.21156311 65.37615967 C-9.82567551 65.98389221 -10.4397879 66.59162476 -11.07250977 67.21777344 C-11.61496841 67.75642029 -12.15742706 68.29506714 -12.71632385 68.85003662 C-14 70 -14 70 -15 70 C-15 58.45 -15 46.9 -15 35 C-21.6 35 -28.2 35 -35 35 C-35 34.34 -35 33.68 -35 33 C-33.72241211 31.74584961 -33.72241211 31.74584961 -31.83984375 30.21484375 C-27.89122072 26.8580355 -24.21515678 23.30333514 -20.56640625 19.62890625 C-19.9989267 19.05812347 -19.43144714 18.4873407 -18.84677124 17.89926147 C-17.08337498 16.12228234 -15.32253559 14.34280749 -13.5625 12.5625 C-11.21247389 10.18596628 -8.85919893 7.81271916 -6.50390625 5.44140625 C-5.69621544 4.62126793 -5.69621544 4.62126793 -4.87220764 3.78456116 C-1.11275213 0 -1.11275213 0 0 0 Z " fill="#F5FBFD" transform="translate(96,263)"/>
<path d="M0 0 C3.63 0 7.26 0 11 0 C11.01981934 0.86278564 11.03963867 1.72557129 11.06005859 2.61450195 C11.13819644 5.81836956 11.22489082 9.02185894 11.31738281 12.2253418 C11.3556435 13.61131907 11.39050156 14.99739465 11.421875 16.38354492 C11.46758699 18.3770164 11.52658925 20.37016914 11.5859375 22.36328125 C11.6173584 23.56251221 11.6487793 24.76174316 11.68115234 25.99731445 C11.78429494 29.17882706 11.78429494 29.17882706 14 32 C16.06673485 32.43995262 16.06673485 32.43995262 18.375 32.3125 C19.53128906 32.30669922 19.53128906 32.30669922 20.7109375 32.30078125 C23.39483705 32.07497869 23.39483705 32.07497869 27 30 C27.33 20.1 27.66 10.2 28 0 C31.96 0 35.92 0 40 0 C40.02464574 5.96313166 40.042834 11.92623395 40.05493164 17.8894043 C40.05997278 19.91968298 40.06680557 21.94995802 40.07543945 23.98022461 C40.08751467 26.89177347 40.09323034 29.8032745 40.09765625 32.71484375 C40.10281754 33.6283812 40.10797882 34.54191864 40.11329651 35.48313904 C40.11349168 37.65575427 40.06211805 39.82827296 40 42 C39 43 39 43 36.49609375 43.09765625 C35.48675781 43.08605469 34.47742188 43.07445312 33.4375 43.0625 C32.42558594 43.05347656 31.41367187 43.04445313 30.37109375 43.03515625 C29.19740234 43.01775391 29.19740234 43.01775391 28 43 C27.67 41.68 27.34 40.36 27 39 C26.113125 39.66 25.22625 40.32 24.3125 41 C19.04190197 44.01792934 12.87573776 44.01151941 7 43 C3.52617885 40.76892613 1.42717203 38.86485849 0 35 C-0.1683504 32.28105045 -0.23294575 29.66896045 -0.1953125 26.953125 C-0.1924826 26.18192322 -0.18965271 25.41072144 -0.18673706 24.6161499 C-0.17557013 22.16060668 -0.15047229 19.7054324 -0.125 17.25 C-0.11496568 15.58203653 -0.10584061 13.91406732 -0.09765625 12.24609375 C-0.07564225 8.16392103 -0.04113667 4.082023 0 0 Z " fill="#2F353F" transform="translate(331,286)"/>
<path d="M0 0 C-0.62759865 2.92879371 -1.58622659 5.36095629 -3 8 C-5.23181756 7.50404054 -7.12226338 6.94061493 -9.1875 5.9375 C-13.13683462 4.62105513 -16.8742519 4.83820596 -21 5 C-21.33 6.32 -21.66 7.64 -22 9 C-18.8766271 11.0822486 -16.81566224 11.59916656 -13.1875 12.375 C-7.15551471 13.82471627 -3.59772732 15.48886359 0.875 19.8125 C2.5542101 23.07763075 2.43721578 25.37735495 2 29 C-0.74073416 34.27845097 -3.83122418 36.41561209 -9 39 C-17.04588162 39.51147414 -24.75077781 39.90342733 -32 36 C-34 33.8125 -34 33.8125 -35 32 C-33.02 29.03 -33.02 29.03 -31 26 C-26 28 -26 28 -23.75 29.125 C-19.46759409 30.4875837 -14.11511833 31.05755917 -10 29 C-10.495 26.525 -10.495 26.525 -11 24 C-12.02480469 23.74605469 -13.04960938 23.49210937 -14.10546875 23.23046875 C-15.46625347 22.88323403 -16.82692465 22.53555416 -18.1875 22.1875 C-18.86103516 22.02185547 -19.53457031 21.85621094 -20.22851562 21.68554688 C-25.16429385 20.40946763 -29.06716685 18.79953432 -32.8125 15.3125 C-34.57088071 11.88828493 -34.62418186 8.71639315 -34 5 C-31.7885238 0.20846823 -28.99178528 -2.22167612 -24.265625 -4.3046875 C-15.40238271 -7.024786 -7.93175704 -3.96587852 0 0 Z " fill="#2A303B" transform="translate(536,290)"/>
<path d="M0 0 C0.66 0.33 1.32 0.66 2 1 C1.45276317 4.37462715 0.9451 6.08235 -1 9 C-1.763125 8.690625 -2.52625 8.38125 -3.3125 8.0625 C-7.18370069 6.53202531 -10.04259006 5.88367 -14.1875 5.9375 C-15.08855469 5.94652344 -15.98960937 5.95554687 -16.91796875 5.96484375 C-17.94857422 5.98224609 -17.94857422 5.98224609 -19 6 C-19 7.65 -19 9.3 -19 11 C-17.48019531 11.36351562 -17.48019531 11.36351562 -15.9296875 11.734375 C-14.57797167 12.07230396 -13.22641757 12.41088024 -11.875 12.75 C-10.87726563 12.98589844 -10.87726563 12.98589844 -9.859375 13.2265625 C-4.0166994 14.71587197 0.5524282 16.82864231 4 22 C4.74895238 26.57209304 4.3842086 30.17010943 2.4375 34.375 C-1.41909776 38.52825913 -5.3808857 39.80374372 -10.8671875 40.46875 C-12.20276055 40.50164589 -13.5390722 40.51159436 -14.875 40.5 C-15.57173828 40.49935547 -16.26847656 40.49871094 -16.98632812 40.49804688 C-23.0156641 40.32417765 -27.28334851 38.66850672 -32 35 C-31.45276317 31.62537285 -30.9451 29.91765 -29 27 C-26.30298166 27.53940367 -24.26109801 28.35524134 -21.75 29.5625 C-17.67280405 31.35506029 -14.42679957 31.36889996 -10 31 C-9.01 30.34 -8.02 29.68 -7 29 C-7 28.01 -7 27.02 -7 26 C-11.06689947 24.05496112 -14.60155924 22.82687268 -19.0625 22.125 C-24.05090832 21.22769485 -26.4789405 19.61134308 -30 16 C-31.74943958 12.50112084 -31.55276176 8.81791259 -31 5 C-28.23392018 0.33224031 -25.23572409 -1.93951046 -20.16796875 -3.52734375 C-12.4397779 -5.2122286 -6.90068685 -3.6327083 0 0 Z " fill="#292F39" transform="translate(216,289)"/>
<path d="M0 0 C1.28648437 -0.03738281 2.57296875 -0.07476562 3.8984375 -0.11328125 C8.20649574 0.37893924 10.28906869 1.60080734 13.625 4.3125 C15 6.5625 15 6.5625 15.625 8.3125 C13.375 10.875 13.375 10.875 10.625 13.3125 C8.15750708 13.23772749 6.87842421 12.45610705 4.75 11.25 C1.85021952 9.97068508 -0.23139741 9.99172423 -3.375 10.3125 C-6.11539337 11.55813335 -7.8393868 12.62385445 -9.6875 15 C-10.7202338 18.47374097 -10.95534718 21.75531317 -10.375 25.3125 C-8.87751293 27.96933189 -7.52847249 30.15902751 -5.375 32.3125 C-3.75360563 32.43744616 -2.12615878 32.48821624 -0.5 32.5 C0.82644531 32.52126953 0.82644531 32.52126953 2.1796875 32.54296875 C4.88266726 32.48318424 4.88266726 32.48318424 7.625 30.3125 C11.41844475 30.55723837 13.16080477 32.58428385 15.625 35.3125 C14.48251124 38.86690947 12.35578085 40.81462501 9.078125 42.54296875 C2.77513179 44.52018159 -4.60681011 44.46614583 -10.9140625 42.53515625 C-16.56605276 39.4691152 -20.20524752 34.26945681 -22.375 28.3125 C-23.38210909 21.85685827 -23.6102393 15.54011919 -20.25 9.75 C-14.50969824 2.17215122 -9.3861826 0.17798151 0 0 Z " fill="#282E39" transform="translate(432.375,285.6875)"/>
<path d="M0 0 C3.96 0 7.92 0 12 0 C12 3.63 12 7.26 12 11 C14.64 11 17.28 11 20 11 C20 14.3 20 17.6 20 21 C17.36 21 14.72 21 12 21 C12.33 28.26 12.66 35.52 13 43 C16.465 43.495 16.465 43.495 20 44 C20.33 46.64 20.66 49.28 21 52 C17.65337102 54.23108598 16.13756327 54.40847238 12.1875 54.5625 C11.17042969 54.62566406 10.15335937 54.68882812 9.10546875 54.75390625 C5.22046431 53.81075423 3.57390848 52.51240622 1.14477539 49.38208008 C-1.24484776 44.40968658 -0.60434251 38.95204894 -0.375 33.5625 C-0.33439453 31.74975586 -0.33439453 31.74975586 -0.29296875 29.90039062 C-0.22256593 26.93173819 -0.12413433 23.96681053 0 21 C-2.31 21 -4.62 21 -7 21 C-7 17.7 -7 14.4 -7 11 C-4.69 11 -2.38 11 0 11 C0 7.37 0 3.74 0 0 Z " fill="#2D333D" transform="translate(384,275)"/>
<path d="M0 0 C3.63 0 7.26 0 11 0 C11 3.63 11 7.26 11 11 C13.97 11 16.94 11 20 11 C20 14.3 20 17.6 20 21 C17.03 21 14.06 21 11 21 C11.33 28.59 11.66 36.18 12 44 C14.31 44 16.62 44 19 44 C20.21676146 46.57667134 21.05184833 48.37782003 20.8125 51.25 C20.544375 51.8275 20.27625 52.405 20 53 C15.38187125 54.53937625 10.82274505 54.52175897 6 54 C2.38308725 51.90219061 1.31708591 50.95125774 0 47 C-0.08291953 45.0079697 -0.10738177 43.01326287 -0.09765625 41.01953125 C-0.09443359 39.85615234 -0.09121094 38.69277344 -0.08789062 37.49414062 C-0.07951172 36.27919922 -0.07113281 35.06425781 -0.0625 33.8125 C-0.05798828 32.58595703 -0.05347656 31.35941406 -0.04882812 30.09570312 C-0.03703065 27.06375332 -0.02056921 24.03190094 0 21 C-2.31 21 -4.62 21 -7 21 C-7 17.7 -7 14.4 -7 11 C-4.69 11 -2.38 11 0 11 C0 7.37 0 3.74 0 0 Z " fill="#282E39" transform="translate(549,275)"/>
<path d="M0 0 C0 10.56 0 21.12 0 32 C-10.89 32 -21.78 32 -33 32 C-29.09718237 27.44671276 -25.23521303 23.07645863 -21.015625 18.84765625 C-20.47395691 18.30265976 -19.93228882 17.75766327 -19.37420654 17.19615173 C-18.24279687 16.05972814 -17.11007469 14.92460982 -15.97607422 13.79077148 C-14.23505742 12.0475384 -12.50223063 10.2964178 -10.76953125 8.54492188 C-9.66455103 7.43701255 -8.55909952 6.32957302 -7.453125 5.22265625 C-6.93542542 4.69777115 -6.41772583 4.17288605 -5.88433838 3.63209534 C-2.22886152 0 -2.22886152 0 0 0 Z " fill="#FDFEFE" transform="translate(95,265)"/>
<path d="M0 0 C3.14943894 1.44323804 5.15074895 3.05751524 7 6 C8.10886405 11.55181259 8.0174749 16.27029267 5.125 21.1875 C1.50210978 24.27761224 -1.17627175 24.33367555 -5.80859375 24.2890625 C-8 24 -8 24 -10.4375 22.1875 C-14.02698662 17.16221873 -14.86495787 14.10681097 -14 8 C-10.60400007 1.55931047 -7.38661944 -0.98488259 0 0 Z " fill="#F7F7F8" transform="translate(303,295)"/>
<path d="M0 0 C1.28197266 -0.01160156 1.28197266 -0.01160156 2.58984375 -0.0234375 C5.54762936 0.4531725 6.93825847 1.28005836 9.0625 3.375 C9.3125 6.5625 9.3125 6.5625 9.0625 9.375 C4.54903233 12.01702986 1.29861111 13.05375514 -3.9375 12.375 C-6.375 10.6875 -6.375 10.6875 -7.9375 8.375 C-8.375 5.8125 -8.375 5.8125 -7.9375 3.375 C-5.60676621 0.25988464 -3.80440863 -0.03432549 0 0 Z " fill="#F4F4F5" transform="translate(472.9375,309.625)"/>
<path d="M0 0 C0.33 0 0.66 0 1 0 C1 11.55 1 23.1 1 35 C-3.95 37.31 -8.9 39.62 -14 42 C-14 39.69 -14 37.38 -14 35 C-20.6 35 -27.2 35 -34 35 C-33.67 34.34 -33.34 33.68 -33 33 C-16.665 33.495 -16.665 33.495 0 34 C-0.36854335 23.18449632 -0.36854335 23.18449632 -0.74829102 12.36938477 C-0.7922375 11.01840514 -0.83580242 9.66741302 -0.87890625 8.31640625 C-0.90561401 7.60899292 -0.93232178 6.90157959 -0.95983887 6.17272949 C-1.01238632 4.44923523 -1.01192097 2.72425392 -1 1 C-0.67 0.67 -0.34 0.34 0 0 Z " fill="#CDEDF7" transform="translate(95,263)"/>
<path d="M0 0 C4.29 0 8.58 0 13 0 C9.90727248 2.31954564 7.69759103 3.71720383 4.25 5.1875 C3.45078125 5.53167969 2.6515625 5.87585938 1.828125 6.23046875 C1.22484375 6.48441406 0.6215625 6.73835938 0 7 C0 4.69 0 2.38 0 0 Z " fill="#90CFE3" transform="translate(81,298)"/>
<path d="M0 0 C0.66 0.33 1.32 0.66 2 1 C-0.64 3.64 -3.28 6.28 -6 9 C-6 6 -6 6 -3.5625 3.375 C-2.716875 2.59125 -1.87125 1.8075 -1 1 C-0.67 0.67 -0.34 0.34 0 0 Z " fill="#3D424C" transform="translate(288,288)"/>
<path d="M0 0 C0.66 0.33 1.32 0.66 2 1 C-0.31 3.31 -2.62 5.62 -5 8 C-5.33 7.34 -5.66 6.68 -6 6 C-4 4 -2 2 0 0 Z " fill="#494E57" transform="translate(509,287)"/>
</svg>
