<?xml version="1.0" encoding="UTF-8"?>
<svg version="1.1" xmlns="http://www.w3.org/2000/svg" width="297" height="300">
<path d="M0 0 C98.01 0 196.02 0 297 0 C297 99 297 198 297 300 C198.99 300 100.98 300 0 300 C0 201 0 102 0 0 Z " fill="#E95D30" transform="translate(0,0)"/>
<path d="M0 0 C5.26521342 -0.1242878 10.52955926 -0.21466072 15.79589844 -0.2746582 C17.58446136 -0.29968775 19.37292317 -0.33372244 21.16113281 -0.37719727 C23.74309323 -0.43836411 26.32369322 -0.46632445 28.90625 -0.48828125 C29.69616333 -0.51408768 30.48607666 -0.5398941 31.29992676 -0.56648254 C37.34869656 -0.56948754 41.28682246 1.23784283 46 5 C48.375 7.5625 48.375 7.5625 50 10 C50.3578508 10.53032333 50.7157016 11.06064667 51.08439636 11.60704041 C52.4756027 15.24300298 52.28613949 18.88478276 52.2746582 22.72485352 C52.27976913 23.60509689 52.28488007 24.48534027 52.29014587 25.39225769 C52.30405236 28.30454298 52.30308328 31.21659167 52.30078125 34.12890625 C52.30466965 36.15950101 52.30900461 38.19009496 52.31376648 40.22068787 C52.32123246 44.48186881 52.32093615 48.74296692 52.31567383 53.00415039 C52.30990064 58.44219081 52.32675623 63.87988825 52.3500185 69.31787205 C52.36482 73.51572119 52.36561846 77.71348917 52.36250877 81.91135979 C52.36301949 83.91464857 52.36820996 85.91794219 52.37832069 87.92120552 C52.44903927 103.90311049 51.86563399 116.89141464 40.33056641 128.99414062 C38.92843456 130.38912629 37.51838197 131.77618431 36.1015625 133.15625 C35.34837738 133.9028186 34.59519226 134.64938721 33.81918335 135.4185791 C31.42818909 137.78633639 29.02723167 140.14364932 26.625 142.5 C24.231668 144.85805065 21.84057808 147.21831228 19.45223999 149.5814209 C17.97181999 151.04511734 16.48831419 152.50570208 15.00112915 153.96252441 C14.31707001 154.63682495 13.63301086 155.31112549 12.92822266 156.00585938 C12.33707672 156.58573608 11.74593079 157.16561279 11.13687134 157.76306152 C7.97752235 161.07035906 5.01187245 164.55786006 2 168 C26.75 168.495 26.75 168.495 52 169 C52.12375 175.249375 52.2475 181.49875 52.375 187.9375 C52.45693604 190.86870728 52.45693604 190.86870728 52.54052734 193.85913086 C52.81202568 209.92075769 52.81202568 209.92075769 47.90388489 215.20032787 C39.29614089 223.33691063 29.6577976 222.72053224 18.49609375 222.6628418 C16.61775702 222.67126298 14.73942873 222.68179163 12.8611145 222.69425964 C7.77840988 222.72124545 2.69619737 222.71662368 -2.38654709 222.70455909 C-6.63609408 222.69741351 -10.88555089 222.70593665 -15.13509083 222.71446449 C-25.16208373 222.73439648 -35.18883808 222.72886966 -45.21582031 222.70678711 C-55.54808612 222.68441839 -65.87972727 222.7020329 -76.21193409 222.73983639 C-85.09630744 222.77109659 -93.98048769 222.77897853 -102.86490917 222.76788265 C-108.16537345 222.76140439 -113.46547729 222.76335613 -118.76589966 222.78720665 C-123.75010951 222.80849391 -128.73343943 222.8004349 -133.71759415 222.77011299 C-135.54245516 222.76379809 -137.36738485 222.76761614 -139.19219589 222.78252411 C-155.80421575 222.90719829 -155.80421575 222.90719829 -162.43763733 217.65197468 C-164.96497431 214.97967793 -166.45770111 212.3416476 -168 209 C-168.33 208.34 -168.66 207.68 -169 207 C-169.11953924 204.10405932 -169.17840207 201.23145896 -169.19287109 198.33447266 C-169.20104858 197.43662048 -169.20922607 196.53876831 -169.21765137 195.6137085 C-169.24253872 192.63049995 -169.25903698 189.64733937 -169.2734375 186.6640625 C-169.28142302 185.13368914 -169.28142302 185.13368914 -169.28956985 183.57239914 C-169.31632599 178.16399639 -169.33568614 172.75561683 -169.35009766 167.34716797 C-169.36339615 162.88341595 -169.39116959 158.42012548 -169.43212891 153.95654297 C-169.48165347 148.55954853 -169.50624427 143.16297046 -169.51332474 137.76575851 C-169.52000839 135.71580847 -169.53515447 133.66586664 -169.55921555 131.61604691 C-169.7162839 117.41562236 -169.24213966 105.71313691 -158.90588379 94.8890686 C-158.27694214 94.26567596 -157.64800049 93.64228333 -157 93 C-156.01839905 91.98768814 -156.01839905 91.98768814 -155.01696777 90.95492554 C-152.88048135 88.76526963 -150.71763544 86.60487787 -148.546875 84.44921875 C-147.76483704 83.66859573 -146.98279907 82.88797272 -146.17706299 82.08369446 C-143.70373657 79.61591466 -141.22694118 77.15165105 -138.75 74.6875 C-137.07268421 73.01520708 -135.39559873 71.34268312 -133.71875 69.66992188 C-130.04140666 66.00235748 -126.36188033 62.33699996 -122.68035889 58.67362976 C-121.55602789 57.55380123 -120.44308356 56.42242798 -119.34161377 55.28010559 C-118 54 -118 54 -117 54 C-117 92.28 -117 130.56 -117 170 C-95.55 170 -74.1 170 -52 170 C-51.67 186.5 -51.34 203 -51 220 C-16.17462075 195.01314772 -16.17462075 195.01314772 2.22812963 157.76515365 C3.73594779 147.86972555 4.07722497 137.92524767 4.1015625 127.9296875 C4.10382182 127.00177178 4.10608114 126.07385607 4.10840893 125.11782169 C4.09414548 113.62310249 3.64769424 102.1609419 3.04671264 90.68370938 C2.53819571 80.77109326 2.33176675 70.85805533 2.1429379 60.93502402 C1.74972539 40.60716412 1.00146687 20.30643191 0 0 Z " fill="#FDFDFD" transform="translate(208,39)"/>
<path d="M0 0 C37.95 0 75.9 0 115 0 C121.5157833 116.50220539 121.5157833 116.50220539 102.25901794 138.8782692 C98.47375729 143.04795443 94.38848501 146.77640064 90.0625 150.375 C89.46664345 150.87188072 88.8707869 151.36876144 88.25687408 151.88069916 C68.65280264 168 68.65280264 168 64 168 C64 150.84 64 133.68 64 116 C42.88 116 21.76 116 0 116 C0 77.72 0 39.44 0 0 Z " fill="#E85C2E" transform="translate(92,92)"/>
<path d="M0 0 C2.08831277 0.00103887 4.17662751 -0.00000296 6.26493835 -0.00302124 C10.63354855 -0.00284228 15.00141691 0.01791 19.36987305 0.05419922 C24.94125505 0.0994884 30.5115507 0.10067221 36.08306599 0.08716393 C40.39425636 0.08044604 44.70520378 0.09381734 49.01634789 0.11342239 C51.06902987 0.12106723 53.12173903 0.12344764 55.17443275 0.1202507 C70.15211508 0.11635117 82.09127218 0.27389881 93.3805542 11.2956543 C94.1663385 12.097854 94.9521228 12.90005371 95.76171875 13.7265625 C96.52800598 14.47139893 97.29429321 15.21623535 98.08380127 15.98364258 C100.42803801 18.26229017 102.74212053 20.56815727 105.05078125 22.8828125 C105.88008148 23.71115601 106.70938171 24.53949951 107.56381226 25.39294434 C109.2942572 27.12271503 111.02346519 28.85372401 112.75146484 30.5859375 C115.4112846 33.25117842 118.07648547 35.91095622 120.7421875 38.5703125 C122.4287067 40.25749141 124.11491626 41.9449799 125.80078125 43.6328125 C126.60061432 44.43062134 127.40044739 45.22843018 128.22451782 46.05041504 C128.95302948 46.78207886 129.68154114 47.51374268 130.43212891 48.26757812 C131.39948471 49.23612732 131.39948471 49.23612732 132.38638306 50.22424316 C133.76171875 51.7265625 133.76171875 51.7265625 133.76171875 52.7265625 C77.99171875 52.7265625 22.22171875 52.7265625 -35.23828125 52.7265625 C-35.23828125 11.77244691 -35.23828125 11.77244691 -26.75317383 3.20947266 C-18.94973069 -1.43248006 -8.75273865 -0.08604015 0 0 Z " fill="#FDFDFD" transform="translate(73.23828125,39.2734375)"/>
</svg>
